M48
METRIC,0000.00
T01C1.0
T02C1.1
T03C2.1
T04C2.5
T05C3.2
T06C4.0
%
T01
X+009743Y+003901G85X+009593Y+003901
X+009743Y+004401G85X+009593Y+004401
X+009743Y+004901G85X+009593Y+004901
X+008493Y+005504
X+007858Y+005504
X+006080Y+005311
X+005318Y+005311
X+004556Y+005311
X+003794Y+005311
X+003794Y+007811
X+004556Y+007811
X+005318Y+007811
X+006080Y+007811
X+007858Y+003004
X+008493Y+003004
X+009743Y+003401G85X+009593Y+003401
X+011422Y+003151
X+012422Y+003151
X+014251Y+003401G85X+014101Y+003401
X+014251Y+003901G85X+014101Y+003901
X+014251Y+004401G85X+014101Y+004401
X+014251Y+004901G85X+014101Y+004901
X+015351Y+005485
X+015986Y+005485
X+017764Y+005311
X+018526Y+005311
X+019288Y+005311
X+020050Y+005311
X+020050Y+007811
X+019288Y+007811
X+018526Y+007811
X+017764Y+007811
X+015986Y+002985
X+015351Y+002985
T02
X+011422Y+009014
X+011422Y+009764
X+005215Y+011376
X+004465Y+011376
T03
X+003667Y+003549
X+003667Y+004549
X+006207Y+004549
X+006207Y+003549
X+006207Y+008629
X+006207Y+009629
X+003667Y+009629
X+003667Y+008629
X+017629Y+008580
X+017629Y+009580
X+020169Y+009580
X+020169Y+008580
X+020177Y+004492
X+020177Y+003492
X+017637Y+003492
X+017637Y+004492
T04
X+011422Y+011651
X+012422Y+011651
X+013446Y+008175
X+013446Y+007160
X+013446Y+006143
X+010398Y+006143
X+010398Y+007160
X+010398Y+008175
X+010422Y+001651
X+011422Y+001651
X+012422Y+001651
X+013422Y+001651
X+014422Y+001651
X+015422Y+001651
X+009422Y+001651
X+008422Y+001651
X+002176Y+005651
X+002176Y+006651
X+002176Y+007651
X+021541Y+007651
X+021541Y+006651
X+021541Y+005651
T05
X+001922Y+011651
X+001922Y+001651
X+021922Y+001651
X+021922Y+011651
T06
X+014922Y+011651
X+008922Y+011651
X+005922Y+001651
X+017922Y+001651
T00
M30
