G04 DipTrace 3.3.1.3*
G04 Top.gbr*
%MOMM*%
G04 #@! TF.FileFunction,Copper,L1,Top*
G04 #@! TF.Part,Single*
%AMOUTLINE0*
4,1,8,
4.6194,1.91343,
4.6194,-1.91343,
1.91343,-4.6194,
-1.91343,-4.6194,
-4.6194,-1.91343,
-4.6194,1.91343,
-1.91343,4.6194,
1.91343,4.6194,
4.6194,1.91343,
0*%
G04 #@! TA.AperFunction,Conductor*
%ADD13C,4.0*%
G04 #@! TA.AperFunction,ComponentPad*
%ADD14C,2.0*%
G04 #@! TA.AperFunction,Conductor*
%ADD15C,2.5*%
G04 #@! TA.AperFunction,CopperBalancing*
%ADD16C,0.635*%
%ADD17C,0.5*%
G04 #@! TA.AperFunction,ComponentPad*
%ADD19C,6.0*%
%ADD20O,5.0X2.5*%
%ADD21R,5.0X2.5*%
%ADD22C,3.5*%
%ADD23R,3.5X3.5*%
%ADD43OUTLINE0*%
%FSLAX35Y35*%
G04*
G71*
G90*
G75*
G01*
G04 Top*
%LPD*%
X11422000Y9014500D2*
D13*
Y3151500D1*
X10422000Y1651500D2*
Y2103500D1*
X11422000Y3103500D1*
Y3151500D1*
Y1651500D2*
X12422000D1*
X11422000Y11651500D2*
Y9764500D1*
X12422000Y11651500D2*
Y3151500D1*
Y3103500D1*
X13422000Y2103500D1*
Y1651500D1*
X17383000Y8175500D2*
X15986000D1*
X14970000Y7159500D1*
X13446000D1*
X20431000Y8175500D2*
X21541000D1*
Y7651500D1*
X2176000Y5651500D2*
X2222500D1*
X3222500Y6651500D1*
X6842000D1*
X7350000Y7159500D1*
X10398000D1*
X3540000Y8175500D2*
X2651000D1*
X2176000Y7700500D1*
Y7651500D1*
X14176000Y4901500D2*
X15224000D1*
X15932150D1*
X17482000D1*
X15351000Y5484500D2*
D14*
Y4901500D1*
X15224000D1*
X15986000Y5484500D2*
Y4955350D1*
X15932150Y4901500D1*
X9668000D2*
D13*
X8620000D1*
X7858000D1*
X6588000D1*
X8493000Y5504500D2*
D14*
Y4901500D1*
X8620000D1*
X7858000Y5504500D2*
Y4901500D1*
X8422000Y1651500D2*
D15*
X9191500Y2421000D1*
Y3667000D1*
X9426000Y3901500D1*
X9668000D1*
X14176000D2*
X14418000D1*
X14716000Y3603500D1*
Y2357500D1*
X15422000Y1651500D1*
X17294147Y8969583D2*
D16*
X20519857D1*
X17294147Y8906417D2*
X20519857D1*
X17294147Y8843250D2*
X17540483D1*
X17717517D2*
X20080533D1*
X20257480D2*
X20519857D1*
X17294147Y8780083D2*
X17433020D1*
X17824980D2*
X19973073D1*
X20364940D2*
X20519857D1*
X17294147Y8716917D2*
X17383530D1*
X17874470D2*
X19923580D1*
X20414433D2*
X20519857D1*
X17294147Y8653750D2*
X17357280D1*
X17900720D2*
X19897240D1*
X20440683D2*
X20519857D1*
X17294147Y8590583D2*
X17347527D1*
X17910473D2*
X19887580D1*
X20450433D2*
X20519857D1*
X17294147Y8527417D2*
X17352540D1*
X17905460D2*
X19892500D1*
X20445513D2*
X20519857D1*
X17294147Y8464250D2*
X17373137D1*
X17884863D2*
X19913100D1*
X20424913D2*
X20519857D1*
X17294147Y8401083D2*
X17413880D1*
X17844120D2*
X19953840D1*
X20384170D2*
X20519857D1*
X17294147Y8337917D2*
X17492540D1*
X17765460D2*
X20032500D1*
X20305513D2*
X20519857D1*
X17294147Y8274750D2*
X20519857D1*
X17294147Y8211583D2*
X20519857D1*
X17294147Y8148417D2*
X20519857D1*
X17294147Y8085250D2*
X20519857D1*
X17294147Y8022083D2*
X20519857D1*
X17294147Y7958917D2*
X17623150D1*
X17904823D2*
X18385130D1*
X18666803D2*
X19147200D1*
X19428873D2*
X19909180D1*
X20190850D2*
X20519857D1*
X17294147Y7895750D2*
X17576393D1*
X17951580D2*
X18338373D1*
X18713560D2*
X19100443D1*
X19475630D2*
X19862423D1*
X20237610D2*
X20519857D1*
X17294147Y7832583D2*
X17558620D1*
X17969447D2*
X18320600D1*
X18731423D2*
X19082580D1*
X19493403D2*
X19844557D1*
X20255383D2*
X20519857D1*
X17294147Y7769417D2*
X17561627D1*
X17966347D2*
X18323607D1*
X18728417D2*
X19085587D1*
X19490397D2*
X19847657D1*
X20252373D2*
X20519857D1*
X17294147Y7706250D2*
X17586603D1*
X17941373D2*
X18348673D1*
X18703350D2*
X19110650D1*
X19465330D2*
X19872630D1*
X20227400D2*
X20519857D1*
X17294147Y7643083D2*
X17647670D1*
X17880303D2*
X18409740D1*
X18642283D2*
X19171720D1*
X19404263D2*
X19933697D1*
X20166333D2*
X20519857D1*
X17294147Y7579917D2*
X20519857D1*
X17904250Y8575833D2*
X17902867Y8552547D1*
X17899517Y8529463D1*
X17894227Y8506747D1*
X17887030Y8484557D1*
X17877980Y8463057D1*
X17867147Y8442400D1*
X17854600Y8422737D1*
X17840433Y8404203D1*
X17824750Y8386937D1*
X17807660Y8371060D1*
X17789287Y8356687D1*
X17769763Y8343920D1*
X17749230Y8332853D1*
X17727833Y8323563D1*
X17705727Y8316120D1*
X17683070Y8310573D1*
X17660027Y8306963D1*
X17636757Y8305320D1*
X17613433Y8305650D1*
X17590220Y8307957D1*
X17567287Y8312217D1*
X17544797Y8318403D1*
X17522910Y8326473D1*
X17501787Y8336367D1*
X17481573Y8348013D1*
X17462423Y8361327D1*
X17444467Y8376217D1*
X17427833Y8392573D1*
X17412647Y8410277D1*
X17399013Y8429203D1*
X17387030Y8449217D1*
X17376783Y8470173D1*
X17368350Y8491923D1*
X17361787Y8514307D1*
X17357143Y8537167D1*
X17354450Y8560337D1*
X17353727Y8583650D1*
X17354983Y8606943D1*
X17358207Y8630047D1*
X17363373Y8652793D1*
X17370447Y8675020D1*
X17379377Y8696570D1*
X17390097Y8717287D1*
X17402537Y8737020D1*
X17416600Y8755630D1*
X17432187Y8772983D1*
X17449190Y8788953D1*
X17467483Y8803427D1*
X17486933Y8816300D1*
X17507407Y8827480D1*
X17528753Y8836890D1*
X17550817Y8844453D1*
X17573443Y8850127D1*
X17596470Y8853860D1*
X17619727Y8855633D1*
X17643053Y8855430D1*
X17666277Y8853253D1*
X17689237Y8849120D1*
X17711760Y8843057D1*
X17733690Y8835107D1*
X17754870Y8825330D1*
X17775143Y8813797D1*
X17794370Y8800587D1*
X17812407Y8785797D1*
X17829130Y8769533D1*
X17844413Y8751910D1*
X17858150Y8733060D1*
X17870243Y8713113D1*
X17880603Y8692213D1*
X17889160Y8670513D1*
X17895843Y8648163D1*
X17900617Y8625330D1*
X17903437Y8602177D1*
X17904250Y8575833D1*
X20444250D2*
X20442867Y8552547D1*
X20439517Y8529463D1*
X20434227Y8506747D1*
X20427030Y8484557D1*
X20417980Y8463057D1*
X20407147Y8442400D1*
X20394600Y8422737D1*
X20380433Y8404203D1*
X20364750Y8386937D1*
X20347660Y8371060D1*
X20329287Y8356687D1*
X20309763Y8343920D1*
X20289230Y8332853D1*
X20267833Y8323563D1*
X20245727Y8316120D1*
X20223070Y8310573D1*
X20200027Y8306963D1*
X20176757Y8305320D1*
X20153433Y8305650D1*
X20130220Y8307957D1*
X20107287Y8312217D1*
X20084797Y8318403D1*
X20062910Y8326473D1*
X20041787Y8336367D1*
X20021573Y8348013D1*
X20002423Y8361327D1*
X19984467Y8376217D1*
X19967833Y8392573D1*
X19952647Y8410277D1*
X19939013Y8429203D1*
X19927030Y8449217D1*
X19916783Y8470173D1*
X19908350Y8491923D1*
X19901787Y8514307D1*
X19897143Y8537167D1*
X19894450Y8560337D1*
X19893727Y8583650D1*
X19894983Y8606943D1*
X19898207Y8630047D1*
X19903373Y8652793D1*
X19910447Y8675020D1*
X19919377Y8696570D1*
X19930097Y8717287D1*
X19942537Y8737020D1*
X19956600Y8755630D1*
X19972187Y8772983D1*
X19989190Y8788953D1*
X20007483Y8803427D1*
X20026933Y8816300D1*
X20047407Y8827480D1*
X20068753Y8836890D1*
X20090817Y8844453D1*
X20113443Y8850127D1*
X20136470Y8853860D1*
X20159727Y8855633D1*
X20183053Y8855430D1*
X20206277Y8853253D1*
X20229237Y8849120D1*
X20251760Y8843057D1*
X20273690Y8835107D1*
X20294870Y8825330D1*
X20315143Y8813797D1*
X20334370Y8800587D1*
X20352407Y8785797D1*
X20369130Y8769533D1*
X20384413Y8751910D1*
X20398150Y8733060D1*
X20410243Y8713113D1*
X20420603Y8692213D1*
X20429160Y8670513D1*
X20435843Y8648163D1*
X20440617Y8625330D1*
X20443437Y8602177D1*
X20444250Y8575833D1*
X17964237Y7805833D2*
X17962337Y7782590D1*
X17957747Y7759727D1*
X17950533Y7737550D1*
X17940790Y7716363D1*
X17928650Y7696453D1*
X17914277Y7678087D1*
X17897867Y7661517D1*
X17879643Y7646967D1*
X17859850Y7634633D1*
X17838760Y7624687D1*
X17816657Y7617257D1*
X17793837Y7612443D1*
X17770613Y7610320D1*
X17747300Y7610907D1*
X17724213Y7614200D1*
X17701667Y7620157D1*
X17679967Y7628690D1*
X17659403Y7639690D1*
X17640257Y7653007D1*
X17622790Y7668457D1*
X17607237Y7685833D1*
X17593810Y7704900D1*
X17582690Y7725397D1*
X17574027Y7747050D1*
X17567940Y7769560D1*
X17564510Y7792627D1*
X17563783Y7815937D1*
X17565773Y7839170D1*
X17570450Y7862017D1*
X17577750Y7884167D1*
X17587573Y7905317D1*
X17599790Y7925180D1*
X17614233Y7943490D1*
X17630707Y7959997D1*
X17648987Y7974477D1*
X17668827Y7986733D1*
X17689957Y7996600D1*
X17712090Y8003947D1*
X17734927Y8008670D1*
X17758157Y8010703D1*
X17781467Y8010027D1*
X17804540Y8006643D1*
X17827063Y8000603D1*
X17848733Y7991983D1*
X17869253Y7980903D1*
X17888347Y7967517D1*
X17905753Y7951997D1*
X17921240Y7934563D1*
X17934597Y7915443D1*
X17945637Y7894903D1*
X17954217Y7873220D1*
X17960217Y7850683D1*
X17963557Y7827603D1*
X17964237Y7805833D1*
X18726237D2*
X18724337Y7782590D1*
X18719747Y7759727D1*
X18712533Y7737550D1*
X18702790Y7716363D1*
X18690650Y7696453D1*
X18676277Y7678087D1*
X18659867Y7661517D1*
X18641643Y7646967D1*
X18621850Y7634633D1*
X18600760Y7624687D1*
X18578657Y7617257D1*
X18555837Y7612443D1*
X18532613Y7610320D1*
X18509300Y7610907D1*
X18486213Y7614200D1*
X18463667Y7620157D1*
X18441967Y7628690D1*
X18421403Y7639690D1*
X18402257Y7653007D1*
X18384790Y7668457D1*
X18369237Y7685833D1*
X18355810Y7704900D1*
X18344690Y7725397D1*
X18336027Y7747050D1*
X18329940Y7769560D1*
X18326510Y7792627D1*
X18325783Y7815937D1*
X18327773Y7839170D1*
X18332450Y7862017D1*
X18339750Y7884167D1*
X18349573Y7905317D1*
X18361790Y7925180D1*
X18376233Y7943490D1*
X18392707Y7959997D1*
X18410987Y7974477D1*
X18430827Y7986733D1*
X18451957Y7996600D1*
X18474090Y8003947D1*
X18496927Y8008670D1*
X18520157Y8010703D1*
X18543467Y8010027D1*
X18566540Y8006643D1*
X18589063Y8000603D1*
X18610733Y7991983D1*
X18631253Y7980903D1*
X18650347Y7967517D1*
X18667753Y7951997D1*
X18683240Y7934563D1*
X18696597Y7915443D1*
X18707637Y7894903D1*
X18716217Y7873220D1*
X18722217Y7850683D1*
X18725557Y7827603D1*
X18726237Y7805833D1*
X19488237D2*
X19486337Y7782590D1*
X19481747Y7759727D1*
X19474533Y7737550D1*
X19464790Y7716363D1*
X19452650Y7696453D1*
X19438277Y7678087D1*
X19421867Y7661517D1*
X19403643Y7646967D1*
X19383850Y7634633D1*
X19362760Y7624687D1*
X19340657Y7617257D1*
X19317837Y7612443D1*
X19294613Y7610320D1*
X19271300Y7610907D1*
X19248213Y7614200D1*
X19225667Y7620157D1*
X19203967Y7628690D1*
X19183403Y7639690D1*
X19164257Y7653007D1*
X19146790Y7668457D1*
X19131237Y7685833D1*
X19117810Y7704900D1*
X19106690Y7725397D1*
X19098027Y7747050D1*
X19091940Y7769560D1*
X19088510Y7792627D1*
X19087783Y7815937D1*
X19089773Y7839170D1*
X19094450Y7862017D1*
X19101750Y7884167D1*
X19111573Y7905317D1*
X19123790Y7925180D1*
X19138233Y7943490D1*
X19154707Y7959997D1*
X19172987Y7974477D1*
X19192827Y7986733D1*
X19213957Y7996600D1*
X19236090Y8003947D1*
X19258927Y8008670D1*
X19282157Y8010703D1*
X19305467Y8010027D1*
X19328540Y8006643D1*
X19351063Y8000603D1*
X19372733Y7991983D1*
X19393253Y7980903D1*
X19412347Y7967517D1*
X19429753Y7951997D1*
X19445240Y7934563D1*
X19458597Y7915443D1*
X19469637Y7894903D1*
X19478217Y7873220D1*
X19484217Y7850683D1*
X19487557Y7827603D1*
X19488237Y7805833D1*
X20250237D2*
X20248337Y7782590D1*
X20243747Y7759727D1*
X20236533Y7737550D1*
X20226790Y7716363D1*
X20214650Y7696453D1*
X20200277Y7678087D1*
X20183867Y7661517D1*
X20165643Y7646967D1*
X20145850Y7634633D1*
X20124760Y7624687D1*
X20102657Y7617257D1*
X20079837Y7612443D1*
X20056613Y7610320D1*
X20033300Y7610907D1*
X20010213Y7614200D1*
X19987667Y7620157D1*
X19965967Y7628690D1*
X19945403Y7639690D1*
X19926257Y7653007D1*
X19908790Y7668457D1*
X19893237Y7685833D1*
X19879810Y7704900D1*
X19868690Y7725397D1*
X19860027Y7747050D1*
X19853940Y7769560D1*
X19850510Y7792627D1*
X19849783Y7815937D1*
X19851773Y7839170D1*
X19856450Y7862017D1*
X19863750Y7884167D1*
X19873573Y7905317D1*
X19885790Y7925180D1*
X19900233Y7943490D1*
X19916707Y7959997D1*
X19934987Y7974477D1*
X19954827Y7986733D1*
X19975957Y7996600D1*
X19998090Y8003947D1*
X20020927Y8008670D1*
X20044157Y8010703D1*
X20067467Y8010027D1*
X20090540Y8006643D1*
X20113063Y8000603D1*
X20134733Y7991983D1*
X20155253Y7980903D1*
X20174347Y7967517D1*
X20191753Y7951997D1*
X20207240Y7934563D1*
X20220597Y7915443D1*
X20231637Y7894903D1*
X20240217Y7873220D1*
X20246217Y7850683D1*
X20249557Y7827603D1*
X20250237Y7805833D1*
X20526250Y7572310D2*
Y9032830D1*
X17287780Y9032750D1*
X17287750Y7572170D1*
X20526220Y7572250D1*
X17629000Y8855700D2*
D17*
Y8305300D1*
X17353800Y8580500D2*
X17904200D1*
X20169000Y8855700D2*
Y8305300D1*
X19893800Y8580500D2*
X20444200D1*
X17764000Y8010700D2*
Y7610300D1*
X17563800Y7810500D2*
X17964200D1*
X18526000Y8010700D2*
Y7610300D1*
X18325800Y7810500D2*
X18726200D1*
X19288000Y8010700D2*
Y7610300D1*
X19087800Y7810500D2*
X19488200D1*
X20050000Y8010700D2*
Y7610300D1*
X19849800Y7810500D2*
X20250200D1*
X17294147Y5540583D2*
D16*
X20519857D1*
X17294147Y5477417D2*
X17646940D1*
X17881033D2*
X18408920D1*
X18643013D2*
X19170990D1*
X19405083D2*
X19932970D1*
X20167063D2*
X20519857D1*
X17294147Y5414250D2*
X17586330D1*
X17941647D2*
X18348307D1*
X18703717D2*
X19110287D1*
X19465697D2*
X19872357D1*
X20227673D2*
X20519857D1*
X17294147Y5351083D2*
X17561537D1*
X17966530D2*
X18323517D1*
X18728507D2*
X19085497D1*
X19490487D2*
X19847473D1*
X20252467D2*
X20519857D1*
X17294147Y5287917D2*
X17558620D1*
X17969353D2*
X18320600D1*
X18731333D2*
X19082670D1*
X19493403D2*
X19844650D1*
X20255383D2*
X20519857D1*
X17294147Y5224750D2*
X17576667D1*
X17951397D2*
X18338647D1*
X18713377D2*
X19100627D1*
X19475357D2*
X19862603D1*
X20237337D2*
X20519857D1*
X17294147Y5161583D2*
X17623697D1*
X17904277D2*
X18385677D1*
X18666253D2*
X19147747D1*
X19428327D2*
X19909727D1*
X20190303D2*
X20519857D1*
X17294147Y5098417D2*
X20519857D1*
X17294147Y5035250D2*
X20519857D1*
X17294147Y4972083D2*
X20519857D1*
X17294147Y4908917D2*
X20519857D1*
X17294147Y4845750D2*
X20519857D1*
X17294147Y4782583D2*
X20519857D1*
X17294147Y4719417D2*
X17474767D1*
X17799183D2*
X20014817D1*
X20339237D2*
X20519857D1*
X17294147Y4656250D2*
X17409323D1*
X17864627D2*
X19949377D1*
X20404680D2*
X20519857D1*
X17294147Y4593083D2*
X17374413D1*
X17899627D2*
X19914377D1*
X20439587D2*
X20519857D1*
X17294147Y4529917D2*
X17357917D1*
X17916123D2*
X19897877D1*
X20456087D2*
X20519857D1*
X17294147Y4466750D2*
X17356550D1*
X17917400D2*
X19896603D1*
X20457453D2*
X20519857D1*
X17294147Y4403583D2*
X17370130D1*
X17903910D2*
X19910090D1*
X20443873D2*
X20519857D1*
X17294147Y4340417D2*
X17401210D1*
X17872830D2*
X19941173D1*
X20412790D2*
X20519857D1*
X17294147Y4277250D2*
X17458997D1*
X17814953D2*
X19999050D1*
X20355003D2*
X20519857D1*
X17294147Y4214083D2*
X20519857D1*
X17294147Y4150917D2*
X20519857D1*
X17912250Y4487833D2*
X17910867Y4464547D1*
X17907517Y4441463D1*
X17902227Y4418747D1*
X17895030Y4396557D1*
X17885980Y4375057D1*
X17875147Y4354400D1*
X17862600Y4334737D1*
X17848433Y4316203D1*
X17832750Y4298937D1*
X17815660Y4283060D1*
X17797287Y4268687D1*
X17777763Y4255920D1*
X17757230Y4244853D1*
X17735833Y4235563D1*
X17713727Y4228120D1*
X17691070Y4222573D1*
X17668027Y4218963D1*
X17644757Y4217320D1*
X17621433Y4217650D1*
X17598220Y4219957D1*
X17575287Y4224217D1*
X17552797Y4230403D1*
X17530910Y4238473D1*
X17509787Y4248367D1*
X17489573Y4260013D1*
X17470423Y4273327D1*
X17452467Y4288217D1*
X17435833Y4304573D1*
X17420647Y4322277D1*
X17407013Y4341203D1*
X17395030Y4361217D1*
X17384783Y4382173D1*
X17376350Y4403923D1*
X17369787Y4426307D1*
X17365143Y4449167D1*
X17362450Y4472337D1*
X17361727Y4495650D1*
X17362983Y4518943D1*
X17366207Y4542047D1*
X17371373Y4564793D1*
X17378447Y4587020D1*
X17387377Y4608570D1*
X17398097Y4629287D1*
X17410537Y4649020D1*
X17424600Y4667630D1*
X17440187Y4684983D1*
X17457190Y4700953D1*
X17475483Y4715427D1*
X17494933Y4728300D1*
X17515407Y4739480D1*
X17536753Y4748890D1*
X17558817Y4756453D1*
X17581443Y4762127D1*
X17604470Y4765860D1*
X17627727Y4767633D1*
X17651053Y4767430D1*
X17674277Y4765253D1*
X17697237Y4761120D1*
X17719760Y4755057D1*
X17741690Y4747107D1*
X17762870Y4737330D1*
X17783143Y4725797D1*
X17802370Y4712587D1*
X17820407Y4697797D1*
X17837130Y4681533D1*
X17852413Y4663910D1*
X17866150Y4645060D1*
X17878243Y4625113D1*
X17888603Y4604213D1*
X17897160Y4582513D1*
X17903843Y4560163D1*
X17908617Y4537330D1*
X17911437Y4514177D1*
X17912250Y4487833D1*
X20452250D2*
X20450867Y4464547D1*
X20447517Y4441463D1*
X20442227Y4418747D1*
X20435030Y4396557D1*
X20425980Y4375057D1*
X20415147Y4354400D1*
X20402600Y4334737D1*
X20388433Y4316203D1*
X20372750Y4298937D1*
X20355660Y4283060D1*
X20337287Y4268687D1*
X20317763Y4255920D1*
X20297230Y4244853D1*
X20275833Y4235563D1*
X20253727Y4228120D1*
X20231070Y4222573D1*
X20208027Y4218963D1*
X20184757Y4217320D1*
X20161433Y4217650D1*
X20138220Y4219957D1*
X20115287Y4224217D1*
X20092797Y4230403D1*
X20070910Y4238473D1*
X20049787Y4248367D1*
X20029573Y4260013D1*
X20010423Y4273327D1*
X19992467Y4288217D1*
X19975833Y4304573D1*
X19960647Y4322277D1*
X19947013Y4341203D1*
X19935030Y4361217D1*
X19924783Y4382173D1*
X19916350Y4403923D1*
X19909787Y4426307D1*
X19905143Y4449167D1*
X19902450Y4472337D1*
X19901727Y4495650D1*
X19902983Y4518943D1*
X19906207Y4542047D1*
X19911373Y4564793D1*
X19918447Y4587020D1*
X19927377Y4608570D1*
X19938097Y4629287D1*
X19950537Y4649020D1*
X19964600Y4667630D1*
X19980187Y4684983D1*
X19997190Y4700953D1*
X20015483Y4715427D1*
X20034933Y4728300D1*
X20055407Y4739480D1*
X20076753Y4748890D1*
X20098817Y4756453D1*
X20121443Y4762127D1*
X20144470Y4765860D1*
X20167727Y4767633D1*
X20191053Y4767430D1*
X20214277Y4765253D1*
X20237237Y4761120D1*
X20259760Y4755057D1*
X20281690Y4747107D1*
X20302870Y4737330D1*
X20323143Y4725797D1*
X20342370Y4712587D1*
X20360407Y4697797D1*
X20377130Y4681533D1*
X20392413Y4663910D1*
X20406150Y4645060D1*
X20418243Y4625113D1*
X20428603Y4604213D1*
X20437160Y4582513D1*
X20443843Y4560163D1*
X20448617Y4537330D1*
X20451437Y4514177D1*
X20452250Y4487833D1*
X17964237Y5305833D2*
X17962337Y5282590D1*
X17957747Y5259727D1*
X17950533Y5237550D1*
X17940790Y5216363D1*
X17928650Y5196453D1*
X17914277Y5178087D1*
X17897867Y5161517D1*
X17879643Y5146967D1*
X17859850Y5134633D1*
X17838760Y5124687D1*
X17816657Y5117257D1*
X17793837Y5112443D1*
X17770613Y5110320D1*
X17747300Y5110907D1*
X17724213Y5114200D1*
X17701667Y5120157D1*
X17679967Y5128690D1*
X17659403Y5139690D1*
X17640257Y5153007D1*
X17622790Y5168457D1*
X17607237Y5185833D1*
X17593810Y5204900D1*
X17582690Y5225397D1*
X17574027Y5247050D1*
X17567940Y5269560D1*
X17564510Y5292627D1*
X17563783Y5315937D1*
X17565773Y5339170D1*
X17570450Y5362017D1*
X17577750Y5384167D1*
X17587573Y5405317D1*
X17599790Y5425180D1*
X17614233Y5443490D1*
X17630707Y5459997D1*
X17648987Y5474477D1*
X17668827Y5486733D1*
X17689957Y5496600D1*
X17712090Y5503947D1*
X17734927Y5508670D1*
X17758157Y5510703D1*
X17781467Y5510027D1*
X17804540Y5506643D1*
X17827063Y5500603D1*
X17848733Y5491983D1*
X17869253Y5480903D1*
X17888347Y5467517D1*
X17905753Y5451997D1*
X17921240Y5434563D1*
X17934597Y5415443D1*
X17945637Y5394903D1*
X17954217Y5373220D1*
X17960217Y5350683D1*
X17963557Y5327603D1*
X17964237Y5305833D1*
X18726237D2*
X18724337Y5282590D1*
X18719747Y5259727D1*
X18712533Y5237550D1*
X18702790Y5216363D1*
X18690650Y5196453D1*
X18676277Y5178087D1*
X18659867Y5161517D1*
X18641643Y5146967D1*
X18621850Y5134633D1*
X18600760Y5124687D1*
X18578657Y5117257D1*
X18555837Y5112443D1*
X18532613Y5110320D1*
X18509300Y5110907D1*
X18486213Y5114200D1*
X18463667Y5120157D1*
X18441967Y5128690D1*
X18421403Y5139690D1*
X18402257Y5153007D1*
X18384790Y5168457D1*
X18369237Y5185833D1*
X18355810Y5204900D1*
X18344690Y5225397D1*
X18336027Y5247050D1*
X18329940Y5269560D1*
X18326510Y5292627D1*
X18325783Y5315937D1*
X18327773Y5339170D1*
X18332450Y5362017D1*
X18339750Y5384167D1*
X18349573Y5405317D1*
X18361790Y5425180D1*
X18376233Y5443490D1*
X18392707Y5459997D1*
X18410987Y5474477D1*
X18430827Y5486733D1*
X18451957Y5496600D1*
X18474090Y5503947D1*
X18496927Y5508670D1*
X18520157Y5510703D1*
X18543467Y5510027D1*
X18566540Y5506643D1*
X18589063Y5500603D1*
X18610733Y5491983D1*
X18631253Y5480903D1*
X18650347Y5467517D1*
X18667753Y5451997D1*
X18683240Y5434563D1*
X18696597Y5415443D1*
X18707637Y5394903D1*
X18716217Y5373220D1*
X18722217Y5350683D1*
X18725557Y5327603D1*
X18726237Y5305833D1*
X19488237D2*
X19486337Y5282590D1*
X19481747Y5259727D1*
X19474533Y5237550D1*
X19464790Y5216363D1*
X19452650Y5196453D1*
X19438277Y5178087D1*
X19421867Y5161517D1*
X19403643Y5146967D1*
X19383850Y5134633D1*
X19362760Y5124687D1*
X19340657Y5117257D1*
X19317837Y5112443D1*
X19294613Y5110320D1*
X19271300Y5110907D1*
X19248213Y5114200D1*
X19225667Y5120157D1*
X19203967Y5128690D1*
X19183403Y5139690D1*
X19164257Y5153007D1*
X19146790Y5168457D1*
X19131237Y5185833D1*
X19117810Y5204900D1*
X19106690Y5225397D1*
X19098027Y5247050D1*
X19091940Y5269560D1*
X19088510Y5292627D1*
X19087783Y5315937D1*
X19089773Y5339170D1*
X19094450Y5362017D1*
X19101750Y5384167D1*
X19111573Y5405317D1*
X19123790Y5425180D1*
X19138233Y5443490D1*
X19154707Y5459997D1*
X19172987Y5474477D1*
X19192827Y5486733D1*
X19213957Y5496600D1*
X19236090Y5503947D1*
X19258927Y5508670D1*
X19282157Y5510703D1*
X19305467Y5510027D1*
X19328540Y5506643D1*
X19351063Y5500603D1*
X19372733Y5491983D1*
X19393253Y5480903D1*
X19412347Y5467517D1*
X19429753Y5451997D1*
X19445240Y5434563D1*
X19458597Y5415443D1*
X19469637Y5394903D1*
X19478217Y5373220D1*
X19484217Y5350683D1*
X19487557Y5327603D1*
X19488237Y5305833D1*
X20250237D2*
X20248337Y5282590D1*
X20243747Y5259727D1*
X20236533Y5237550D1*
X20226790Y5216363D1*
X20214650Y5196453D1*
X20200277Y5178087D1*
X20183867Y5161517D1*
X20165643Y5146967D1*
X20145850Y5134633D1*
X20124760Y5124687D1*
X20102657Y5117257D1*
X20079837Y5112443D1*
X20056613Y5110320D1*
X20033300Y5110907D1*
X20010213Y5114200D1*
X19987667Y5120157D1*
X19965967Y5128690D1*
X19945403Y5139690D1*
X19926257Y5153007D1*
X19908790Y5168457D1*
X19893237Y5185833D1*
X19879810Y5204900D1*
X19868690Y5225397D1*
X19860027Y5247050D1*
X19853940Y5269560D1*
X19850510Y5292627D1*
X19849783Y5315937D1*
X19851773Y5339170D1*
X19856450Y5362017D1*
X19863750Y5384167D1*
X19873573Y5405317D1*
X19885790Y5425180D1*
X19900233Y5443490D1*
X19916707Y5459997D1*
X19934987Y5474477D1*
X19954827Y5486733D1*
X19975957Y5496600D1*
X19998090Y5503947D1*
X20020927Y5508670D1*
X20044157Y5510703D1*
X20067467Y5510027D1*
X20090540Y5506643D1*
X20113063Y5500603D1*
X20134733Y5491983D1*
X20155253Y5480903D1*
X20174347Y5467517D1*
X20191753Y5451997D1*
X20207240Y5434563D1*
X20220597Y5415443D1*
X20231637Y5394903D1*
X20240217Y5373220D1*
X20246217Y5350683D1*
X20249557Y5327603D1*
X20250237Y5305833D1*
X20526190Y5603750D2*
X17287780D1*
X17287750Y4143170D1*
X20526220Y4143250D1*
X20526250Y5603830D1*
X17637000Y4767700D2*
D17*
Y4217300D1*
X17361800Y4492500D2*
X17912200D1*
X20177000Y4767700D2*
Y4217300D1*
X19901800Y4492500D2*
X20452200D1*
X17764000Y5510700D2*
Y5110300D1*
X17563800Y5310500D2*
X17964200D1*
X18526000Y5510700D2*
Y5110300D1*
X18325800Y5310500D2*
X18726200D1*
X19288000Y5510700D2*
Y5110300D1*
X19087800Y5310500D2*
X19488200D1*
X20050000Y5510700D2*
Y5110300D1*
X19849800Y5310500D2*
X20250200D1*
X3260647Y5540583D2*
D16*
X6613413D1*
X3260647Y5477417D2*
X3676970D1*
X3911063D2*
X4438947D1*
X4673040D2*
X5200927D1*
X5435020D2*
X5962907D1*
X6197090D2*
X6613413D1*
X3260647Y5414250D2*
X3616357D1*
X3971673D2*
X4378337D1*
X4733653D2*
X5140317D1*
X5495633D2*
X5902293D1*
X6257703D2*
X6613413D1*
X3260647Y5351083D2*
X3591473D1*
X3996467D2*
X4353543D1*
X4758447D2*
X5115523D1*
X5520517D2*
X5877503D1*
X6282493D2*
X6613413D1*
X3260647Y5287917D2*
X3588650D1*
X3999383D2*
X4350627D1*
X4761363D2*
X5112607D1*
X5523340D2*
X5874677D1*
X6285320D2*
X6613413D1*
X3260647Y5224750D2*
X3606603D1*
X3981337D2*
X4368673D1*
X4743313D2*
X5130653D1*
X5505387D2*
X5892633D1*
X6267363D2*
X6613413D1*
X3260647Y5161583D2*
X3653727D1*
X3934303D2*
X4415707D1*
X4696283D2*
X5177687D1*
X5458263D2*
X5939757D1*
X6220333D2*
X6613413D1*
X3260647Y5098417D2*
X6613413D1*
X3260647Y5035250D2*
X6613413D1*
X3260647Y4972083D2*
X6613413D1*
X3260647Y4908917D2*
X6613413D1*
X3260647Y4845750D2*
X6613413D1*
X3260647Y4782583D2*
X3385393D1*
X3948613D2*
X5925353D1*
X6488667D2*
X6613413D1*
X3260647Y4719417D2*
X3385393D1*
X3948613D2*
X5925353D1*
X6488667D2*
X6613413D1*
X3260647Y4656250D2*
X3385393D1*
X3948613D2*
X5925353D1*
X6488667D2*
X6613413D1*
X3260647Y4593083D2*
X3385393D1*
X3948613D2*
X5925353D1*
X6488667D2*
X6613413D1*
X3260647Y4529917D2*
X3385393D1*
X3948613D2*
X5925353D1*
X6488667D2*
X6613413D1*
X3260647Y4466750D2*
X3385393D1*
X3948613D2*
X5925353D1*
X6488667D2*
X6613413D1*
X3260647Y4403583D2*
X3385393D1*
X3948613D2*
X5925353D1*
X6488667D2*
X6613413D1*
X3260647Y4340417D2*
X3385393D1*
X3948613D2*
X5925353D1*
X6488667D2*
X6613413D1*
X3260647Y4277250D2*
X3385393D1*
X3948613D2*
X5925353D1*
X6488667D2*
X6613413D1*
X3260647Y4214083D2*
X6613413D1*
X3260647Y4150917D2*
X6613413D1*
X3396377Y4824057D2*
X3942290D1*
Y4273477D1*
X3391710D1*
Y4824057D1*
X3396377D1*
X5936377D2*
X6482290D1*
Y4273477D1*
X5931710D1*
Y4824057D1*
X5936377D1*
X3994237Y5305833D2*
X3992337Y5282590D1*
X3987747Y5259727D1*
X3980533Y5237550D1*
X3970790Y5216363D1*
X3958650Y5196453D1*
X3944277Y5178087D1*
X3927867Y5161517D1*
X3909643Y5146967D1*
X3889850Y5134633D1*
X3868760Y5124687D1*
X3846657Y5117257D1*
X3823837Y5112443D1*
X3800613Y5110320D1*
X3777300Y5110907D1*
X3754213Y5114200D1*
X3731667Y5120157D1*
X3709967Y5128690D1*
X3689403Y5139690D1*
X3670257Y5153007D1*
X3652790Y5168457D1*
X3637237Y5185833D1*
X3623810Y5204900D1*
X3612690Y5225397D1*
X3604027Y5247050D1*
X3597940Y5269560D1*
X3594510Y5292627D1*
X3593783Y5315937D1*
X3595773Y5339170D1*
X3600450Y5362017D1*
X3607750Y5384167D1*
X3617573Y5405317D1*
X3629790Y5425180D1*
X3644233Y5443490D1*
X3660707Y5459997D1*
X3678987Y5474477D1*
X3698827Y5486733D1*
X3719957Y5496600D1*
X3742090Y5503947D1*
X3764927Y5508670D1*
X3788157Y5510703D1*
X3811467Y5510027D1*
X3834540Y5506643D1*
X3857063Y5500603D1*
X3878733Y5491983D1*
X3899253Y5480903D1*
X3918347Y5467517D1*
X3935753Y5451997D1*
X3951240Y5434563D1*
X3964597Y5415443D1*
X3975637Y5394903D1*
X3984217Y5373220D1*
X3990217Y5350683D1*
X3993557Y5327603D1*
X3994237Y5305833D1*
X4756237D2*
X4754337Y5282590D1*
X4749747Y5259727D1*
X4742533Y5237550D1*
X4732790Y5216363D1*
X4720650Y5196453D1*
X4706277Y5178087D1*
X4689867Y5161517D1*
X4671643Y5146967D1*
X4651850Y5134633D1*
X4630760Y5124687D1*
X4608657Y5117257D1*
X4585837Y5112443D1*
X4562613Y5110320D1*
X4539300Y5110907D1*
X4516213Y5114200D1*
X4493667Y5120157D1*
X4471967Y5128690D1*
X4451403Y5139690D1*
X4432257Y5153007D1*
X4414790Y5168457D1*
X4399237Y5185833D1*
X4385810Y5204900D1*
X4374690Y5225397D1*
X4366027Y5247050D1*
X4359940Y5269560D1*
X4356510Y5292627D1*
X4355783Y5315937D1*
X4357773Y5339170D1*
X4362450Y5362017D1*
X4369750Y5384167D1*
X4379573Y5405317D1*
X4391790Y5425180D1*
X4406233Y5443490D1*
X4422707Y5459997D1*
X4440987Y5474477D1*
X4460827Y5486733D1*
X4481957Y5496600D1*
X4504090Y5503947D1*
X4526927Y5508670D1*
X4550157Y5510703D1*
X4573467Y5510027D1*
X4596540Y5506643D1*
X4619063Y5500603D1*
X4640733Y5491983D1*
X4661253Y5480903D1*
X4680347Y5467517D1*
X4697753Y5451997D1*
X4713240Y5434563D1*
X4726597Y5415443D1*
X4737637Y5394903D1*
X4746217Y5373220D1*
X4752217Y5350683D1*
X4755557Y5327603D1*
X4756237Y5305833D1*
X5518237D2*
X5516337Y5282590D1*
X5511747Y5259727D1*
X5504533Y5237550D1*
X5494790Y5216363D1*
X5482650Y5196453D1*
X5468277Y5178087D1*
X5451867Y5161517D1*
X5433643Y5146967D1*
X5413850Y5134633D1*
X5392760Y5124687D1*
X5370657Y5117257D1*
X5347837Y5112443D1*
X5324613Y5110320D1*
X5301300Y5110907D1*
X5278213Y5114200D1*
X5255667Y5120157D1*
X5233967Y5128690D1*
X5213403Y5139690D1*
X5194257Y5153007D1*
X5176790Y5168457D1*
X5161237Y5185833D1*
X5147810Y5204900D1*
X5136690Y5225397D1*
X5128027Y5247050D1*
X5121940Y5269560D1*
X5118510Y5292627D1*
X5117783Y5315937D1*
X5119773Y5339170D1*
X5124450Y5362017D1*
X5131750Y5384167D1*
X5141573Y5405317D1*
X5153790Y5425180D1*
X5168233Y5443490D1*
X5184707Y5459997D1*
X5202987Y5474477D1*
X5222827Y5486733D1*
X5243957Y5496600D1*
X5266090Y5503947D1*
X5288927Y5508670D1*
X5312157Y5510703D1*
X5335467Y5510027D1*
X5358540Y5506643D1*
X5381063Y5500603D1*
X5402733Y5491983D1*
X5423253Y5480903D1*
X5442347Y5467517D1*
X5459753Y5451997D1*
X5475240Y5434563D1*
X5488597Y5415443D1*
X5499637Y5394903D1*
X5508217Y5373220D1*
X5514217Y5350683D1*
X5517557Y5327603D1*
X5518237Y5305833D1*
X6280237D2*
X6278337Y5282590D1*
X6273747Y5259727D1*
X6266533Y5237550D1*
X6256790Y5216363D1*
X6244650Y5196453D1*
X6230277Y5178087D1*
X6213867Y5161517D1*
X6195643Y5146967D1*
X6175850Y5134633D1*
X6154760Y5124687D1*
X6132657Y5117257D1*
X6109837Y5112443D1*
X6086613Y5110320D1*
X6063300Y5110907D1*
X6040213Y5114200D1*
X6017667Y5120157D1*
X5995967Y5128690D1*
X5975403Y5139690D1*
X5956257Y5153007D1*
X5938790Y5168457D1*
X5923237Y5185833D1*
X5909810Y5204900D1*
X5898690Y5225397D1*
X5890027Y5247050D1*
X5883940Y5269560D1*
X5880510Y5292627D1*
X5879783Y5315937D1*
X5881773Y5339170D1*
X5886450Y5362017D1*
X5893750Y5384167D1*
X5903573Y5405317D1*
X5915790Y5425180D1*
X5930233Y5443490D1*
X5946707Y5459997D1*
X5964987Y5474477D1*
X5984827Y5486733D1*
X6005957Y5496600D1*
X6028090Y5503947D1*
X6050927Y5508670D1*
X6074157Y5510703D1*
X6097467Y5510027D1*
X6120540Y5506643D1*
X6143063Y5500603D1*
X6164733Y5491983D1*
X6185253Y5480903D1*
X6204347Y5467517D1*
X6221753Y5451997D1*
X6237240Y5434563D1*
X6250597Y5415443D1*
X6261637Y5394903D1*
X6270217Y5373220D1*
X6276217Y5350683D1*
X6279557Y5327603D1*
X6280237Y5305833D1*
X6619690Y5603750D2*
X3254220D1*
X3254250Y4143170D1*
X6619780Y4143250D1*
X6619750Y5603830D1*
X3667000Y4823967D2*
D17*
Y4273567D1*
X3391800Y4548767D2*
X3942200D1*
X6207000Y4823967D2*
Y4273567D1*
X5931800Y4548767D2*
X6482200D1*
X3794000Y5510700D2*
Y5110300D1*
X3593800Y5310500D2*
X3994200D1*
X4556000Y5510700D2*
Y5110300D1*
X4355800Y5310500D2*
X4756200D1*
X5318000Y5510700D2*
Y5110300D1*
X5117800Y5310500D2*
X5518200D1*
X6080000Y5510700D2*
Y5110300D1*
X5879800Y5310500D2*
X6280200D1*
X3260647Y8969583D2*
D16*
X6613413D1*
X3260647Y8906417D2*
X6613413D1*
X3260647Y8843250D2*
X3385393D1*
X3948613D2*
X5925353D1*
X6488667D2*
X6613413D1*
X3260647Y8780083D2*
X3385393D1*
X3948613D2*
X5925353D1*
X6488667D2*
X6613413D1*
X3260647Y8716917D2*
X3385393D1*
X3948613D2*
X5925353D1*
X6488667D2*
X6613413D1*
X3260647Y8653750D2*
X3385393D1*
X3948613D2*
X5925353D1*
X6488667D2*
X6613413D1*
X3260647Y8590583D2*
X3385393D1*
X3948613D2*
X5925353D1*
X6488667D2*
X6613413D1*
X3260647Y8527417D2*
X3385393D1*
X3948613D2*
X5925353D1*
X6488667D2*
X6613413D1*
X3260647Y8464250D2*
X3385393D1*
X3948613D2*
X5925353D1*
X6488667D2*
X6613413D1*
X3260647Y8401083D2*
X3385393D1*
X3948613D2*
X5925353D1*
X6488667D2*
X6613413D1*
X3260647Y8337917D2*
X6613413D1*
X3260647Y8274750D2*
X6613413D1*
X3260647Y8211583D2*
X6613413D1*
X3260647Y8148417D2*
X6613413D1*
X3260647Y8085250D2*
X6613413D1*
X3260647Y8022083D2*
X6613413D1*
X3260647Y7958917D2*
X3653180D1*
X3934850D2*
X4415160D1*
X4696830D2*
X5177137D1*
X5458810D2*
X5939117D1*
X6220880D2*
X6613413D1*
X3260647Y7895750D2*
X3606423D1*
X3981610D2*
X4368400D1*
X4743587D2*
X5130380D1*
X5505567D2*
X5892450D1*
X6267547D2*
X6613413D1*
X3260647Y7832583D2*
X3588557D1*
X3999383D2*
X4350537D1*
X4761453D2*
X5112607D1*
X5523433D2*
X5874587D1*
X6285410D2*
X6613413D1*
X3260647Y7769417D2*
X3591657D1*
X3996373D2*
X4353637D1*
X4758353D2*
X5115613D1*
X5520423D2*
X5877593D1*
X6282403D2*
X6613413D1*
X3260647Y7706250D2*
X3616630D1*
X3971400D2*
X4378610D1*
X4733380D2*
X5140590D1*
X5495360D2*
X5902660D1*
X6257337D2*
X6613413D1*
X3260647Y7643083D2*
X3677697D1*
X3910333D2*
X4439677D1*
X4672313D2*
X5201747D1*
X5434290D2*
X5963727D1*
X6196270D2*
X6613413D1*
X3260647Y7579917D2*
X6613413D1*
X3396377Y8904057D2*
X3942290D1*
Y8353477D1*
X3391710D1*
Y8904057D1*
X3396377D1*
X5936377D2*
X6482290D1*
Y8353477D1*
X5931710D1*
Y8904057D1*
X5936377D1*
X3994237Y7805833D2*
X3992337Y7782590D1*
X3987747Y7759727D1*
X3980533Y7737550D1*
X3970790Y7716363D1*
X3958650Y7696453D1*
X3944277Y7678087D1*
X3927867Y7661517D1*
X3909643Y7646967D1*
X3889850Y7634633D1*
X3868760Y7624687D1*
X3846657Y7617257D1*
X3823837Y7612443D1*
X3800613Y7610320D1*
X3777300Y7610907D1*
X3754213Y7614200D1*
X3731667Y7620157D1*
X3709967Y7628690D1*
X3689403Y7639690D1*
X3670257Y7653007D1*
X3652790Y7668457D1*
X3637237Y7685833D1*
X3623810Y7704900D1*
X3612690Y7725397D1*
X3604027Y7747050D1*
X3597940Y7769560D1*
X3594510Y7792627D1*
X3593783Y7815937D1*
X3595773Y7839170D1*
X3600450Y7862017D1*
X3607750Y7884167D1*
X3617573Y7905317D1*
X3629790Y7925180D1*
X3644233Y7943490D1*
X3660707Y7959997D1*
X3678987Y7974477D1*
X3698827Y7986733D1*
X3719957Y7996600D1*
X3742090Y8003947D1*
X3764927Y8008670D1*
X3788157Y8010703D1*
X3811467Y8010027D1*
X3834540Y8006643D1*
X3857063Y8000603D1*
X3878733Y7991983D1*
X3899253Y7980903D1*
X3918347Y7967517D1*
X3935753Y7951997D1*
X3951240Y7934563D1*
X3964597Y7915443D1*
X3975637Y7894903D1*
X3984217Y7873220D1*
X3990217Y7850683D1*
X3993557Y7827603D1*
X3994237Y7805833D1*
X4756237D2*
X4754337Y7782590D1*
X4749747Y7759727D1*
X4742533Y7737550D1*
X4732790Y7716363D1*
X4720650Y7696453D1*
X4706277Y7678087D1*
X4689867Y7661517D1*
X4671643Y7646967D1*
X4651850Y7634633D1*
X4630760Y7624687D1*
X4608657Y7617257D1*
X4585837Y7612443D1*
X4562613Y7610320D1*
X4539300Y7610907D1*
X4516213Y7614200D1*
X4493667Y7620157D1*
X4471967Y7628690D1*
X4451403Y7639690D1*
X4432257Y7653007D1*
X4414790Y7668457D1*
X4399237Y7685833D1*
X4385810Y7704900D1*
X4374690Y7725397D1*
X4366027Y7747050D1*
X4359940Y7769560D1*
X4356510Y7792627D1*
X4355783Y7815937D1*
X4357773Y7839170D1*
X4362450Y7862017D1*
X4369750Y7884167D1*
X4379573Y7905317D1*
X4391790Y7925180D1*
X4406233Y7943490D1*
X4422707Y7959997D1*
X4440987Y7974477D1*
X4460827Y7986733D1*
X4481957Y7996600D1*
X4504090Y8003947D1*
X4526927Y8008670D1*
X4550157Y8010703D1*
X4573467Y8010027D1*
X4596540Y8006643D1*
X4619063Y8000603D1*
X4640733Y7991983D1*
X4661253Y7980903D1*
X4680347Y7967517D1*
X4697753Y7951997D1*
X4713240Y7934563D1*
X4726597Y7915443D1*
X4737637Y7894903D1*
X4746217Y7873220D1*
X4752217Y7850683D1*
X4755557Y7827603D1*
X4756237Y7805833D1*
X5518237D2*
X5516337Y7782590D1*
X5511747Y7759727D1*
X5504533Y7737550D1*
X5494790Y7716363D1*
X5482650Y7696453D1*
X5468277Y7678087D1*
X5451867Y7661517D1*
X5433643Y7646967D1*
X5413850Y7634633D1*
X5392760Y7624687D1*
X5370657Y7617257D1*
X5347837Y7612443D1*
X5324613Y7610320D1*
X5301300Y7610907D1*
X5278213Y7614200D1*
X5255667Y7620157D1*
X5233967Y7628690D1*
X5213403Y7639690D1*
X5194257Y7653007D1*
X5176790Y7668457D1*
X5161237Y7685833D1*
X5147810Y7704900D1*
X5136690Y7725397D1*
X5128027Y7747050D1*
X5121940Y7769560D1*
X5118510Y7792627D1*
X5117783Y7815937D1*
X5119773Y7839170D1*
X5124450Y7862017D1*
X5131750Y7884167D1*
X5141573Y7905317D1*
X5153790Y7925180D1*
X5168233Y7943490D1*
X5184707Y7959997D1*
X5202987Y7974477D1*
X5222827Y7986733D1*
X5243957Y7996600D1*
X5266090Y8003947D1*
X5288927Y8008670D1*
X5312157Y8010703D1*
X5335467Y8010027D1*
X5358540Y8006643D1*
X5381063Y8000603D1*
X5402733Y7991983D1*
X5423253Y7980903D1*
X5442347Y7967517D1*
X5459753Y7951997D1*
X5475240Y7934563D1*
X5488597Y7915443D1*
X5499637Y7894903D1*
X5508217Y7873220D1*
X5514217Y7850683D1*
X5517557Y7827603D1*
X5518237Y7805833D1*
X6280237D2*
X6278337Y7782590D1*
X6273747Y7759727D1*
X6266533Y7737550D1*
X6256790Y7716363D1*
X6244650Y7696453D1*
X6230277Y7678087D1*
X6213867Y7661517D1*
X6195643Y7646967D1*
X6175850Y7634633D1*
X6154760Y7624687D1*
X6132657Y7617257D1*
X6109837Y7612443D1*
X6086613Y7610320D1*
X6063300Y7610907D1*
X6040213Y7614200D1*
X6017667Y7620157D1*
X5995967Y7628690D1*
X5975403Y7639690D1*
X5956257Y7653007D1*
X5938790Y7668457D1*
X5923237Y7685833D1*
X5909810Y7704900D1*
X5898690Y7725397D1*
X5890027Y7747050D1*
X5883940Y7769560D1*
X5880510Y7792627D1*
X5879783Y7815937D1*
X5881773Y7839170D1*
X5886450Y7862017D1*
X5893750Y7884167D1*
X5903573Y7905317D1*
X5915790Y7925180D1*
X5930233Y7943490D1*
X5946707Y7959997D1*
X5964987Y7974477D1*
X5984827Y7986733D1*
X6005957Y7996600D1*
X6028090Y8003947D1*
X6050927Y8008670D1*
X6074157Y8010703D1*
X6097467Y8010027D1*
X6120540Y8006643D1*
X6143063Y8000603D1*
X6164733Y7991983D1*
X6185253Y7980903D1*
X6204347Y7967517D1*
X6221753Y7951997D1*
X6237240Y7934563D1*
X6250597Y7915443D1*
X6261637Y7894903D1*
X6270217Y7873220D1*
X6276217Y7850683D1*
X6279557Y7827603D1*
X6280237Y7805833D1*
X6619750Y7572310D2*
Y9032830D1*
X3254220Y9032750D1*
X3254250Y7572170D1*
X6619780Y7572250D1*
X3667000Y8903967D2*
D17*
Y8353567D1*
X3391800Y8628767D2*
X3942200D1*
X6207000Y8903967D2*
Y8353567D1*
X5931800Y8628767D2*
X6482200D1*
X3794000Y8010700D2*
Y7610300D1*
X3593800Y7810500D2*
X3994200D1*
X4556000Y8010700D2*
Y7610300D1*
X4355800Y7810500D2*
X4756200D1*
X5318000Y8010700D2*
Y7610300D1*
X5117800Y7810500D2*
X5518200D1*
X6080000Y8010700D2*
Y7610300D1*
X5879800Y7810500D2*
X6280200D1*
D19*
X11422000Y11651500D3*
X12422000D3*
X9422000Y1651500D3*
D20*
X9668000Y3901500D3*
Y4401500D3*
Y3401500D3*
D21*
Y4901500D3*
D20*
X14176000Y4401500D3*
Y3901500D3*
Y4901500D3*
D21*
Y3401500D3*
D22*
X3667000Y3548767D3*
D23*
Y4548767D3*
D22*
X6207000Y3548767D3*
D23*
Y4548767D3*
D22*
X3667000Y9628767D3*
D23*
Y8628767D3*
D22*
X6207000Y9628767D3*
D23*
Y8628767D3*
D22*
X17637000Y4492500D3*
D23*
Y3492500D3*
D22*
X20177000Y4492500D3*
D23*
Y3492500D3*
D22*
X17629000Y8580500D3*
D23*
Y9580500D3*
D22*
X20169000Y8580500D3*
D23*
Y9580500D3*
D14*
X11422000Y3151500D3*
X12422000D3*
D43*
X1922000Y11651500D3*
Y1651500D3*
X21922000Y11651500D3*
Y1651500D3*
D19*
X11422000D3*
X12422000D3*
X10422000D3*
X13422000D3*
X15422000D3*
X10398000Y7159500D3*
Y6143500D3*
X13446000D3*
Y7159500D3*
X10398000Y8175500D3*
X13446000D3*
X2176000Y6651500D3*
X21541000D3*
D14*
X7858000Y3004500D3*
Y5504500D3*
X8493000Y3004500D3*
Y5504500D3*
X3794000Y7810500D3*
Y5310500D3*
X4556000Y7810500D3*
Y5310500D3*
X5318000Y7810500D3*
Y5310500D3*
X6080000Y7810500D3*
Y5310500D3*
X15351000Y5484500D3*
Y2984500D3*
X15986000Y5484500D3*
Y2984500D3*
X17764000Y7810500D3*
Y5310500D3*
X18526000Y7810500D3*
Y5310500D3*
X19288000Y7810500D3*
Y5310500D3*
X20050000Y7810500D3*
Y5310500D3*
D19*
X8422000Y1651500D3*
D14*
X11422000Y9014500D3*
Y9764500D3*
X5215000Y11376500D3*
X4465000D3*
D19*
X2176000Y7651500D3*
X21541000Y5651500D3*
X2176000D3*
X21541000Y7651500D3*
X14422000Y1651500D3*
M02*
