G04 DipTrace 3.3.1.3*
G04 TopMask.gbr*
%MOMM*%
G04 #@! TF.FileFunction,Soldermask,Top*
G04 #@! TF.Part,Single*
%AMOUTLINE1*
4,1,8,
4.7194,1.95485,
4.7194,-1.95485,
1.95485,-4.7194,
-1.95485,-4.7194,
-4.7194,-1.95485,
-4.7194,1.95485,
-1.95485,4.7194,
1.95485,4.7194,
4.7194,1.95485,
0*%
%ADD13C,4.0*%
%ADD28C,2.2*%
%ADD30R,3.7X3.7*%
%ADD32C,3.7*%
%ADD34R,5.2X2.7*%
%ADD36O,5.2X2.7*%
%ADD38C,6.2*%
%ADD44OUTLINE1*%
%FSLAX35Y35*%
G04*
G71*
G90*
G75*
G01*
G04 TopMask*
%LPD*%
D38*
X11422000Y11651500D3*
X12422000D3*
X9422000Y1651500D3*
D36*
X9668000Y3901500D3*
Y4401500D3*
Y3401500D3*
D34*
Y4901500D3*
D36*
X14176000Y4401500D3*
Y3901500D3*
Y4901500D3*
D34*
Y3401500D3*
D32*
X3667000Y3548767D3*
D30*
Y4548767D3*
D32*
X6207000Y3548767D3*
D30*
Y4548767D3*
D32*
X3667000Y9628767D3*
D30*
Y8628767D3*
D32*
X6207000Y9628767D3*
D30*
Y8628767D3*
D32*
X17637000Y4492500D3*
D30*
Y3492500D3*
D32*
X20177000Y4492500D3*
D30*
Y3492500D3*
D32*
X17629000Y8580500D3*
D30*
Y9580500D3*
D32*
X20169000Y8580500D3*
D30*
Y9580500D3*
D28*
X11422000Y3151500D3*
X12422000D3*
D44*
X1922000Y11651500D3*
Y1651500D3*
X21922000Y11651500D3*
Y1651500D3*
D38*
X11422000D3*
X12422000D3*
D13*
X14922000Y11651500D3*
X17922000Y1651500D3*
X8922000Y11651500D3*
X5922000Y1651500D3*
D38*
X10422000D3*
X13422000D3*
X15422000D3*
X10398000Y7159500D3*
Y6143500D3*
X13446000D3*
Y7159500D3*
X10398000Y8175500D3*
X13446000D3*
X2176000Y6651500D3*
X21541000D3*
D28*
X7858000Y3004500D3*
Y5504500D3*
X8493000Y3004500D3*
Y5504500D3*
X3794000Y7810500D3*
Y5310500D3*
X4556000Y7810500D3*
Y5310500D3*
X5318000Y7810500D3*
Y5310500D3*
X6080000Y7810500D3*
Y5310500D3*
X15351000Y5484500D3*
Y2984500D3*
X15986000Y5484500D3*
Y2984500D3*
X17764000Y7810500D3*
Y5310500D3*
X18526000Y7810500D3*
Y5310500D3*
X19288000Y7810500D3*
Y5310500D3*
X20050000Y7810500D3*
Y5310500D3*
D38*
X8422000Y1651500D3*
D28*
X11422000Y9014500D3*
Y9764500D3*
X5215000Y11376500D3*
X4465000D3*
D38*
X2176000Y7651500D3*
X21541000Y5651500D3*
X2176000D3*
X21541000Y7651500D3*
X14422000Y1651500D3*
M02*
