G04 DipTrace 2.3.1.0*
%INBottom.gbr*%
%MOIN*%
%ADD14C,0.03*%
%ADD15C,0.02*%
%ADD16C,0.04*%
%ADD17C,0.16*%
%ADD18C,0.025*%
%ADD19C,0.013*%
%ADD20C,0.1*%
%ADD21O,0.1X0.15*%
%ADD23C,0.15*%
%ADD24C,0.0689*%
%ADD25C,0.0492*%
%ADD26C,0.07*%
%ADD28O,0.04X0.08*%
%ADD29C,0.12*%
%ADD30C,0.05*%
%ADD31R,0.0512X0.0512*%
%ADD34R,0.0591X0.0591*%
%ADD35C,0.06*%
%FSLAX44Y44*%
G04*
G70*
G90*
G75*
G01*
%LNBottom*%
%LPD*%
X23650Y33007D2*
D15*
Y30474D1*
X23687Y30437D1*
X26406Y31441D2*
Y30656D1*
X26187Y30437D1*
X25224Y33007D2*
Y30724D1*
X23687Y29187D1*
X26812Y30312D2*
Y32062D1*
X27062Y32312D1*
X27437D1*
X27562Y32437D1*
Y32983D1*
X27587Y33007D1*
X26012D2*
D16*
Y33612D1*
X25687Y33937D1*
X22862D1*
X20750D1*
X20500Y33687D1*
Y33007D1*
X22862D2*
Y33937D1*
Y33007D2*
Y32449D1*
X23256Y32056D1*
Y31441D1*
X12406Y30937D2*
D17*
Y22937D1*
Y15156D1*
X13124Y14437D1*
X19437Y10937D2*
X16624D1*
X13124Y14437D1*
X11937Y22937D2*
D14*
X12406D1*
X29295Y10937D2*
D17*
X32344D1*
X35844Y14437D1*
X36437Y30937D2*
Y22937D1*
Y15031D1*
X35844Y14437D1*
X36937Y22937D2*
D14*
X36437D1*
X8437Y23937D2*
X10187D1*
X34921Y23953D2*
X29546D1*
X25562Y27937D1*
X38937Y23937D2*
X40687D1*
X23437Y24437D2*
Y23937D1*
X22187Y22687D1*
X15187D1*
X13921Y23953D1*
D16*
X26812Y30312D3*
X23687Y29187D3*
X8437Y23937D3*
X11937Y22937D3*
X23437Y24437D3*
X36937Y22937D3*
X40687Y23937D3*
X25562Y27937D3*
X24562Y24437D3*
X22312Y24062D3*
X25687Y29562D3*
X26812D3*
X24437Y27937D3*
X6886Y33813D2*
D18*
X18539D1*
X30335D2*
X41988D1*
X7081Y33565D2*
X18539D1*
X30335D2*
X41793D1*
X7210Y33316D2*
X18539D1*
X30335D2*
X41664D1*
X7292Y33067D2*
X18539D1*
X30335D2*
X41582D1*
X7331Y32819D2*
X18539D1*
X30335D2*
X41543D1*
X7335Y32570D2*
X18539D1*
X30335D2*
X41539D1*
X7296Y32321D2*
X16047D1*
X16796D2*
X18539D1*
X30335D2*
X32047D1*
X32796D2*
X41578D1*
X7218Y32073D2*
X15887D1*
X16956D2*
X18539D1*
X30335D2*
X31887D1*
X32956D2*
X41656D1*
X7089Y31824D2*
X11754D1*
X13054D2*
X15875D1*
X16968D2*
X18539D1*
X30335D2*
X31875D1*
X32968D2*
X35789D1*
X37085D2*
X41785D1*
X4337Y31575D2*
X4476D1*
X6898D2*
X11504D1*
X13308D2*
X15992D1*
X16851D2*
X18539D1*
X30335D2*
X31992D1*
X32851D2*
X35535D1*
X37339D2*
X41976D1*
X44398D2*
X44539D1*
X4337Y31326D2*
X4769D1*
X6605D2*
X9949D1*
X10925D2*
X11367D1*
X13444D2*
X18539D1*
X30335D2*
X35398D1*
X37476D2*
X37887D1*
X38925D2*
X42269D1*
X44105D2*
X44539D1*
X4337Y31078D2*
X5430D1*
X5944D2*
X9808D1*
X11066D2*
X11305D1*
X13507D2*
X18539D1*
X30335D2*
X35336D1*
X37538D2*
X37766D1*
X39042D2*
X42930D1*
X43444D2*
X44539D1*
X4337Y30829D2*
X9808D1*
X11066D2*
X11297D1*
X13515D2*
X18539D1*
X30335D2*
X35328D1*
X37546D2*
X37762D1*
X39050D2*
X44539D1*
X4337Y30580D2*
X9914D1*
X10960D2*
X11297D1*
X13515D2*
X18539D1*
X30276D2*
X35328D1*
X37546D2*
X37863D1*
X38948D2*
X44539D1*
X4337Y30332D2*
X11297D1*
X13515D2*
X16023D1*
X16819D2*
X24262D1*
X25401D2*
X26301D1*
X27323D2*
X32023D1*
X32819D2*
X35328D1*
X37546D2*
X38207D1*
X38605D2*
X44539D1*
X4337Y30083D2*
X11297D1*
X13515D2*
X15883D1*
X16960D2*
X24016D1*
X25151D2*
X26359D1*
X27265D2*
X31883D1*
X32960D2*
X35328D1*
X37546D2*
X44539D1*
X4337Y29834D2*
X11297D1*
X13515D2*
X15879D1*
X16964D2*
X23766D1*
X24905D2*
X26703D1*
X26920D2*
X31879D1*
X32964D2*
X35328D1*
X37546D2*
X44539D1*
X4337Y29586D2*
X11297D1*
X13515D2*
X16012D1*
X16831D2*
X23387D1*
X24655D2*
X32012D1*
X32831D2*
X35328D1*
X37546D2*
X44539D1*
X4337Y29337D2*
X11297D1*
X13515D2*
X23199D1*
X24405D2*
X35328D1*
X37546D2*
X44539D1*
X4337Y29088D2*
X11297D1*
X13515D2*
X23187D1*
X24187D2*
X35328D1*
X37546D2*
X44539D1*
X4337Y28840D2*
X11297D1*
X13515D2*
X23324D1*
X24050D2*
X35328D1*
X37546D2*
X44539D1*
X4337Y28591D2*
X11297D1*
X13515D2*
X35328D1*
X37546D2*
X44539D1*
X4337Y28342D2*
X11297D1*
X13515D2*
X25269D1*
X25855D2*
X35328D1*
X37546D2*
X44539D1*
X4337Y28094D2*
X11297D1*
X13515D2*
X25078D1*
X26046D2*
X35328D1*
X37546D2*
X44539D1*
X4337Y27845D2*
X6512D1*
X7401D2*
X10328D1*
X13515D2*
X25062D1*
X26296D2*
X35328D1*
X38401D2*
X41328D1*
X42538D2*
X44539D1*
X4337Y27596D2*
X6367D1*
X7542D2*
X10328D1*
X13515D2*
X18027D1*
X18878D2*
X25191D1*
X26542D2*
X30012D1*
X30862D2*
X35328D1*
X38542D2*
X41328D1*
X42538D2*
X44539D1*
X4337Y27347D2*
X6351D1*
X7558D2*
X10328D1*
X13515D2*
X17769D1*
X19136D2*
X25512D1*
X26792D2*
X29754D1*
X31120D2*
X35328D1*
X38558D2*
X41328D1*
X42538D2*
X44539D1*
X4337Y27099D2*
X6453D1*
X7456D2*
X10328D1*
X13515D2*
X17664D1*
X19241D2*
X25762D1*
X27042D2*
X29648D1*
X31226D2*
X35328D1*
X38456D2*
X41328D1*
X42538D2*
X44539D1*
X4337Y26850D2*
X11297D1*
X13515D2*
X17644D1*
X19261D2*
X26008D1*
X27288D2*
X29629D1*
X31245D2*
X35328D1*
X37546D2*
X44539D1*
X4337Y26601D2*
X11297D1*
X13515D2*
X17711D1*
X19194D2*
X26258D1*
X27538D2*
X29695D1*
X31179D2*
X35328D1*
X37546D2*
X44539D1*
X4337Y26353D2*
X5680D1*
X6663D2*
X11297D1*
X14366D2*
X17633D1*
X19241D2*
X26508D1*
X27788D2*
X29633D1*
X31241D2*
X34430D1*
X37546D2*
X42476D1*
X43366D2*
X44539D1*
X4337Y26104D2*
X5539D1*
X6804D2*
X11297D1*
X14546D2*
X17543D1*
X19331D2*
X26754D1*
X28034D2*
X29543D1*
X31331D2*
X34289D1*
X37546D2*
X42297D1*
X43546D2*
X44539D1*
X4337Y25855D2*
X5516D1*
X6827D2*
X11297D1*
X14550D2*
X17531D1*
X19343D2*
X27004D1*
X28284D2*
X29531D1*
X31343D2*
X34266D1*
X37546D2*
X42293D1*
X43550D2*
X44539D1*
X4337Y25607D2*
X5594D1*
X6749D2*
X11297D1*
X14483D2*
X17590D1*
X19284D2*
X27254D1*
X28534D2*
X29590D1*
X31284D2*
X34344D1*
X37546D2*
X42359D1*
X43483D2*
X44539D1*
X4337Y25358D2*
X5855D1*
X6487D2*
X8621D1*
X9753D2*
X10832D1*
X14222D2*
X17742D1*
X19151D2*
X27500D1*
X28780D2*
X29738D1*
X31136D2*
X34605D1*
X38503D2*
X39582D1*
X40292D2*
X42621D1*
X43222D2*
X44539D1*
X4337Y25109D2*
X8621D1*
X9753D2*
X10656D1*
X13515D2*
X17660D1*
X19245D2*
X27750D1*
X29030D2*
X29644D1*
X31230D2*
X35328D1*
X38503D2*
X39406D1*
X40468D2*
X44539D1*
X4337Y24861D2*
X8621D1*
X9753D2*
X10633D1*
X13515D2*
X17648D1*
X19257D2*
X23176D1*
X23698D2*
X28000D1*
X29280D2*
X29633D1*
X31241D2*
X35328D1*
X38503D2*
X39383D1*
X40491D2*
X44539D1*
X4337Y24612D2*
X8621D1*
X9753D2*
X10738D1*
X13515D2*
X17723D1*
X19187D2*
X22961D1*
X23913D2*
X28246D1*
X29526D2*
X29707D1*
X31167D2*
X35328D1*
X38503D2*
X39488D1*
X40386D2*
X44539D1*
X4337Y24363D2*
X5703D1*
X6640D2*
X8180D1*
X10534D2*
X11297D1*
X14429D2*
X17910D1*
X18995D2*
X22933D1*
X23941D2*
X28496D1*
X37546D2*
X38590D1*
X40944D2*
X42410D1*
X43429D2*
X44539D1*
X4337Y24115D2*
X5543D1*
X6796D2*
X7961D1*
X10718D2*
X11297D1*
X14562D2*
X22973D1*
X23898D2*
X28746D1*
X37546D2*
X38406D1*
X41163D2*
X42281D1*
X43562D2*
X44539D1*
X4337Y23866D2*
X5543D1*
X6800D2*
X7933D1*
X10741D2*
X11297D1*
X14648D2*
X22726D1*
X23890D2*
X28992D1*
X37546D2*
X38383D1*
X41191D2*
X42266D1*
X43573D2*
X44539D1*
X4337Y23617D2*
X5629D1*
X6714D2*
X8047D1*
X10640D2*
X11297D1*
X14898D2*
X22476D1*
X23757D2*
X29246D1*
X37546D2*
X38484D1*
X41077D2*
X42359D1*
X43483D2*
X44539D1*
X4337Y23368D2*
X5914D1*
X6429D2*
X11297D1*
X13515D2*
X13647D1*
X15144D2*
X22230D1*
X23507D2*
X34664D1*
X35179D2*
X35328D1*
X37546D2*
X42648D1*
X43194D2*
X44539D1*
X4337Y23120D2*
X11297D1*
X13515D2*
X14113D1*
X23261D2*
X35328D1*
X37546D2*
X44539D1*
X4337Y22871D2*
X11297D1*
X13515D2*
X14363D1*
X23011D2*
X35328D1*
X37546D2*
X44539D1*
X4337Y22622D2*
X11297D1*
X13515D2*
X14613D1*
X22761D2*
X35328D1*
X37546D2*
X44539D1*
X4337Y22374D2*
X11297D1*
X13515D2*
X14859D1*
X22515D2*
X35328D1*
X37546D2*
X44539D1*
X4337Y22125D2*
X11297D1*
X13515D2*
X35328D1*
X37546D2*
X44539D1*
X4337Y21876D2*
X11297D1*
X13515D2*
X35328D1*
X37546D2*
X44539D1*
X4337Y21628D2*
X11297D1*
X13515D2*
X21055D1*
X21788D2*
X27055D1*
X27788D2*
X35328D1*
X37546D2*
X44539D1*
X4337Y21379D2*
X11297D1*
X13515D2*
X20758D1*
X22085D2*
X26758D1*
X28085D2*
X35328D1*
X37546D2*
X44539D1*
X4337Y21130D2*
X11297D1*
X13515D2*
X20641D1*
X22202D2*
X26641D1*
X28202D2*
X35328D1*
X37546D2*
X44539D1*
X4337Y20882D2*
X11297D1*
X13515D2*
X20613D1*
X22230D2*
X26613D1*
X28230D2*
X35328D1*
X37546D2*
X44539D1*
X4337Y20633D2*
X11297D1*
X13515D2*
X20668D1*
X22175D2*
X26668D1*
X28175D2*
X35328D1*
X37546D2*
X44539D1*
X4337Y20384D2*
X11297D1*
X13515D2*
X20648D1*
X22226D2*
X26648D1*
X28226D2*
X35328D1*
X37546D2*
X44539D1*
X4337Y20136D2*
X11297D1*
X13515D2*
X20551D1*
X22323D2*
X26551D1*
X28323D2*
X35328D1*
X37546D2*
X44539D1*
X4337Y19887D2*
X11297D1*
X13515D2*
X20527D1*
X22347D2*
X26527D1*
X28347D2*
X35328D1*
X37546D2*
X44539D1*
X4337Y19638D2*
X11297D1*
X13515D2*
X20578D1*
X22296D2*
X26578D1*
X28296D2*
X35328D1*
X37546D2*
X44539D1*
X4337Y19389D2*
X11297D1*
X13515D2*
X20719D1*
X22155D2*
X26719D1*
X28155D2*
X35328D1*
X37546D2*
X44539D1*
X4337Y19141D2*
X11297D1*
X13515D2*
X20633D1*
X22210D2*
X26633D1*
X28210D2*
X35328D1*
X37546D2*
X44539D1*
X4337Y18892D2*
X11297D1*
X13515D2*
X20613D1*
X22230D2*
X26613D1*
X28230D2*
X35328D1*
X37546D2*
X44539D1*
X4337Y18643D2*
X11297D1*
X13515D2*
X20676D1*
X22167D2*
X26676D1*
X28167D2*
X35328D1*
X37546D2*
X44539D1*
X4337Y18395D2*
X11297D1*
X13515D2*
X20844D1*
X21999D2*
X26844D1*
X27999D2*
X35328D1*
X37546D2*
X44539D1*
X4337Y18146D2*
X11297D1*
X13515D2*
X35328D1*
X37546D2*
X44539D1*
X4337Y17897D2*
X11297D1*
X13515D2*
X35328D1*
X37546D2*
X44539D1*
X4337Y17649D2*
X11297D1*
X13515D2*
X35328D1*
X37546D2*
X44539D1*
X4337Y17400D2*
X11297D1*
X13515D2*
X35328D1*
X37546D2*
X44539D1*
X4337Y17151D2*
X11297D1*
X13515D2*
X35328D1*
X37546D2*
X44539D1*
X4337Y16903D2*
X11297D1*
X13515D2*
X35328D1*
X37546D2*
X44539D1*
X4337Y16654D2*
X11297D1*
X13515D2*
X35328D1*
X37546D2*
X44539D1*
X4337Y16405D2*
X11297D1*
X13515D2*
X35328D1*
X37546D2*
X44539D1*
X4337Y16156D2*
X11297D1*
X13515D2*
X35328D1*
X37546D2*
X44539D1*
X4337Y15908D2*
X11297D1*
X13515D2*
X35328D1*
X37546D2*
X44539D1*
X4337Y15659D2*
X11297D1*
X13515D2*
X35328D1*
X37546D2*
X44539D1*
X4337Y15410D2*
X8824D1*
X9550D2*
X11297D1*
X13710D2*
X35258D1*
X37546D2*
X39406D1*
X40155D2*
X44539D1*
X4337Y15162D2*
X8504D1*
X9870D2*
X11297D1*
X13960D2*
X35008D1*
X37546D2*
X39016D1*
X40546D2*
X44539D1*
X4337Y14913D2*
X8258D1*
X10116D2*
X11324D1*
X14206D2*
X20992D1*
X21882D2*
X26898D1*
X27788D2*
X34762D1*
X37542D2*
X38836D1*
X40726D2*
X44539D1*
X4337Y14664D2*
X8183D1*
X10191D2*
X11414D1*
X14456D2*
X20820D1*
X22054D2*
X26726D1*
X27960D2*
X34512D1*
X37483D2*
X38746D1*
X40816D2*
X44539D1*
X4337Y14416D2*
X8183D1*
X10191D2*
X11586D1*
X14706D2*
X20777D1*
X22097D2*
X26683D1*
X28003D2*
X34262D1*
X37355D2*
X38723D1*
X40839D2*
X44539D1*
X4337Y14167D2*
X8183D1*
X10191D2*
X11836D1*
X14952D2*
X20836D1*
X22038D2*
X26742D1*
X27941D2*
X34016D1*
X37132D2*
X38758D1*
X40804D2*
X44539D1*
X4337Y13918D2*
X8297D1*
X10077D2*
X12082D1*
X15202D2*
X21047D1*
X21827D2*
X26953D1*
X27733D2*
X33766D1*
X36886D2*
X38859D1*
X40702D2*
X44539D1*
X4337Y13670D2*
X8547D1*
X9827D2*
X12332D1*
X15452D2*
X33516D1*
X36636D2*
X39062D1*
X40499D2*
X44539D1*
X4337Y13421D2*
X12582D1*
X15698D2*
X33269D1*
X36386D2*
X39558D1*
X40003D2*
X44539D1*
X4337Y13172D2*
X12828D1*
X15948D2*
X33019D1*
X36140D2*
X44539D1*
X4337Y12924D2*
X13078D1*
X16198D2*
X32769D1*
X35890D2*
X44539D1*
X4337Y12675D2*
X13328D1*
X16444D2*
X32523D1*
X35640D2*
X44539D1*
X4337Y12426D2*
X13574D1*
X16694D2*
X32273D1*
X35394D2*
X44539D1*
X4337Y12177D2*
X13824D1*
X16944D2*
X32023D1*
X35144D2*
X44539D1*
X4337Y11929D2*
X14074D1*
X19901D2*
X22109D1*
X22671D2*
X25062D1*
X25624D2*
X28832D1*
X34894D2*
X44539D1*
X4337Y11680D2*
X14320D1*
X20253D2*
X21754D1*
X23026D2*
X24707D1*
X25980D2*
X28480D1*
X34648D2*
X44539D1*
X4337Y11431D2*
X14570D1*
X20429D2*
X21617D1*
X23159D2*
X24570D1*
X26112D2*
X28305D1*
X34398D2*
X44539D1*
X4337Y11183D2*
X14820D1*
X20519D2*
X21578D1*
X23198D2*
X24531D1*
X26151D2*
X28215D1*
X34148D2*
X44539D1*
X4337Y10934D2*
X15066D1*
X20546D2*
X21578D1*
X23198D2*
X24531D1*
X26151D2*
X28183D1*
X33901D2*
X44539D1*
X4337Y10685D2*
X15316D1*
X20519D2*
X21578D1*
X23198D2*
X24531D1*
X26151D2*
X28215D1*
X33651D2*
X44539D1*
X4337Y10437D2*
X15566D1*
X20425D2*
X21621D1*
X23159D2*
X24574D1*
X26112D2*
X28308D1*
X33401D2*
X44539D1*
X4337Y10188D2*
X15812D1*
X20245D2*
X21758D1*
X23019D2*
X24711D1*
X25972D2*
X28484D1*
X33155D2*
X44539D1*
X4337Y9939D2*
X16172D1*
X19890D2*
X22125D1*
X22655D2*
X25078D1*
X25605D2*
X28844D1*
X32796D2*
X44539D1*
X4337Y9691D2*
X44539D1*
X4337Y9442D2*
X44539D1*
X4337Y9193D2*
X44539D1*
X4337Y8945D2*
X44539D1*
X4337Y8696D2*
X44539D1*
X4337Y8447D2*
X44539D1*
X4337Y8198D2*
X16789D1*
X17052D2*
X44539D1*
X4337Y7950D2*
X16316D1*
X17526D2*
X21348D1*
X22526D2*
X26348D1*
X27526D2*
X31348D1*
X32526D2*
X44539D1*
X4337Y7701D2*
X16164D1*
X17679D2*
X21183D1*
X22691D2*
X26183D1*
X27691D2*
X31183D1*
X32691D2*
X44539D1*
X4337Y7452D2*
X16113D1*
X17730D2*
X21129D1*
X22745D2*
X26129D1*
X27745D2*
X31129D1*
X32745D2*
X44539D1*
X4337Y7204D2*
X5074D1*
X6300D2*
X16141D1*
X17702D2*
X21152D1*
X22722D2*
X26152D1*
X27722D2*
X31152D1*
X32722D2*
X42574D1*
X43800D2*
X44539D1*
X4337Y6955D2*
X4644D1*
X6730D2*
X16195D1*
X17679D2*
X21195D1*
X22679D2*
X26195D1*
X27679D2*
X31195D1*
X32679D2*
X42144D1*
X44230D2*
X44539D1*
X6980Y6706D2*
X16070D1*
X17804D2*
X21070D1*
X22804D2*
X26070D1*
X27804D2*
X31070D1*
X32804D2*
X41894D1*
X7144Y6458D2*
X16027D1*
X17847D2*
X21027D1*
X22847D2*
X26027D1*
X27847D2*
X31027D1*
X32847D2*
X41730D1*
X7253Y6209D2*
X16058D1*
X17816D2*
X21058D1*
X22816D2*
X26058D1*
X27816D2*
X31058D1*
X32816D2*
X41621D1*
X7316Y5960D2*
X16168D1*
X17706D2*
X21168D1*
X22706D2*
X26168D1*
X27706D2*
X31168D1*
X32706D2*
X41558D1*
X7339Y5712D2*
X16156D1*
X17687D2*
X21176D1*
X22698D2*
X26176D1*
X27698D2*
X31176D1*
X32698D2*
X41535D1*
X7323Y5463D2*
X16113D1*
X17730D2*
X21129D1*
X22745D2*
X26129D1*
X27745D2*
X31129D1*
X32745D2*
X41551D1*
X7269Y5214D2*
X16148D1*
X17694D2*
X21160D1*
X22714D2*
X26160D1*
X27714D2*
X31160D1*
X32714D2*
X41605D1*
X7171Y4966D2*
X16281D1*
X17562D2*
X21285D1*
X22589D2*
X26285D1*
X27589D2*
X31285D1*
X32589D2*
X41703D1*
X7019Y4717D2*
X16625D1*
X17218D2*
X21601D1*
X22273D2*
X26601D1*
X27273D2*
X31601D1*
X32273D2*
X41855D1*
X6788Y4468D2*
X42086D1*
X17696Y5328D2*
X17667Y5207D1*
X17618Y5092D1*
X17552Y4986D1*
X17470Y4892D1*
X17374Y4812D1*
X17267Y4748D1*
X17151Y4702D1*
X17029Y4675D1*
X16904Y4668D1*
X16780Y4681D1*
X16659Y4713D1*
X16545Y4764D1*
X16441Y4832D1*
X16349Y4916D1*
X16271Y5014D1*
X16209Y5122D1*
X16166Y5239D1*
X16142Y5362D1*
X16137Y5487D1*
X16152Y5611D1*
X16187Y5730D1*
X16260Y5872D1*
X16206Y5938D1*
X16143Y6046D1*
X16096Y6161D1*
X16066Y6282D1*
X16053Y6407D1*
X16057Y6532D1*
X16079Y6654D1*
X16118Y6773D1*
X16174Y6885D1*
X16258Y7002D1*
X16209Y7091D1*
X16166Y7208D1*
X16142Y7330D1*
X16137Y7455D1*
X16152Y7579D1*
X16187Y7699D1*
X16240Y7812D1*
X16311Y7915D1*
X16397Y8005D1*
X16496Y8081D1*
X16606Y8140D1*
X16724Y8181D1*
X16847Y8203D1*
X16972Y8205D1*
X17096Y8187D1*
X17215Y8149D1*
X17326Y8094D1*
X17428Y8021D1*
X17517Y7933D1*
X17590Y7832D1*
X17647Y7721D1*
X17685Y7602D1*
X17706Y7421D1*
X17696Y7297D1*
X17667Y7175D1*
X17596Y7024D1*
X17650Y6961D1*
X17717Y6855D1*
X17768Y6741D1*
X17803Y6621D1*
X17822Y6437D1*
X17813Y6312D1*
X17787Y6190D1*
X17744Y6073D1*
X17684Y5963D1*
X17597Y5849D1*
X17647Y5752D1*
X17685Y5633D1*
X17706Y5453D1*
X17696Y5328D1*
X32712Y5313D2*
X32683Y5191D1*
X32634Y5076D1*
X32568Y4970D1*
X32486Y4876D1*
X32390Y4796D1*
X32283Y4732D1*
X32167Y4686D1*
X32045Y4659D1*
X31920Y4652D1*
X31796Y4665D1*
X31675Y4697D1*
X31561Y4748D1*
X31457Y4816D1*
X31364Y4900D1*
X31286Y4998D1*
X31225Y5106D1*
X31182Y5224D1*
X31157Y5346D1*
X31153Y5471D1*
X31168Y5595D1*
X31203Y5715D1*
X31272Y5850D1*
X31206Y5938D1*
X31143Y6046D1*
X31096Y6161D1*
X31066Y6282D1*
X31053Y6407D1*
X31057Y6532D1*
X31079Y6654D1*
X31118Y6773D1*
X31174Y6885D1*
X31263Y7008D1*
X31225Y7075D1*
X31182Y7192D1*
X31157Y7315D1*
X31153Y7439D1*
X31168Y7563D1*
X31203Y7683D1*
X31256Y7796D1*
X31327Y7899D1*
X31413Y7990D1*
X31512Y8065D1*
X31622Y8125D1*
X31740Y8165D1*
X31863Y8187D1*
X31988Y8189D1*
X32111Y8171D1*
X32230Y8134D1*
X32342Y8078D1*
X32444Y8005D1*
X32532Y7917D1*
X32606Y7816D1*
X32663Y7705D1*
X32701Y7586D1*
X32722Y7406D1*
X32712Y7281D1*
X32683Y7160D1*
X32611Y7008D1*
X32717Y6855D1*
X32768Y6741D1*
X32803Y6621D1*
X32822Y6437D1*
X32813Y6312D1*
X32787Y6190D1*
X32744Y6073D1*
X32684Y5963D1*
X32602Y5854D1*
X32663Y5737D1*
X32701Y5618D1*
X32722Y5437D1*
X32712Y5313D1*
X21607Y11186D2*
X21621Y11345D1*
X21656Y11465D1*
X21709Y11578D1*
X21779Y11681D1*
X21865Y11771D1*
X21965Y11847D1*
X22075Y11906D1*
X22193Y11947D1*
X22316Y11969D1*
X22441Y11970D1*
X22564Y11952D1*
X22683Y11915D1*
X22795Y11859D1*
X22896Y11787D1*
X22985Y11699D1*
X23059Y11598D1*
X23115Y11487D1*
X23154Y11368D1*
X23175Y11187D1*
X23171Y10687D1*
X23165Y10563D1*
X23135Y10441D1*
X23087Y10326D1*
X23021Y10220D1*
X22939Y10126D1*
X22843Y10046D1*
X22736Y9982D1*
X22619Y9936D1*
X22498Y9909D1*
X22373Y9902D1*
X22249Y9915D1*
X22128Y9947D1*
X22014Y9998D1*
X21909Y10066D1*
X21817Y10150D1*
X21739Y10248D1*
X21678Y10356D1*
X21634Y10474D1*
X21610Y10596D1*
X21605Y10812D1*
X21609Y11187D1*
X24560Y11186D2*
X24574Y11345D1*
X24608Y11465D1*
X24662Y11578D1*
X24732Y11681D1*
X24818Y11771D1*
X24917Y11847D1*
X25027Y11906D1*
X25145Y11947D1*
X25268Y11969D1*
X25393Y11970D1*
X25517Y11952D1*
X25636Y11915D1*
X25748Y11859D1*
X25849Y11787D1*
X25938Y11699D1*
X26011Y11598D1*
X26068Y11487D1*
X26106Y11368D1*
X26128Y11187D1*
X26124Y10687D1*
X26118Y10563D1*
X26088Y10441D1*
X26040Y10326D1*
X25974Y10220D1*
X25892Y10126D1*
X25796Y10046D1*
X25688Y9982D1*
X25572Y9936D1*
X25450Y9909D1*
X25326Y9902D1*
X25201Y9915D1*
X25081Y9947D1*
X24967Y9998D1*
X24862Y10066D1*
X24770Y10150D1*
X24692Y10248D1*
X24630Y10356D1*
X24587Y10474D1*
X24563Y10596D1*
X24558Y10812D1*
X24561Y11187D1*
X40815Y14412D2*
X40801Y14263D1*
X40765Y14117D1*
X40708Y13979D1*
X40632Y13849D1*
X40539Y13732D1*
X40429Y13630D1*
X40306Y13545D1*
X40171Y13479D1*
X40029Y13432D1*
X39881Y13407D1*
X39731Y13403D1*
X39583Y13421D1*
X39438Y13460D1*
X39300Y13520D1*
X39173Y13599D1*
X39058Y13696D1*
X38959Y13808D1*
X38877Y13933D1*
X38813Y14069D1*
X38770Y14212D1*
X38748Y14361D1*
Y14510D1*
X38770Y14659D1*
X38812Y14802D1*
X38875Y14938D1*
X38957Y15064D1*
X39056Y15176D1*
X39171Y15273D1*
X39298Y15352D1*
X39435Y15413D1*
X39579Y15452D1*
X39728Y15471D1*
X39878Y15467D1*
X40026Y15443D1*
X40168Y15397D1*
X40303Y15330D1*
X40427Y15246D1*
X40537Y15144D1*
X40631Y15027D1*
X40707Y14898D1*
X40764Y14760D1*
X40800Y14614D1*
X40815Y14465D1*
Y14412D1*
X9449Y13459D2*
X8850Y13463D1*
X8779Y13486D1*
X8716Y13526D1*
X8276Y13967D1*
X8236Y14030D1*
X8213Y14101D1*
X8209Y14250D1*
X8213Y14774D1*
X8236Y14845D1*
X8276Y14908D1*
X8717Y15348D1*
X8780Y15388D1*
X8851Y15411D1*
X9000Y15415D1*
X9524Y15411D1*
X9595Y15388D1*
X9658Y15348D1*
X10098Y14907D1*
X10138Y14844D1*
X10161Y14773D1*
X10165Y14624D1*
X10161Y14100D1*
X10138Y14029D1*
X10098Y13966D1*
X9657Y13526D1*
X9594Y13486D1*
X9523Y13463D1*
X9449Y13459D1*
X39035Y30912D2*
X39017Y30788D1*
X38976Y30671D1*
X38912Y30563D1*
X38828Y30471D1*
X38728Y30397D1*
X38615Y30343D1*
X38494Y30314D1*
X38369Y30309D1*
X38246Y30328D1*
X38129Y30371D1*
X38023Y30437D1*
X37932Y30522D1*
X37859Y30624D1*
X37808Y30738D1*
X37781Y30860D1*
X37778Y30984D1*
X37799Y31107D1*
X37845Y31223D1*
X37913Y31328D1*
X37999Y31418D1*
X38102Y31489D1*
X38217Y31538D1*
X38339Y31563D1*
X38464Y31564D1*
X38587Y31540D1*
X38702Y31492D1*
X38806Y31423D1*
X38894Y31334D1*
X38962Y31230D1*
X39009Y31115D1*
X39033Y30992D1*
X39035Y30912D1*
X10544Y30334D2*
X10255Y30338D1*
X10184Y30361D1*
X10121Y30401D1*
X9900Y30622D1*
X9860Y30685D1*
X9838Y30757D1*
X9834Y30905D1*
X9838Y31119D1*
X9861Y31190D1*
X9901Y31253D1*
X10122Y31474D1*
X10185Y31514D1*
X10257Y31536D1*
X10405Y31540D1*
X10619Y31536D1*
X10690Y31513D1*
X10753Y31473D1*
X10974Y31252D1*
X11014Y31189D1*
X11036Y31117D1*
X11040Y30969D1*
X11036Y30755D1*
X11013Y30684D1*
X10973Y30621D1*
X10752Y30400D1*
X10689Y30360D1*
X10617Y30338D1*
X10544Y30334D1*
X32952Y29928D2*
X32931Y29805D1*
X32883Y29690D1*
X32809Y29590D1*
X32713Y29509D1*
X32602Y29453D1*
X32480Y29425D1*
X32356Y29426D1*
X32235Y29456D1*
X32124Y29513D1*
X32029Y29594D1*
X31957Y29696D1*
X31909Y29811D1*
X31891Y29934D1*
X31901Y30059D1*
X31940Y30177D1*
X32006Y30283D1*
X32094Y30371D1*
X32201Y30436D1*
X32319Y30474D1*
X32444Y30483D1*
X32567Y30463D1*
X32682Y30415D1*
X32783Y30342D1*
X32863Y30247D1*
X32920Y30136D1*
X32949Y30014D1*
X32952Y29928D1*
X32938Y31797D2*
X32895Y31680D1*
X32825Y31577D1*
X32734Y31492D1*
X32625Y31431D1*
X32505Y31397D1*
X32380Y31392D1*
X32258Y31416D1*
X32145Y31468D1*
X32047Y31545D1*
X31969Y31643D1*
X31917Y31756D1*
X31892Y31878D1*
X31896Y32003D1*
X31930Y32123D1*
X31990Y32232D1*
X32075Y32324D1*
X32178Y32393D1*
X32295Y32437D1*
X32419Y32452D1*
X32543Y32438D1*
X32660Y32396D1*
X32764Y32327D1*
X32849Y32236D1*
X32911Y32127D1*
X32945Y32008D1*
X32952Y31921D1*
X32938Y31797D1*
X16938D2*
X16895Y31680D1*
X16825Y31577D1*
X16734Y31492D1*
X16625Y31431D1*
X16505Y31397D1*
X16380Y31392D1*
X16258Y31416D1*
X16145Y31468D1*
X16047Y31545D1*
X15969Y31643D1*
X15917Y31756D1*
X15892Y31878D1*
X15896Y32003D1*
X15930Y32123D1*
X15990Y32232D1*
X16075Y32324D1*
X16178Y32393D1*
X16295Y32437D1*
X16419Y32452D1*
X16543Y32438D1*
X16660Y32396D1*
X16764Y32327D1*
X16849Y32236D1*
X16911Y32127D1*
X16945Y32008D1*
X16952Y31921D1*
X16938Y31797D1*
X16952Y29928D2*
X16931Y29805D1*
X16883Y29690D1*
X16809Y29590D1*
X16713Y29509D1*
X16602Y29453D1*
X16480Y29425D1*
X16356Y29426D1*
X16235Y29456D1*
X16124Y29513D1*
X16029Y29594D1*
X15957Y29696D1*
X15909Y29811D1*
X15891Y29934D1*
X15901Y30059D1*
X15940Y30177D1*
X16006Y30283D1*
X16094Y30371D1*
X16201Y30436D1*
X16319Y30474D1*
X16444Y30483D1*
X16567Y30463D1*
X16682Y30415D1*
X16783Y30342D1*
X16863Y30247D1*
X16920Y30136D1*
X16949Y30014D1*
X16952Y29928D1*
X35350Y23528D2*
X35255Y23433D1*
X35146Y23366D1*
X35192Y23386D1*
X35053Y23349D1*
X34789D1*
X34665Y23379D1*
X34712Y23360D1*
X34588Y23433D1*
X34502Y23519D1*
X29546Y23518D1*
X29423Y23536D1*
X29331Y23575D1*
X29239Y23645D1*
X25408Y27476D1*
X25333Y27509D1*
X25232Y27582D1*
X25152Y27678D1*
X25100Y27791D1*
X25078Y27913D1*
X25088Y28038D1*
X25129Y28155D1*
X25199Y28258D1*
X25293Y28340D1*
X25404Y28396D1*
X25527Y28421D1*
X25651Y28414D1*
X25770Y28375D1*
X25874Y28308D1*
X25959Y28216D1*
X26019Y28094D1*
X29728Y24386D1*
X29894Y24388D1*
X29786Y24514D1*
X29725Y24622D1*
X29682Y24739D1*
X29657Y24862D1*
X29653Y24987D1*
X29668Y25111D1*
X29703Y25230D1*
X29767Y25359D1*
X29706Y25438D1*
X29643Y25546D1*
X29596Y25661D1*
X29566Y25782D1*
X29553Y25907D1*
X29557Y26032D1*
X29579Y26154D1*
X29618Y26273D1*
X29674Y26385D1*
X29768Y26514D1*
X29725Y26591D1*
X29682Y26708D1*
X29657Y26830D1*
X29653Y26955D1*
X29668Y27079D1*
X29703Y27199D1*
X29756Y27312D1*
X29827Y27415D1*
X29913Y27505D1*
X30012Y27581D1*
X30122Y27640D1*
X30240Y27681D1*
X30363Y27703D1*
X30488Y27705D1*
X30611Y27687D1*
X30730Y27649D1*
X30842Y27594D1*
X30944Y27521D1*
X31032Y27433D1*
X31106Y27332D1*
X31163Y27221D1*
X31201Y27102D1*
X31222Y26921D1*
X31212Y26797D1*
X31183Y26675D1*
X31107Y26517D1*
X31217Y26355D1*
X31268Y26241D1*
X31303Y26121D1*
X31322Y25937D1*
X31313Y25812D1*
X31287Y25690D1*
X31244Y25573D1*
X31184Y25463D1*
X31108Y25360D1*
X31163Y25252D1*
X31201Y25133D1*
X31222Y24953D1*
X31212Y24828D1*
X31183Y24707D1*
X31134Y24592D1*
X31068Y24486D1*
X30983Y24389D1*
X34503Y24388D1*
X34588Y24473D1*
X34696Y24540D1*
X34650Y24520D1*
X34789Y24556D1*
X35053D1*
X35177Y24527D1*
X35131Y24545D1*
X35255Y24473D1*
X35351Y24376D1*
Y25454D1*
X35252Y25379D1*
X35139Y25325D1*
X35018Y25294D1*
X34894Y25287D1*
X34770Y25304D1*
X34652Y25346D1*
X34545Y25410D1*
X34452Y25493D1*
X34378Y25593D1*
X34324Y25706D1*
X34293Y25827D1*
X34287Y25951D1*
X34305Y26075D1*
X34347Y26192D1*
X34411Y26299D1*
X34495Y26392D1*
X34595Y26466D1*
X34708Y26519D1*
X34829Y26550D1*
X34954Y26555D1*
X35077Y26537D1*
X35195Y26494D1*
X35301Y26430D1*
X35352Y26387D1*
Y30937D1*
X35359Y31062D1*
X35381Y31185D1*
X35416Y31305D1*
X35465Y31419D1*
X35527Y31528D1*
X35601Y31629D1*
X35686Y31720D1*
X35781Y31801D1*
X35885Y31871D1*
X35996Y31928D1*
X36113Y31972D1*
X36234Y32003D1*
X36358Y32019D1*
X36483Y32021D1*
X36607Y32009D1*
X36729Y31982D1*
X36847Y31941D1*
X36960Y31888D1*
X37066Y31821D1*
X37163Y31743D1*
X37251Y31654D1*
X37328Y31556D1*
X37393Y31449D1*
X37446Y31336D1*
X37485Y31217D1*
X37510Y31095D1*
X37522Y30937D1*
X37527Y27835D1*
X37621Y27917D1*
X37730Y27977D1*
X37850Y28012D1*
X37974Y28022D1*
X38098Y28005D1*
X38215Y27962D1*
X38320Y27895D1*
X38409Y27807D1*
X38477Y27703D1*
X38522Y27586D1*
X38540Y27463D1*
X38532Y27337D1*
X38498Y27218D1*
X38439Y27108D1*
X38358Y27013D1*
X38259Y26937D1*
X38146Y26884D1*
X38025Y26856D1*
X37900Y26855D1*
X37778Y26880D1*
X37664Y26930D1*
X37563Y27004D1*
X37522Y27045D1*
Y25480D1*
X38478Y25478D1*
Y24396D1*
X37521D1*
X37522Y15031D1*
X37515Y14906D1*
X37493Y14783D1*
X37458Y14663D1*
X37409Y14548D1*
X37347Y14440D1*
X37308Y14383D1*
X37204Y14263D1*
X33111Y10170D1*
X33017Y10087D1*
X32915Y10015D1*
X32805Y9955D1*
X32690Y9909D1*
X32569Y9876D1*
X32502Y9864D1*
X32344Y9852D1*
X29295D1*
X29171Y9859D1*
X29047Y9881D1*
X28928Y9916D1*
X28813Y9965D1*
X28704Y10027D1*
X28604Y10101D1*
X28512Y10186D1*
X28431Y10281D1*
X28361Y10385D1*
X28304Y10496D1*
X28260Y10613D1*
X28229Y10734D1*
X28213Y10858D1*
X28211Y10983D1*
X28224Y11107D1*
X28250Y11229D1*
X28291Y11347D1*
X28345Y11460D1*
X28411Y11566D1*
X28489Y11663D1*
X28578Y11751D1*
X28676Y11828D1*
X28783Y11893D1*
X28896Y11946D1*
X29015Y11985D1*
X29137Y12010D1*
X29295Y12022D1*
X31893D1*
X35350Y15478D1*
X35352Y17281D1*
Y23527D1*
X13490Y26344D2*
X13626Y26473D1*
X13693Y26508D1*
X13766Y26524D1*
X14078Y26523D1*
X14151Y26507D1*
X14217Y26472D1*
X14325Y26370D1*
X14473Y26216D1*
X14508Y26150D1*
X14524Y26077D1*
X14523Y25764D1*
X14507Y25691D1*
X14472Y25625D1*
X14370Y25517D1*
X14216Y25369D1*
X14150Y25335D1*
X14077Y25319D1*
X13764D1*
X13691Y25335D1*
X13625Y25370D1*
X13517Y25472D1*
X13490Y25499D1*
X13491Y24417D1*
X13574Y24484D1*
X13685Y24542D1*
X13805Y24577D1*
X13929Y24588D1*
X14053Y24574D1*
X14172Y24536D1*
X14281Y24476D1*
X14377Y24395D1*
X14454Y24298D1*
X14512Y24187D1*
X14546Y24067D1*
X14554Y23933D1*
X15370Y23120D1*
X17062Y23122D1*
X22003D1*
X23004Y24119D1*
X23002Y24222D1*
X22975Y24291D1*
X22953Y24413D1*
X22963Y24538D1*
X23004Y24655D1*
X23074Y24758D1*
X23168Y24840D1*
X23279Y24896D1*
X23402Y24921D1*
X23526Y24914D1*
X23645Y24875D1*
X23749Y24808D1*
X23834Y24716D1*
X23892Y24606D1*
X23922Y24437D1*
X23906Y24313D1*
X23872Y24230D1*
Y23937D1*
X23854Y23814D1*
X23815Y23722D1*
X23745Y23629D1*
X22495Y22379D1*
X22395Y22305D1*
X22302Y22268D1*
X22187Y22252D1*
X15187D1*
X15064Y22270D1*
X14972Y22309D1*
X14879Y22379D1*
X13943Y23316D1*
X13795Y23331D1*
X13675Y23367D1*
X13566Y23427D1*
X13491Y23489D1*
Y15605D1*
X17076Y12019D1*
X18374Y12022D1*
X19437D1*
X19562Y12015D1*
X19685Y11993D1*
X19805Y11958D1*
X19920Y11909D1*
X20028Y11847D1*
X20129Y11773D1*
X20220Y11688D1*
X20301Y11593D1*
X20371Y11489D1*
X20428Y11378D1*
X20472Y11261D1*
X20503Y11140D1*
X20519Y11016D1*
X20521Y10891D1*
X20509Y10767D1*
X20482Y10645D1*
X20441Y10527D1*
X20388Y10414D1*
X20321Y10308D1*
X20243Y10211D1*
X20154Y10123D1*
X20056Y10046D1*
X19949Y9981D1*
X19836Y9928D1*
X19717Y9889D1*
X19595Y9864D1*
X19437Y9852D1*
X16624D1*
X16499Y9859D1*
X16376Y9881D1*
X16256Y9916D1*
X16142Y9965D1*
X16033Y10027D1*
X15977Y10066D1*
X15857Y10170D1*
X11638Y14388D1*
X11555Y14482D1*
X11483Y14584D1*
X11424Y14694D1*
X11377Y14810D1*
X11344Y14930D1*
X11332Y14997D1*
X11321Y15156D1*
Y24417D1*
X11152Y24403D1*
X11030Y24426D1*
X10916Y24476D1*
X10816Y24551D1*
X10737Y24648D1*
X10682Y24760D1*
X10655Y24881D1*
X10656Y25006D1*
X10687Y25127D1*
X10744Y25238D1*
X10826Y25332D1*
X10927Y25405D1*
X11043Y25452D1*
X11166Y25472D1*
X11290Y25462D1*
X11324Y25451D1*
X11321Y26687D1*
Y26855D1*
X10588Y26857D1*
X10352D1*
Y28017D1*
X11320D1*
X11321Y30937D1*
X11328Y31062D1*
X11349Y31185D1*
X11385Y31305D1*
X11434Y31419D1*
X11496Y31528D1*
X11570Y31629D1*
X11655Y31720D1*
X11750Y31801D1*
X11853Y31871D1*
X11964Y31928D1*
X12081Y31972D1*
X12202Y32003D1*
X12326Y32019D1*
X12451Y32021D1*
X12575Y32009D1*
X12698Y31982D1*
X12816Y31941D1*
X12928Y31888D1*
X13034Y31821D1*
X13132Y31743D1*
X13220Y31654D1*
X13297Y31556D1*
X13362Y31449D1*
X13414Y31336D1*
X13454Y31217D1*
X13479Y31095D1*
X13491Y30937D1*
Y26347D1*
X13629Y26475D1*
X13696Y26509D1*
X13789Y26525D1*
X42318Y25914D2*
Y26053D1*
X42347Y26177D1*
X42329Y26131D1*
X42401Y26255D1*
X42588Y26441D1*
X42696Y26508D1*
X42650Y26488D1*
X42789Y26525D1*
X43053D1*
X43177Y26495D1*
X43131Y26514D1*
X43255Y26441D1*
X43441Y26255D1*
X43508Y26146D1*
X43488Y26192D1*
X43525Y26053D1*
Y25789D1*
X43495Y25665D1*
X43514Y25712D1*
X43441Y25588D1*
X43255Y25401D1*
X43146Y25334D1*
X43192Y25354D1*
X43053Y25318D1*
X42789D1*
X42665Y25347D1*
X42712Y25329D1*
X42588Y25401D1*
X42401Y25588D1*
X42334Y25696D1*
X42354Y25650D1*
X42318Y25789D1*
Y25914D1*
X43556Y23928D2*
X43539Y23804D1*
X43498Y23686D1*
X43434Y23579D1*
X43351Y23486D1*
X43252Y23410D1*
X43139Y23356D1*
X43018Y23325D1*
X42894Y23318D1*
X42770Y23336D1*
X42652Y23377D1*
X42545Y23441D1*
X42452Y23525D1*
X42378Y23625D1*
X42324Y23737D1*
X42293Y23858D1*
X42287Y23983D1*
X42305Y24106D1*
X42347Y24224D1*
X42411Y24331D1*
X42495Y24423D1*
X42595Y24498D1*
X42708Y24551D1*
X42829Y24581D1*
X42954Y24587D1*
X43077Y24568D1*
X43195Y24526D1*
X43301Y24461D1*
X43394Y24377D1*
X43467Y24277D1*
X43520Y24164D1*
X43550Y24042D1*
X43556Y23928D1*
X6775Y24060D2*
X6770Y23771D1*
X6748Y23700D1*
X6707Y23637D1*
X6486Y23416D1*
X6423Y23376D1*
X6352Y23354D1*
X6203Y23349D1*
X5990Y23354D1*
X5918Y23376D1*
X5855Y23417D1*
X5635Y23638D1*
X5594Y23701D1*
X5572Y23772D1*
X5568Y23921D1*
X5572Y24134D1*
X5595Y24206D1*
X5635Y24269D1*
X5856Y24489D1*
X5919Y24530D1*
X5991Y24552D1*
X6139Y24556D1*
X6353Y24552D1*
X6424Y24529D1*
X6487Y24489D1*
X6708Y24268D1*
X6748Y24205D1*
X6770Y24133D1*
X6775Y24060D1*
X6794Y25797D2*
X6758Y25678D1*
X6699Y25568D1*
X6619Y25471D1*
X6523Y25392D1*
X6413Y25334D1*
X6293Y25298D1*
X6169Y25286D1*
X6045Y25299D1*
X5925Y25336D1*
X5816Y25395D1*
X5720Y25475D1*
X5641Y25572D1*
X5583Y25682D1*
X5548Y25802D1*
X5536Y25926D1*
X5550Y26050D1*
X5587Y26170D1*
X5647Y26279D1*
X5727Y26375D1*
X5824Y26453D1*
X5935Y26511D1*
X6055Y26545D1*
X6179Y26556D1*
X6303Y26542D1*
X6422Y26505D1*
X6531Y26444D1*
X6627Y26364D1*
X6704Y26266D1*
X6762Y26155D1*
X6796Y26035D1*
X6806Y25921D1*
X6794Y25797D1*
X22060Y14313D2*
X22023Y14193D1*
X21964Y14083D1*
X21885Y13987D1*
X21788Y13908D1*
X21678Y13850D1*
X21559Y13814D1*
X21434Y13802D1*
X21310Y13815D1*
X21191Y13852D1*
X21081Y13911D1*
X20985Y13991D1*
X20907Y14088D1*
X20849Y14198D1*
X20813Y14318D1*
X20802Y14442D1*
X20815Y14566D1*
X20853Y14685D1*
X20912Y14795D1*
X20993Y14890D1*
X21090Y14969D1*
X21200Y15026D1*
X21320Y15061D1*
X21445Y15072D1*
X21569Y15058D1*
X21688Y15020D1*
X21797Y14960D1*
X21892Y14880D1*
X21970Y14782D1*
X22027Y14671D1*
X22062Y14551D1*
X22072Y14437D1*
X22060Y14313D1*
X27965D2*
X27929Y14193D1*
X27870Y14083D1*
X27791Y13987D1*
X27694Y13908D1*
X27584Y13850D1*
X27464Y13814D1*
X27340Y13802D1*
X27216Y13815D1*
X27097Y13852D1*
X26987Y13911D1*
X26891Y13991D1*
X26812Y14088D1*
X26754Y14198D1*
X26719Y14318D1*
X26708Y14442D1*
X26721Y14566D1*
X26758Y14685D1*
X26818Y14795D1*
X26898Y14890D1*
X26995Y14969D1*
X27106Y15026D1*
X27226Y15061D1*
X27350Y15072D1*
X27474Y15058D1*
X27593Y15020D1*
X27702Y14960D1*
X27798Y14880D1*
X27876Y14782D1*
X27933Y14671D1*
X27967Y14551D1*
X27978Y14437D1*
X27965Y14313D1*
X22722Y5412D2*
X22703Y5263D1*
X22656Y5121D1*
X22583Y4990D1*
X22486Y4876D1*
X22370Y4782D1*
X22237Y4712D1*
X22094Y4668D1*
X21945Y4652D1*
X21796Y4665D1*
X21652Y4706D1*
X21518Y4773D1*
X21400Y4865D1*
X21301Y4977D1*
X21225Y5106D1*
X21175Y5248D1*
X21153Y5396D1*
X21160Y5546D1*
X21194Y5691D1*
X21256Y5828D1*
X21267Y5859D1*
X21179Y5980D1*
X21113Y6114D1*
X21070Y6258D1*
X21053Y6407D1*
X21060Y6556D1*
X21093Y6703D1*
X21150Y6841D1*
X21229Y6968D1*
X21260Y7009D1*
X21197Y7144D1*
X21161Y7290D1*
X21153Y7439D1*
X21173Y7588D1*
X21222Y7729D1*
X21296Y7859D1*
X21394Y7973D1*
X21512Y8065D1*
X21645Y8134D1*
X21789Y8176D1*
X21938Y8191D1*
X22087Y8176D1*
X22230Y8134D1*
X22363Y8065D1*
X22481Y7972D1*
X22578Y7858D1*
X22653Y7728D1*
X22701Y7586D1*
X22721Y7438D1*
X22716Y7306D1*
X22683Y7160D1*
X22622Y7023D1*
X22613Y7007D1*
X22692Y6899D1*
X22759Y6765D1*
X22803Y6621D1*
X22821Y6473D1*
X22813Y6312D1*
X22780Y6166D1*
X22722Y6028D1*
X22642Y5902D1*
X22603Y5854D1*
X22672Y5713D1*
X22711Y5569D1*
X22722Y5437D1*
Y5412D1*
X27722D2*
X27703Y5263D1*
X27656Y5121D1*
X27583Y4990D1*
X27486Y4876D1*
X27370Y4782D1*
X27237Y4712D1*
X27094Y4668D1*
X26945Y4652D1*
X26796Y4665D1*
X26652Y4706D1*
X26518Y4773D1*
X26400Y4865D1*
X26301Y4977D1*
X26225Y5106D1*
X26175Y5248D1*
X26153Y5396D1*
X26160Y5546D1*
X26194Y5691D1*
X26256Y5828D1*
X26267Y5859D1*
X26179Y5980D1*
X26113Y6114D1*
X26070Y6258D1*
X26053Y6407D1*
X26060Y6556D1*
X26093Y6703D1*
X26150Y6841D1*
X26229Y6968D1*
X26260Y7009D1*
X26197Y7144D1*
X26161Y7290D1*
X26153Y7439D1*
X26173Y7588D1*
X26222Y7729D1*
X26296Y7859D1*
X26394Y7973D1*
X26512Y8065D1*
X26645Y8134D1*
X26789Y8176D1*
X26938Y8191D1*
X27087Y8176D1*
X27230Y8134D1*
X27363Y8065D1*
X27481Y7972D1*
X27578Y7858D1*
X27653Y7728D1*
X27701Y7586D1*
X27721Y7438D1*
X27716Y7306D1*
X27683Y7160D1*
X27622Y7023D1*
X27613Y7007D1*
X27692Y6899D1*
X27759Y6765D1*
X27803Y6621D1*
X27821Y6473D1*
X27813Y6312D1*
X27780Y6166D1*
X27722Y6028D1*
X27642Y5902D1*
X27603Y5854D1*
X27672Y5713D1*
X27711Y5569D1*
X27722Y5437D1*
Y5412D1*
X44560Y31818D2*
X44439Y31650D1*
X44266Y31470D1*
X44067Y31319D1*
X43847Y31201D1*
X43612Y31117D1*
X43366Y31071D1*
X43117Y31062D1*
X42869Y31092D1*
X42628Y31160D1*
X42401Y31263D1*
X42192Y31400D1*
X42007Y31568D1*
X41850Y31762D1*
X41724Y31977D1*
X41632Y32210D1*
X41578Y32454D1*
X41561Y32703D1*
X41582Y32952D1*
X41642Y33194D1*
X41738Y33425D1*
X41868Y33638D1*
X42029Y33829D1*
X42217Y33993D1*
X42312Y34062D1*
X30312D1*
Y30687D1*
X30251Y30582D1*
X30187Y30562D1*
X27230D1*
X27267Y30481D1*
X27297Y30312D1*
X27281Y30188D1*
X27234Y30073D1*
X27159Y29973D1*
X27061Y29896D1*
X26947Y29846D1*
X26824Y29827D1*
X26700Y29840D1*
X26583Y29884D1*
X26482Y29957D1*
X26402Y30053D1*
X26350Y30166D1*
X26328Y30288D1*
X26338Y30413D1*
X26379Y30530D1*
X26399Y30559D1*
X25574Y30562D1*
X25497Y30452D1*
X24168Y29124D1*
X24156Y29063D1*
X24109Y28948D1*
X24034Y28848D1*
X23936Y28771D1*
X23822Y28721D1*
X23699Y28702D1*
X23575Y28715D1*
X23458Y28759D1*
X23357Y28832D1*
X23277Y28928D1*
X23225Y29041D1*
X23203Y29163D1*
X23213Y29288D1*
X23254Y29405D1*
X23324Y29508D1*
X23418Y29590D1*
X23529Y29646D1*
X23617Y29664D1*
X24517Y30561D1*
X18687Y30562D1*
X18582Y30623D1*
X18562Y30687D1*
Y34062D1*
X6558D1*
X6694Y33964D1*
X6878Y33795D1*
X7033Y33599D1*
X7157Y33382D1*
X7246Y33149D1*
X7299Y32905D1*
X7313Y32687D1*
X7294Y32438D1*
X7237Y32195D1*
X7143Y31963D1*
X7015Y31749D1*
X6856Y31557D1*
X6669Y31391D1*
X6459Y31256D1*
X6231Y31154D1*
X5990Y31089D1*
X5742Y31062D1*
X5492Y31072D1*
X5247Y31121D1*
X5013Y31207D1*
X4794Y31328D1*
X4596Y31481D1*
X4425Y31662D1*
X4314Y31818D1*
X4312Y29812D1*
Y6558D1*
X4445Y6737D1*
X4620Y6914D1*
X4821Y7063D1*
X5041Y7180D1*
X5278Y7261D1*
X5523Y7305D1*
X5773Y7311D1*
X6021Y7279D1*
X6261Y7209D1*
X6487Y7103D1*
X6694Y6964D1*
X6878Y6795D1*
X7033Y6599D1*
X7157Y6382D1*
X7246Y6149D1*
X7299Y5905D1*
X7313Y5687D1*
X7294Y5438D1*
X7237Y5195D1*
X7143Y4963D1*
X7015Y4749D1*
X6856Y4557D1*
X6669Y4391D1*
X6562Y4312D1*
X42316D1*
X42096Y4481D1*
X41925Y4662D1*
X41782Y4867D1*
X41673Y5092D1*
X41600Y5331D1*
X41564Y5578D1*
X41567Y5828D1*
X41607Y6074D1*
X41685Y6311D1*
X41799Y6534D1*
X41945Y6737D1*
X42120Y6914D1*
X42321Y7063D1*
X42541Y7180D1*
X42778Y7261D1*
X43023Y7305D1*
X43273Y7311D1*
X43521Y7279D1*
X43761Y7209D1*
X43987Y7103D1*
X44194Y6964D1*
X44378Y6795D1*
X44533Y6599D1*
X44562Y6562D1*
Y31816D1*
X28206Y18928D2*
X28187Y18779D1*
X28140Y18637D1*
X28067Y18506D1*
X27970Y18392D1*
X27854Y18298D1*
X27721Y18227D1*
X27578Y18184D1*
X27429Y18168D1*
X27280Y18181D1*
X27136Y18221D1*
X27002Y18289D1*
X26884Y18381D1*
X26785Y18493D1*
X26709Y18622D1*
X26659Y18763D1*
X26637Y18912D1*
X26644Y19061D1*
X26679Y19207D1*
X26740Y19343D1*
X26757Y19371D1*
X26667Y19502D1*
X26604Y19638D1*
X26566Y19782D1*
X26552Y19932D1*
X26564Y20081D1*
X26601Y20226D1*
X26661Y20363D1*
X26744Y20488D1*
X26757Y20503D1*
X26690Y20637D1*
X26649Y20781D1*
X26636Y20930D1*
X26652Y21079D1*
X26696Y21222D1*
X26767Y21354D1*
X26861Y21471D1*
X26975Y21567D1*
X27106Y21640D1*
X27248Y21687D1*
X27397Y21706D1*
X27546Y21696D1*
X27691Y21658D1*
X27826Y21594D1*
X27947Y21504D1*
X28048Y21394D1*
X28126Y21266D1*
X28179Y21126D1*
X28204Y20979D1*
X28203Y20846D1*
X28174Y20699D1*
X28118Y20560D1*
X28098Y20524D1*
X28179Y20420D1*
X28250Y20288D1*
X28297Y20146D1*
X28320Y19998D1*
X28316Y19837D1*
X28287Y19690D1*
X28233Y19550D1*
X28157Y19422D1*
X28098Y19349D1*
X28156Y19229D1*
X28195Y19084D1*
X28206Y18953D1*
Y18928D1*
X22196Y18828D2*
X22167Y18707D1*
X22118Y18592D1*
X22052Y18486D1*
X21970Y18392D1*
X21874Y18312D1*
X21767Y18248D1*
X21651Y18202D1*
X21529Y18175D1*
X21404Y18168D1*
X21280Y18181D1*
X21159Y18213D1*
X21045Y18264D1*
X20941Y18332D1*
X20849Y18416D1*
X20771Y18514D1*
X20709Y18622D1*
X20666Y18739D1*
X20642Y18862D1*
X20637Y18987D1*
X20652Y19111D1*
X20687Y19230D1*
X20760Y19372D1*
X20706Y19438D1*
X20643Y19546D1*
X20596Y19661D1*
X20566Y19782D1*
X20553Y19907D1*
X20557Y20032D1*
X20579Y20154D1*
X20618Y20273D1*
X20674Y20385D1*
X20758Y20502D1*
X20709Y20591D1*
X20666Y20708D1*
X20642Y20830D1*
X20637Y20955D1*
X20652Y21079D1*
X20687Y21199D1*
X20740Y21312D1*
X20811Y21415D1*
X20897Y21505D1*
X20996Y21581D1*
X21106Y21640D1*
X21224Y21681D1*
X21347Y21703D1*
X21472Y21705D1*
X21596Y21687D1*
X21715Y21649D1*
X21826Y21594D1*
X21928Y21521D1*
X22017Y21433D1*
X22090Y21332D1*
X22147Y21221D1*
X22185Y21102D1*
X22206Y20921D1*
X22196Y20797D1*
X22167Y20675D1*
X22096Y20524D1*
X22150Y20461D1*
X22217Y20355D1*
X22268Y20241D1*
X22303Y20121D1*
X22322Y19937D1*
X22313Y19812D1*
X22287Y19690D1*
X22244Y19573D1*
X22184Y19463D1*
X22097Y19349D1*
X22147Y19252D1*
X22185Y19133D1*
X22206Y18953D1*
X22196Y18828D1*
X19228Y24828D2*
X19198Y24707D1*
X19150Y24592D1*
X19084Y24486D1*
X19002Y24392D1*
X18906Y24312D1*
X18799Y24248D1*
X18682Y24202D1*
X18560Y24175D1*
X18436Y24168D1*
X18312Y24181D1*
X18191Y24213D1*
X18077Y24264D1*
X17972Y24332D1*
X17880Y24416D1*
X17802Y24514D1*
X17741Y24622D1*
X17697Y24739D1*
X17673Y24862D1*
X17668Y24987D1*
X17684Y25111D1*
X17719Y25230D1*
X17774Y25347D1*
X17706Y25438D1*
X17643Y25546D1*
X17596Y25661D1*
X17566Y25782D1*
X17553Y25907D1*
X17557Y26032D1*
X17579Y26154D1*
X17618Y26273D1*
X17674Y26385D1*
X17779Y26525D1*
X17741Y26591D1*
X17697Y26708D1*
X17673Y26830D1*
X17668Y26955D1*
X17684Y27079D1*
X17719Y27199D1*
X17772Y27312D1*
X17842Y27415D1*
X17928Y27505D1*
X18028Y27581D1*
X18138Y27640D1*
X18256Y27681D1*
X18379Y27703D1*
X18503Y27705D1*
X18627Y27687D1*
X18746Y27649D1*
X18858Y27594D1*
X18959Y27521D1*
X19048Y27433D1*
X19122Y27332D1*
X19178Y27221D1*
X19217Y27102D1*
X19238Y26921D1*
X19228Y26797D1*
X19198Y26675D1*
X19150Y26560D1*
X19115Y26504D1*
X19217Y26355D1*
X19268Y26241D1*
X19303Y26121D1*
X19322Y25937D1*
X19313Y25812D1*
X19287Y25690D1*
X19244Y25573D1*
X19184Y25463D1*
X19117Y25372D1*
X19178Y25252D1*
X19217Y25133D1*
X19238Y24953D1*
X19228Y24828D1*
X40457Y24813D2*
X40415Y24696D1*
X40346Y24592D1*
X40255Y24507D1*
X40147Y24445D1*
X40027Y24410D1*
X39902Y24403D1*
X39780Y24426D1*
X39666Y24476D1*
X39566Y24551D1*
X39487Y24648D1*
X39432Y24760D1*
X39405Y24881D1*
X39406Y25006D1*
X39437Y25127D1*
X39494Y25238D1*
X39576Y25332D1*
X39677Y25405D1*
X39793Y25452D1*
X39916Y25472D1*
X40040Y25462D1*
X40159Y25424D1*
X40266Y25359D1*
X40354Y25272D1*
X40421Y25166D1*
X40460Y25048D1*
X40472Y24937D1*
X40457Y24813D1*
X39245Y23501D2*
X39147Y23445D1*
X39027Y23410D1*
X38902Y23403D1*
X38780Y23426D1*
X38666Y23476D1*
X38566Y23551D1*
X38487Y23648D1*
X38432Y23760D1*
X38405Y23881D1*
X38406Y24006D1*
X38437Y24127D1*
X38494Y24238D1*
X38576Y24332D1*
X38677Y24405D1*
X38793Y24452D1*
X38916Y24472D1*
X39040Y24462D1*
X39159Y24424D1*
X39242Y24373D1*
X40472Y24372D1*
X40529Y24396D1*
X40652Y24421D1*
X40776Y24414D1*
X40895Y24375D1*
X40999Y24308D1*
X41084Y24216D1*
X41142Y24106D1*
X41172Y23937D1*
X41156Y23813D1*
X41109Y23698D1*
X41034Y23598D1*
X40936Y23521D1*
X40822Y23471D1*
X40699Y23452D1*
X40575Y23465D1*
X40477Y23502D1*
X39246D1*
X9880Y24371D2*
X9927Y24405D1*
X10043Y24452D1*
X10166Y24472D1*
X10290Y24462D1*
X10409Y24424D1*
X10516Y24359D1*
X10604Y24272D1*
X10671Y24166D1*
X10710Y24048D1*
X10722Y23937D1*
X10707Y23813D1*
X10665Y23696D1*
X10596Y23592D1*
X10505Y23507D1*
X10397Y23445D1*
X10277Y23410D1*
X10152Y23403D1*
X10030Y23426D1*
X9916Y23476D1*
X9881Y23502D1*
X8652D1*
X8572Y23471D1*
X8449Y23452D1*
X8325Y23465D1*
X8208Y23509D1*
X8107Y23582D1*
X8027Y23678D1*
X7975Y23791D1*
X7953Y23913D1*
X7963Y24038D1*
X8004Y24155D1*
X8074Y24258D1*
X8168Y24340D1*
X8279Y24396D1*
X8402Y24421D1*
X8526Y24414D1*
X8648Y24373D1*
X8646Y25478D1*
X9728D1*
Y24396D1*
X8646D1*
X8652Y24372D1*
X9878D1*
X41477Y28017D2*
X42513D1*
Y26857D1*
X41352D1*
Y28017D1*
X41477D1*
X7528Y27313D2*
X7488Y27195D1*
X7425Y27087D1*
X7340Y26996D1*
X7238Y26924D1*
X7122Y26876D1*
X7000Y26854D1*
X6875Y26858D1*
X6754Y26888D1*
X6642Y26943D1*
X6545Y27021D1*
X6466Y27118D1*
X6409Y27229D1*
X6377Y27350D1*
X6372Y27474D1*
X6393Y27597D1*
X6440Y27713D1*
X6510Y27816D1*
X6601Y27902D1*
X6707Y27967D1*
X6825Y28007D1*
X6949Y28022D1*
X7073Y28010D1*
X7192Y27972D1*
X7300Y27910D1*
X7393Y27826D1*
X7465Y27725D1*
X7515Y27610D1*
X7541Y27437D1*
X7528Y27313D1*
X39781Y15472D2*
D19*
Y13402D1*
X38746Y14437D2*
X40815D1*
X9187Y15415D2*
Y13459D1*
X8209Y14437D2*
X10165D1*
X38406Y31566D2*
Y30308D1*
X37777Y30937D2*
X39035D1*
X10437Y31541D2*
Y30333D1*
X9833Y30937D2*
X11041D1*
X32421Y30483D2*
Y29422D1*
X31891Y29953D2*
X32952D1*
X16421Y30483D2*
Y29422D1*
X15891Y29953D2*
X16952D1*
X34921Y26556D2*
Y25287D1*
X34287Y25921D2*
X34921D1*
X13921Y26525D2*
Y25318D1*
Y25921D2*
X14525D1*
X42921Y24587D2*
Y23318D1*
X42287Y23953D2*
X43556D1*
X6171Y24556D2*
Y23349D1*
X5568Y23953D2*
X6775D1*
X21937Y5437D2*
Y4652D1*
X21152Y5437D2*
X22722D1*
X21937Y8190D2*
Y7406D1*
X21152D2*
X22722D1*
X26937Y5437D2*
Y4652D1*
X26152Y5437D2*
X27722D1*
X26937Y8190D2*
Y7406D1*
X26152D2*
X27722D1*
X27421Y18953D2*
Y18168D1*
X26637Y18953D2*
X28206D1*
X27421Y21706D2*
Y20921D1*
X26637D2*
X28206D1*
X26552Y19937D2*
X28322D1*
X21052Y6437D2*
X22822D1*
X26052D2*
X27822D1*
X37956Y28022D2*
Y26852D1*
Y27437D2*
X38540D1*
X10932Y28017D2*
Y26857D1*
X10352Y27437D2*
X10932D1*
D20*
X16921Y5453D3*
Y7421D3*
X31937Y5437D3*
Y7406D3*
D21*
X19437Y10937D3*
X22390D3*
X25343D3*
X29295D3*
G36*
X36131Y13744D2*
X35556D1*
X35151Y14150D1*
Y14724D1*
X35556Y15130D1*
X36131D1*
X36536Y14724D1*
Y14150D1*
X36131Y13744D1*
G37*
D23*
X39781Y14437D3*
G36*
X9474Y13744D2*
X8900D1*
X8494Y14150D1*
Y14724D1*
X8900Y15130D1*
X9474D1*
X9880Y14724D1*
Y14150D1*
X9474Y13744D1*
G37*
D23*
X13124Y14437D3*
G36*
X36569Y30619D2*
X36305D1*
X36119Y30805D1*
Y31069D1*
X36305Y31255D1*
X36569D1*
X36755Y31069D1*
Y30805D1*
X36569Y30619D1*
G37*
D24*
X38406Y30937D3*
G36*
X10569Y30619D2*
X10305D1*
X10119Y30805D1*
Y31069D1*
X10305Y31255D1*
X10569D1*
X10755Y31069D1*
Y30805D1*
X10569Y30619D1*
G37*
D24*
X12406Y30937D3*
D25*
X32421Y29953D3*
Y31921D3*
X16421D3*
Y29953D3*
G36*
X35240Y24085D2*
Y23821D1*
X35053Y23634D1*
X34789D1*
X34603Y23821D1*
Y24085D1*
X34789Y24271D1*
X35053D1*
X35240Y24085D1*
G37*
D26*
X34921Y25921D3*
G36*
X13603Y25789D2*
Y26053D1*
X13789Y26240D1*
X14053D1*
X14240Y26053D1*
Y25789D1*
X14053Y25603D1*
X13789D1*
X13603Y25789D1*
G37*
D26*
X13921Y23953D3*
G36*
X42603Y25789D2*
Y26053D1*
X42789Y26240D1*
X43053D1*
X43240Y26053D1*
Y25789D1*
X43053Y25603D1*
X42789D1*
X42603Y25789D1*
G37*
D26*
X42921Y23953D3*
G36*
X6490Y24085D2*
Y23821D1*
X6303Y23634D1*
X6039D1*
X5853Y23821D1*
Y24085D1*
X6039Y24271D1*
X6303D1*
X6490Y24085D1*
G37*
D26*
X6171Y25921D3*
X21437Y14437D3*
X27343D3*
D20*
X21937Y5437D3*
Y7406D3*
X26937Y5437D3*
Y7406D3*
D28*
X19319Y31441D3*
X19713Y33007D3*
X20106Y31441D3*
X20500Y33007D3*
X20894Y31441D3*
X21287Y33007D3*
X21681Y31441D3*
X22075Y33007D3*
X22469Y31441D3*
X22862Y33007D3*
X23256Y31441D3*
X23650Y33007D3*
X24043Y31441D3*
X24437Y33007D3*
X24831Y31441D3*
X25224Y33007D3*
X25618Y31441D3*
X26012Y33007D3*
X26406Y31441D3*
X26799Y33007D3*
X27193Y31441D3*
X27587Y33007D3*
X27980Y31441D3*
X28374Y33007D3*
X28768Y31441D3*
X29161Y33007D3*
X29555Y31441D3*
D20*
X27421Y18953D3*
Y20921D3*
X21421Y18953D3*
Y20921D3*
X18453Y24953D3*
Y26921D3*
X30437Y24953D3*
Y26921D3*
D29*
X21437Y19937D3*
X27437D3*
X30437Y25937D3*
X18437D3*
X16937Y6437D3*
X21937D3*
X26937D3*
X31937D3*
D30*
X39937Y24937D3*
X38937Y23937D3*
D31*
X37937Y24937D3*
D30*
X11187D3*
X10187Y23937D3*
D31*
X9187Y24937D3*
D34*
X41932Y27437D3*
D35*
X37956D3*
D34*
X10932D3*
D35*
X6956D3*
M02*
