G04 DipTrace 2.3.1.0*
%INTop.gbr*%
%MOIN*%
%ADD13C,0.08*%
%ADD14C,0.03*%
%ADD15C,0.02*%
%ADD16C,0.04*%
%ADD20C,0.1*%
%ADD21O,0.1X0.15*%
%ADD22R,0.063X0.0709*%
%ADD23C,0.15*%
%ADD24C,0.0689*%
%ADD25C,0.0492*%
%ADD26C,0.07*%
%ADD27R,0.0787X0.0236*%
%ADD28O,0.04X0.08*%
%ADD29C,0.12*%
%ADD30C,0.05*%
%ADD31R,0.0512X0.0512*%
%ADD32R,0.0591X0.0512*%
%ADD33R,0.0512X0.0591*%
%ADD34R,0.0591X0.0591*%
%ADD35C,0.06*%
%FSLAX44Y44*%
G04*
G70*
G90*
G75*
G01*
%LNTop*%
%LPD*%
X21937Y7406D2*
D13*
Y5437D1*
X26937Y7406D2*
Y5437D1*
X27421Y20921D2*
Y18953D1*
X27437Y19937D2*
Y18969D1*
X27421Y18953D1*
X26937Y6437D2*
Y5437D1*
X21937Y6437D2*
Y5437D1*
X24539Y24437D2*
D14*
X24562D1*
X22312Y24062D2*
D3*
X24437Y27937D2*
D3*
X25687Y29562D2*
Y29563D1*
X26812Y29562D2*
Y29563D1*
X23437Y25937D2*
D15*
X22937D1*
X22311Y25311D1*
Y24811D1*
X21421Y20921D2*
X21437Y20937D1*
Y24437D1*
X21811Y24811D1*
X22311D1*
X21421Y20921D2*
D13*
Y18953D1*
X21437Y19937D2*
Y18969D1*
X21421Y18953D1*
X23437Y26437D2*
D15*
X24187D1*
X24687Y25937D1*
X25563D1*
X22311Y27063D2*
X22937Y26437D1*
X23437D1*
X25563Y25937D2*
X26437D1*
X26687Y26187D1*
Y26189D1*
X27561Y27063D1*
X24831Y31441D2*
Y31086D1*
X24055Y30311D1*
X24054Y30312D1*
X23061D1*
X25687Y30311D2*
X24055D1*
X22311Y27811D2*
X23687Y29187D1*
X21681Y31441D2*
D16*
Y30150D1*
X18453Y26921D1*
X22313Y30312D2*
X21681D1*
Y30150D1*
X18453Y26921D2*
D13*
Y24953D1*
X18437Y25937D2*
Y26906D1*
X18453Y26921D1*
X28063Y30312D2*
D15*
Y28313D1*
X27561Y27811D1*
X28063Y30312D2*
X27187Y31188D1*
Y31435D1*
X27193Y31441D1*
X26812Y30312D2*
Y30311D1*
X28768Y31441D2*
D16*
Y30355D1*
X28811Y30312D1*
Y28547D1*
X30437Y26921D1*
D13*
Y24953D1*
Y25937D2*
Y24953D1*
X16921Y7421D2*
X18874D1*
X22390Y10937D1*
Y13484D1*
X21437Y14437D1*
X16921Y7421D2*
Y5453D1*
X16937Y6437D2*
Y5469D1*
X16921Y5453D1*
X25343Y10937D2*
Y12437D1*
X27343Y14437D1*
X31937Y7406D2*
X28874D1*
X25343Y10937D1*
X31937Y7406D2*
Y5437D1*
Y6437D2*
Y5437D1*
X16421Y31921D2*
D16*
X18171D1*
X19257Y33007D1*
X19713D1*
X20500D1*
X16421Y31921D2*
D15*
Y33421D1*
X16437Y33437D1*
X16421Y31921D2*
D13*
X13390D1*
X12406Y30937D1*
X11937Y22937D2*
D14*
X11935D1*
X20894Y31441D2*
D16*
Y31894D1*
X21250Y32250D1*
X22075D1*
X22469D1*
X25618D1*
X29555D1*
X30625D1*
X30953Y31921D1*
X32421D1*
X22075Y33007D2*
Y32250D1*
X22469Y31441D2*
Y32250D1*
X25618Y31441D2*
Y32250D1*
X29555Y31441D2*
Y32250D1*
X32421Y31921D2*
D13*
X35453D1*
X36437Y30937D1*
X36937Y22937D2*
D14*
D3*
X26799Y33007D2*
D15*
Y33575D1*
X26437Y33937D1*
X24437D1*
X17685D1*
X17185Y33437D1*
X24437Y33007D2*
Y33937D1*
X11187Y22937D2*
D14*
X9185D1*
Y24935D1*
X9187Y24937D1*
X6956Y27437D2*
X7687D1*
X10187Y24937D1*
Y23937D1*
X6171Y25921D2*
Y26652D1*
X6956Y27437D1*
X8437Y22937D2*
Y23937D1*
X25563Y26437D2*
D15*
X24937D1*
X24687Y26687D1*
Y27085D1*
X25539Y27937D1*
X37937Y24937D2*
D14*
X35906D1*
X34921Y23953D1*
X25562Y27937D2*
X25539D1*
X41932Y27437D2*
X41437D1*
X38937Y24937D1*
Y23937D1*
X42921Y25921D2*
Y26448D1*
X41932Y27437D1*
X40687Y23937D2*
Y22939D1*
X40685Y22937D1*
X37685D2*
X39937D1*
Y24937D2*
Y22937D1*
X23437Y25437D2*
D15*
Y24437D1*
X11187Y24937D2*
D14*
X12937D1*
X13921Y23953D1*
X23437Y24437D2*
D3*
D16*
X26812Y30312D3*
X23687Y29187D3*
X8437Y23937D3*
X11937Y22937D3*
X23437Y24437D3*
X36937Y22937D3*
X40687Y23937D3*
X25562Y27937D3*
X24562Y24437D3*
X22312Y24062D3*
X25687Y29562D3*
X26812D3*
X24437Y27937D3*
D20*
X16921Y5453D3*
Y7421D3*
X31937Y5437D3*
Y7406D3*
D21*
X19437Y10937D3*
X22390D3*
X25343D3*
X29295D3*
D22*
X25539Y27937D3*
X24437D3*
X24539Y24437D3*
X23437D3*
G36*
X36131Y13744D2*
X35556D1*
X35151Y14150D1*
Y14724D1*
X35556Y15130D1*
X36131D1*
X36536Y14724D1*
Y14150D1*
X36131Y13744D1*
G37*
D23*
X39781Y14437D3*
G36*
X9474Y13744D2*
X8900D1*
X8494Y14150D1*
Y14724D1*
X8900Y15130D1*
X9474D1*
X9880Y14724D1*
Y14150D1*
X9474Y13744D1*
G37*
D23*
X13124Y14437D3*
G36*
X36569Y30619D2*
X36305D1*
X36119Y30805D1*
Y31069D1*
X36305Y31255D1*
X36569D1*
X36755Y31069D1*
Y30805D1*
X36569Y30619D1*
G37*
D24*
X38406Y30937D3*
G36*
X10569Y30619D2*
X10305D1*
X10119Y30805D1*
Y31069D1*
X10305Y31255D1*
X10569D1*
X10755Y31069D1*
Y30805D1*
X10569Y30619D1*
G37*
D24*
X12406Y30937D3*
D25*
X32421Y29953D3*
Y31921D3*
X16421D3*
Y29953D3*
G36*
X35240Y24085D2*
Y23821D1*
X35053Y23634D1*
X34789D1*
X34603Y23821D1*
Y24085D1*
X34789Y24271D1*
X35053D1*
X35240Y24085D1*
G37*
D26*
X34921Y25921D3*
G36*
X13603Y25789D2*
Y26053D1*
X13789Y26240D1*
X14053D1*
X14240Y26053D1*
Y25789D1*
X14053Y25603D1*
X13789D1*
X13603Y25789D1*
G37*
D26*
X13921Y23953D3*
G36*
X42603Y25789D2*
Y26053D1*
X42789Y26240D1*
X43053D1*
X43240Y26053D1*
Y25789D1*
X43053Y25603D1*
X42789D1*
X42603Y25789D1*
G37*
D26*
X42921Y23953D3*
G36*
X6490Y24085D2*
Y23821D1*
X6303Y23634D1*
X6039D1*
X5853Y23821D1*
Y24085D1*
X6039Y24271D1*
X6303D1*
X6490Y24085D1*
G37*
D26*
X6171Y25921D3*
X21437Y14437D3*
X27343D3*
D20*
X21937Y5437D3*
Y7406D3*
X26937Y5437D3*
Y7406D3*
D27*
X23437Y26937D3*
Y26437D3*
Y25937D3*
Y25437D3*
X25563D3*
Y25937D3*
Y26437D3*
Y26937D3*
D28*
X19319Y31441D3*
X19713Y33007D3*
X20106Y31441D3*
X20500Y33007D3*
X20894Y31441D3*
X21287Y33007D3*
X21681Y31441D3*
X22075Y33007D3*
X22469Y31441D3*
X22862Y33007D3*
X23256Y31441D3*
X23650Y33007D3*
X24043Y31441D3*
X24437Y33007D3*
X24831Y31441D3*
X25224Y33007D3*
X25618Y31441D3*
X26012Y33007D3*
X26406Y31441D3*
X26799Y33007D3*
X27193Y31441D3*
X27587Y33007D3*
X27980Y31441D3*
X28374Y33007D3*
X28768Y31441D3*
X29161Y33007D3*
X29555Y31441D3*
D20*
X27421Y18953D3*
Y20921D3*
X21421Y18953D3*
Y20921D3*
X18453Y24953D3*
Y26921D3*
X30437Y24953D3*
Y26921D3*
D29*
X21437Y19937D3*
X27437D3*
X30437Y25937D3*
X18437D3*
X16937Y6437D3*
X21937D3*
X26937D3*
X31937D3*
D30*
X39937Y24937D3*
X38937Y23937D3*
D31*
X37937Y24937D3*
D30*
X11187D3*
X10187Y23937D3*
D31*
X9187Y24937D3*
D32*
X22311Y24063D3*
Y24811D3*
Y27811D3*
Y27063D3*
D33*
X22313Y30312D3*
X23061D3*
D32*
X25687Y30311D3*
Y29563D3*
X27561Y27811D3*
Y27063D3*
D33*
X28811Y30312D3*
X28063D3*
D32*
X26812Y30311D3*
Y29563D3*
D33*
X36937Y22937D3*
X37685D3*
X11187D3*
X11935D3*
X39937D3*
X40685D3*
X8437D3*
X9185D3*
X16437Y33437D3*
X17185D3*
D34*
X41932Y27437D3*
D35*
X37956D3*
D34*
X10932D3*
D35*
X6956D3*
M02*
