G04 DipTrace 2.3.1.0*
%INTopAssy.gbr*%
%MOIN*%
%ADD78C,0.0077*%
%ADD79C,0.0278*%
%FSLAX44Y44*%
G04*
G70*
G90*
G75*
G01*
%LNTopAssy*%
%LPD*%
X8516Y6826D2*
D79*
X8343Y6741D1*
X8172Y6568D1*
X8084Y6397D1*
X7999Y6138D1*
Y5706D1*
X8084Y5450D1*
X8172Y5277D1*
X8343Y5105D1*
X8516Y5018D1*
X8860D1*
X9031Y5105D1*
X9205Y5277D1*
X9290Y5450D1*
X9376Y5706D1*
Y6138D1*
X9290Y6397D1*
X9205Y6568D1*
X9031Y6741D1*
X8860Y6826D1*
X8516D1*
X9931D2*
Y5018D1*
X10487Y6826D2*
X10573Y6741D1*
X10660Y6826D1*
X10573Y6914D1*
X10487Y6826D1*
X10573Y6224D2*
Y5018D1*
X11216Y6224D2*
X11734Y5018D1*
X12249Y6224D1*
X12805Y6826D2*
X12890Y6741D1*
X12978Y6826D1*
X12890Y6914D1*
X12805Y6826D1*
X12890Y6224D2*
Y5018D1*
X14566Y6224D2*
Y5018D1*
Y5965D2*
X14395Y6138D1*
X14222Y6224D1*
X13965D1*
X13792Y6138D1*
X13621Y5965D1*
X13534Y5706D1*
Y5535D1*
X13621Y5277D1*
X13792Y5105D1*
X13965Y5018D1*
X14222D1*
X14395Y5105D1*
X14566Y5277D1*
X13398Y33677D2*
D78*
X13542Y33342D1*
X13685Y33677D1*
X13863Y33390D2*
X13840Y33366D1*
X13863Y33342D1*
X13888Y33366D1*
X13863Y33390D1*
X14042Y33748D2*
X14090Y33773D1*
X14162Y33844D1*
Y33342D1*
X14340Y33390D2*
X14316Y33366D1*
X14340Y33342D1*
X14365Y33366D1*
X14340Y33390D1*
X14663Y33844D2*
X14591Y33820D1*
X14543Y33748D1*
X14519Y33629D1*
Y33557D1*
X14543Y33438D1*
X14591Y33366D1*
X14663Y33342D1*
X14710D1*
X14782Y33366D1*
X14830Y33438D1*
X14854Y33557D1*
Y33629D1*
X14830Y33748D1*
X14782Y33820D1*
X14710Y33844D1*
X14663D1*
X14830Y33748D2*
X14543Y33438D1*
X31120Y33885D2*
Y33383D1*
X31288D1*
X31360Y33407D1*
X31408Y33455D1*
X31432Y33503D1*
X31455Y33574D1*
Y33694D1*
X31432Y33766D1*
X31408Y33813D1*
X31360Y33861D1*
X31288Y33885D1*
X31120D1*
X31610D2*
Y33383D1*
X31764Y33885D2*
X31955Y33646D1*
Y33383D1*
X32147Y33885D2*
X31955Y33646D1*
X32787Y33718D2*
Y33478D1*
X32811Y33407D1*
X32859Y33383D1*
X32931D1*
X32978Y33407D1*
X33050Y33478D1*
Y33718D2*
Y33383D1*
X33468Y33646D2*
X33444Y33694D1*
X33372Y33718D1*
X33300D1*
X33228Y33694D1*
X33205Y33646D1*
X33228Y33598D1*
X33276Y33574D1*
X33396Y33550D1*
X33444Y33526D1*
X33468Y33478D1*
Y33455D1*
X33444Y33407D1*
X33372Y33383D1*
X33300D1*
X33228Y33407D1*
X33205Y33455D1*
X33622Y33574D2*
X33909D1*
Y33622D1*
X33885Y33670D1*
X33861Y33694D1*
X33813Y33718D1*
X33741D1*
X33694Y33694D1*
X33646Y33646D1*
X33622Y33574D1*
Y33526D1*
X33646Y33455D1*
X33694Y33407D1*
X33741Y33383D1*
X33813D1*
X33861Y33407D1*
X33909Y33455D1*
X34669Y33718D2*
X34621Y33694D1*
X34573Y33646D1*
X34549Y33574D1*
Y33526D1*
X34573Y33455D1*
X34621Y33407D1*
X34669Y33383D1*
X34741D1*
X34789Y33407D1*
X34836Y33455D1*
X34860Y33526D1*
Y33574D1*
X34836Y33646D1*
X34789Y33694D1*
X34741Y33718D1*
X34669D1*
X35015D2*
Y33383D1*
Y33622D2*
X35087Y33694D1*
X35135Y33718D1*
X35206D1*
X35254Y33694D1*
X35278Y33622D1*
Y33383D1*
X35432Y33885D2*
Y33383D1*
X35611Y33718D2*
X35754Y33383D1*
X35707Y33287D1*
X35659Y33239D1*
X35611Y33215D1*
X35587D1*
X35898Y33718D2*
X35754Y33383D1*
X37181Y6635D2*
X36870D1*
Y6133D1*
X37181D1*
X36870Y6396D2*
X37062D1*
X37335Y6468D2*
X37479Y6133D1*
X37622Y6468D1*
X38064D2*
Y6133D1*
Y6396D2*
X38016Y6444D1*
X37968Y6468D1*
X37897D1*
X37849Y6444D1*
X37801Y6396D1*
X37777Y6324D1*
Y6276D1*
X37801Y6205D1*
X37849Y6157D1*
X37897Y6133D1*
X37968D1*
X38016Y6157D1*
X38064Y6205D1*
X38218Y6468D2*
Y6133D1*
Y6372D2*
X38290Y6444D1*
X38338Y6468D1*
X38409D1*
X38457Y6444D1*
X38481Y6372D1*
Y6133D1*
X35229Y5516D2*
X35205Y5563D1*
X35157Y5611D1*
X35110Y5635D1*
X35014D1*
X34966Y5611D1*
X34919Y5563D1*
X34894Y5516D1*
X34870Y5444D1*
Y5324D1*
X34894Y5253D1*
X34919Y5205D1*
X34966Y5157D1*
X35014Y5133D1*
X35110D1*
X35157Y5157D1*
X35205Y5205D1*
X35229Y5253D1*
X35384Y5635D2*
Y5133D1*
Y5372D2*
X35455Y5444D1*
X35504Y5468D1*
X35575D1*
X35623Y5444D1*
X35647Y5372D1*
Y5133D1*
X36088Y5468D2*
Y5133D1*
Y5396D2*
X36040Y5444D1*
X35992Y5468D1*
X35921D1*
X35873Y5444D1*
X35825Y5396D1*
X35801Y5324D1*
Y5276D1*
X35825Y5205D1*
X35873Y5157D1*
X35921Y5133D1*
X35992D1*
X36040Y5157D1*
X36088Y5205D1*
X36314Y5635D2*
Y5228D1*
X36338Y5157D1*
X36386Y5133D1*
X36434D1*
X36242Y5468D2*
X36410D1*
X36588D2*
X36851D1*
X36588Y5133D1*
X36851D1*
X37005Y5635D2*
X37029Y5611D1*
X37053Y5635D1*
X37029Y5659D1*
X37005Y5635D1*
X37029Y5468D2*
Y5133D1*
X37208Y5468D2*
X37352Y5133D1*
X37495Y5468D1*
X37936D2*
Y5133D1*
Y5396D2*
X37888Y5444D1*
X37840Y5468D1*
X37769D1*
X37721Y5444D1*
X37673Y5396D1*
X37649Y5324D1*
Y5276D1*
X37673Y5205D1*
X37721Y5157D1*
X37769Y5133D1*
X37840D1*
X37888Y5157D1*
X37936Y5205D1*
X38377Y5444D2*
Y5061D1*
X38353Y4990D1*
X38330Y4965D1*
X38282Y4942D1*
X38210D1*
X38162Y4965D1*
X38377Y5372D2*
X38330Y5420D1*
X38282Y5444D1*
X38210D1*
X38162Y5420D1*
X38114Y5372D1*
X38090Y5300D1*
Y5252D1*
X38114Y5181D1*
X38162Y5133D1*
X38210Y5109D1*
X38282D1*
X38330Y5133D1*
X38377Y5181D1*
X38532Y5635D2*
X38555Y5611D1*
X38580Y5635D1*
X38555Y5659D1*
X38532Y5635D1*
X38555Y5468D2*
Y5133D1*
X39021Y5468D2*
Y5133D1*
Y5396D2*
X38973Y5444D1*
X38925Y5468D1*
X38854D1*
X38806Y5444D1*
X38758Y5396D1*
X38734Y5324D1*
Y5276D1*
X38758Y5205D1*
X38806Y5157D1*
X38854Y5133D1*
X38925D1*
X38973Y5157D1*
X39021Y5205D1*
X39175Y5468D2*
Y5133D1*
Y5372D2*
X39247Y5444D1*
X39295Y5468D1*
X39367D1*
X39415Y5444D1*
X39438Y5372D1*
Y5133D1*
X39593Y5468D2*
Y5133D1*
Y5372D2*
X39665Y5444D1*
X39713Y5468D1*
X39784D1*
X39832Y5444D1*
X39856Y5372D1*
Y5133D1*
X40010Y5635D2*
X40034Y5611D1*
X40058Y5635D1*
X40034Y5659D1*
X40010Y5635D1*
X40034Y5468D2*
Y5133D1*
X40476Y5396D2*
X40452Y5444D1*
X40380Y5468D1*
X40308D1*
X40237Y5444D1*
X40213Y5396D1*
X40237Y5348D1*
X40285Y5324D1*
X40404Y5300D1*
X40452Y5276D1*
X40476Y5228D1*
Y5205D1*
X40452Y5157D1*
X40380Y5133D1*
X40308D1*
X40237Y5157D1*
X40213Y5205D1*
M02*
