G04 DipTrace 3.3.1.3*
G04 Bottom.gbr*
%MOMM*%
G04 #@! TF.FileFunction,Copper,L2,Bot*
G04 #@! TF.Part,Single*
%AMOUTLINE0*
4,1,8,
4.6194,1.91343,
4.6194,-1.91343,
1.91343,-4.6194,
-1.91343,-4.6194,
-4.6194,-1.91343,
-4.6194,1.91343,
-1.91343,4.6194,
1.91343,4.6194,
4.6194,1.91343,
0*%
G04 #@! TA.AperFunction,Conductor*
%ADD13C,4.0*%
G04 #@! TA.AperFunction,ComponentPad*
%ADD14C,2.0*%
G04 #@! TA.AperFunction,Conductor*
%ADD15C,2.5*%
G04 #@! TA.AperFunction,CopperBalancing*
%ADD16C,0.635*%
%ADD17C,0.5*%
G04 #@! TA.AperFunction,ComponentPad*
%ADD18C,3.0*%
%ADD19O,2.5X3.5*%
%ADD20R,2.5X3.5*%
%ADD21C,3.5*%
%ADD22R,3.5X3.5*%
%ADD43OUTLINE0*%
%FSLAX35Y35*%
G04*
G71*
G90*
G75*
G01*
G04 Bottom*
%LPD*%
X1922000Y1651500D2*
D13*
X1381000Y2192500D1*
Y11110500D1*
X1922000Y11651500D1*
X21922000D2*
X22397000Y11176500D1*
Y2126500D1*
X21922000Y1651500D1*
X1922000Y11651500D2*
X2256000Y11985500D1*
X3322000D1*
X6207000D1*
X7477000Y10715500D1*
X15859000D1*
X16795000Y11651500D1*
X21922000D1*
X3322000Y11376500D2*
D14*
Y11985500D1*
X9668000Y3401500D2*
D15*
X8620000D1*
X14176000D2*
X15224000D1*
X21668000Y5651500D2*
D13*
X21304000D1*
X20812000Y6143500D1*
X13446000D1*
X10398000D2*
X8366000D1*
Y8628767D1*
X6207000D1*
X9422000Y1651500D2*
D15*
Y1992500D1*
X10525000Y3095500D1*
Y3984500D1*
X10108000Y4401500D1*
X9668000D1*
X14422000Y1651500D2*
Y1992500D1*
X13319000Y3095500D1*
Y3984500D1*
X13736000Y4401500D1*
X14176000D1*
X2816127Y11639250D2*
D16*
X3101383D1*
X3542650D2*
X6102450D1*
X2816127Y11576083D2*
X3101383D1*
X3542650D2*
X3987593D1*
X4156337D2*
X6165613D1*
X2816127Y11512917D2*
X3101383D1*
X3542650D2*
X3900367D1*
X4243653D2*
X6228780D1*
X2816127Y11449750D2*
X3101383D1*
X3542650D2*
X3864273D1*
X4279747D2*
X6291943D1*
X2816127Y11386583D2*
X3101383D1*
X3542650D2*
X3851603D1*
X4292417D2*
X6355107D1*
X2816127Y11323417D2*
X3108037D1*
X3535997D2*
X3858077D1*
X4285947D2*
X6418270D1*
X16917753D2*
X21027853D1*
X2816127Y11260250D2*
X3135653D1*
X3508380D2*
X3885603D1*
X4258327D2*
X6481437D1*
X16854590D2*
X21027853D1*
X2816127Y11197083D2*
X3198453D1*
X3445490D2*
X3948493D1*
X4195530D2*
X6544600D1*
X16791427D2*
X21027853D1*
X2816127Y11133917D2*
X6607763D1*
X16728263D2*
X21027853D1*
X2816127Y11070750D2*
X6670927D1*
X16665100D2*
X21027853D1*
X2816127Y11007583D2*
X6734090D1*
X16601933D2*
X21027853D1*
X2816127Y10944417D2*
X6797257D1*
X16538770D2*
X21027853D1*
X2816127Y10881250D2*
X6860420D1*
X16475607D2*
X21027853D1*
X2816127Y10818083D2*
X6923583D1*
X16412443D2*
X21027853D1*
X2816127Y10754917D2*
X6986747D1*
X16349280D2*
X21027853D1*
X2805463Y10691750D2*
X7049913D1*
X16286113D2*
X21038610D1*
X1701597Y10628583D2*
X7113077D1*
X16222950D2*
X22076397D1*
X1701597Y10565417D2*
X7176240D1*
X16159697D2*
X22076397D1*
X1701597Y10502250D2*
X7239403D1*
X16096530D2*
X22076397D1*
X1701597Y10439083D2*
X7321070D1*
X16014957D2*
X22076397D1*
X1701597Y10375917D2*
X10867920D1*
X12976063D2*
X22076397D1*
X1701597Y10312750D2*
X10867920D1*
X12976063D2*
X22076397D1*
X1701597Y10249583D2*
X10867920D1*
X12976063D2*
X22076397D1*
X1701597Y10186417D2*
X10867920D1*
X12976063D2*
X22076397D1*
X1701597Y10123250D2*
X10867920D1*
X12976063D2*
X22076397D1*
X1701597Y10060083D2*
X10867920D1*
X12976063D2*
X22076397D1*
X1701597Y9996917D2*
X10867920D1*
X12976063D2*
X22076397D1*
X1701597Y9933750D2*
X10867920D1*
X12976063D2*
X22076397D1*
X1701597Y9870583D2*
X3501877D1*
X3832130D2*
X6041840D1*
X6372183D2*
X10867920D1*
X12976063D2*
X22076397D1*
X1701597Y9807417D2*
X3433153D1*
X3900853D2*
X5973113D1*
X6440907D2*
X10867920D1*
X12976063D2*
X17333350D1*
X17924643D2*
X19873400D1*
X20464603D2*
X22076397D1*
X1701597Y9744250D2*
X3395420D1*
X3938587D2*
X5935380D1*
X6478550D2*
X10867920D1*
X12976063D2*
X17333350D1*
X17924643D2*
X19873400D1*
X20464603D2*
X22076397D1*
X1701597Y9681083D2*
X3376097D1*
X3957910D2*
X5916150D1*
X6497873D2*
X10867920D1*
X12976063D2*
X17333350D1*
X17924643D2*
X19873400D1*
X20464603D2*
X22076397D1*
X1701597Y9617917D2*
X3371540D1*
X3962470D2*
X5911590D1*
X6502430D2*
X10867920D1*
X12976063D2*
X17333350D1*
X17924643D2*
X19873400D1*
X20464603D2*
X22076397D1*
X1701597Y9554750D2*
X3381020D1*
X3952990D2*
X5920980D1*
X6493040D2*
X10867920D1*
X12976063D2*
X17333350D1*
X17924643D2*
X19873400D1*
X20464603D2*
X22076397D1*
X1701597Y9491583D2*
X3405993D1*
X3928017D2*
X5945953D1*
X6468067D2*
X10867920D1*
X12976063D2*
X17333350D1*
X17924643D2*
X19873400D1*
X20464603D2*
X22076397D1*
X1701597Y9428417D2*
X3451930D1*
X3882077D2*
X5991983D1*
X6422040D2*
X10867920D1*
X12976063D2*
X17333350D1*
X17924643D2*
X19873400D1*
X20464603D2*
X22076397D1*
X1701597Y9365250D2*
X3541253D1*
X3792753D2*
X6081303D1*
X6332717D2*
X10867920D1*
X12976063D2*
X17333350D1*
X17924643D2*
X19873400D1*
X20464603D2*
X22076397D1*
X1701597Y9302083D2*
X10867920D1*
X12976063D2*
X17333350D1*
X17924643D2*
X19873400D1*
X20464603D2*
X22076397D1*
X1701597Y9238917D2*
X10867920D1*
X12976063D2*
X22076397D1*
X1701597Y9175750D2*
X10867920D1*
X12976063D2*
X22076397D1*
X1701597Y9112583D2*
X10867920D1*
X12976063D2*
X22076397D1*
X1701597Y9049417D2*
X10867920D1*
X12976063D2*
X22076397D1*
X1701597Y8986250D2*
X10867920D1*
X12976063D2*
X22076397D1*
X1701597Y8923083D2*
X6090420D1*
X8482573D2*
X10867920D1*
X12976063D2*
X22076397D1*
X1701597Y8859917D2*
X3371357D1*
X3962650D2*
X5911317D1*
X8585293D2*
X10867920D1*
X12976063D2*
X17547723D1*
X17710267D2*
X20087687D1*
X20250320D2*
X22076397D1*
X1701597Y8796750D2*
X3371357D1*
X3962650D2*
X5911317D1*
X8637977D2*
X10867920D1*
X12976063D2*
X17430510D1*
X17827480D2*
X19970470D1*
X20367533D2*
X22076397D1*
X1701597Y8733583D2*
X3371357D1*
X3962650D2*
X5904390D1*
X8668600D2*
X10867920D1*
X12976063D2*
X17377190D1*
X17880803D2*
X19917150D1*
X20420853D2*
X22076397D1*
X1701597Y8670417D2*
X3371357D1*
X3962650D2*
X5889170D1*
X8683823D2*
X10867920D1*
X12976063D2*
X17347660D1*
X17910333D2*
X19887710D1*
X20450293D2*
X22076397D1*
X1701597Y8607250D2*
X3371357D1*
X3962650D2*
X5887073D1*
X8686647D2*
X10867920D1*
X12976063D2*
X17334627D1*
X17923367D2*
X19874587D1*
X20463420D2*
X22076397D1*
X1701597Y8544083D2*
X3371357D1*
X3962650D2*
X5898010D1*
X8686647D2*
X10867920D1*
X12976063D2*
X17335627D1*
X17922363D2*
X19875680D1*
X20462327D2*
X22076397D1*
X1701597Y8480917D2*
X3371357D1*
X3962650D2*
X5911317D1*
X8686647D2*
X10867920D1*
X12976063D2*
X17351030D1*
X17906960D2*
X19891083D1*
X20446920D2*
X22076397D1*
X1701597Y8417750D2*
X3371357D1*
X3962650D2*
X5911317D1*
X8686647D2*
X10285953D1*
X10510020D2*
X10867920D1*
X12976063D2*
X13333960D1*
X13558030D2*
X17383480D1*
X17874513D2*
X19923440D1*
X20414473D2*
X22076397D1*
X1701597Y8354583D2*
X3371357D1*
X3962650D2*
X5911317D1*
X8686647D2*
X10197270D1*
X10598707D2*
X10867920D1*
X12976063D2*
X13245277D1*
X13646713D2*
X17441997D1*
X17816087D2*
X19981957D1*
X20356050D2*
X22076397D1*
X1701597Y8291417D2*
X8045317D1*
X8686647D2*
X10154157D1*
X10641910D2*
X10867920D1*
X12976063D2*
X13202163D1*
X13689827D2*
X17611710D1*
X17646313D2*
X20151760D1*
X20186303D2*
X22076397D1*
X1701597Y8228250D2*
X8045317D1*
X8686647D2*
X10132647D1*
X10663327D2*
X10867920D1*
X12976063D2*
X13180653D1*
X13711337D2*
X22076397D1*
X1701597Y8165083D2*
X8045317D1*
X8686647D2*
X10127543D1*
X10668433D2*
X10867920D1*
X12976063D2*
X13175550D1*
X13716440D2*
X22076397D1*
X1701597Y8101917D2*
X8045317D1*
X8686647D2*
X10137840D1*
X10658223D2*
X10867920D1*
X12976063D2*
X13185850D1*
X13706230D2*
X22076397D1*
X1701597Y8038750D2*
X8045317D1*
X8686647D2*
X10165460D1*
X10630517D2*
X10867920D1*
X12976063D2*
X13213467D1*
X13678523D2*
X22076397D1*
X1701597Y7975583D2*
X3650993D1*
X3936947D2*
X4413063D1*
X4699017D2*
X5175043D1*
X5460997D2*
X5937020D1*
X6222977D2*
X8045317D1*
X8686647D2*
X10218780D1*
X10577197D2*
X10867920D1*
X12976063D2*
X13266787D1*
X13625203D2*
X17621007D1*
X17906960D2*
X18382983D1*
X18668940D2*
X19145053D1*
X19431010D2*
X19907033D1*
X20192990D2*
X22076397D1*
X1701597Y7912417D2*
X2000523D1*
X2097443D2*
X3599130D1*
X3988810D2*
X4361110D1*
X4750880D2*
X5123180D1*
X5512860D2*
X5885160D1*
X6274837D2*
X8045317D1*
X8686647D2*
X10366437D1*
X10429540D2*
X10867920D1*
X12976063D2*
X13414443D1*
X13477547D2*
X17569143D1*
X17958823D2*
X18331123D1*
X18720893D2*
X19093193D1*
X19482873D2*
X19855173D1*
X20244850D2*
X21619573D1*
X21716400D2*
X22076397D1*
X1701597Y7849250D2*
X1867270D1*
X2230697D2*
X3576890D1*
X4011140D2*
X4338870D1*
X4773120D2*
X5100850D1*
X5535100D2*
X5862920D1*
X6297077D2*
X8045317D1*
X8686647D2*
X10867920D1*
X12976063D2*
X17546903D1*
X17981063D2*
X18308883D1*
X18743133D2*
X19070863D1*
X19505113D2*
X19832933D1*
X20267090D2*
X21486317D1*
X21849657D2*
X22076397D1*
X1701597Y7786083D2*
X1815223D1*
X2282833D2*
X3574793D1*
X4013237D2*
X4336773D1*
X4775217D2*
X5098753D1*
X5537287D2*
X5860733D1*
X6299267D2*
X8045317D1*
X8686647D2*
X10867920D1*
X12976063D2*
X17544717D1*
X17983250D2*
X18306787D1*
X18745230D2*
X19068767D1*
X19507207D2*
X19830747D1*
X20269280D2*
X21434183D1*
X21901790D2*
X22076397D1*
X1701597Y7722917D2*
X1788153D1*
X2309813D2*
X3592113D1*
X3995920D2*
X4354090D1*
X4757897D2*
X5116070D1*
X5519970D2*
X5878050D1*
X6281947D2*
X8045317D1*
X8686647D2*
X10867920D1*
X12976063D2*
X17562033D1*
X17965933D2*
X18324103D1*
X18727910D2*
X19086083D1*
X19489890D2*
X19848063D1*
X20251960D2*
X21407203D1*
X21928770D2*
X22076397D1*
X1701597Y7659750D2*
X1778493D1*
X2319473D2*
X3635317D1*
X3952623D2*
X4397387D1*
X4714603D2*
X5159363D1*
X5476673D2*
X5921343D1*
X6238653D2*
X8045317D1*
X8686647D2*
X10867920D1*
X12976063D2*
X17605330D1*
X17922637D2*
X18367307D1*
X18684617D2*
X19129377D1*
X19446687D2*
X19891357D1*
X20208667D2*
X21397450D1*
X21938523D2*
X22076397D1*
X1701597Y7596583D2*
X1784143D1*
X2313913D2*
X3775043D1*
X3813023D2*
X4537020D1*
X4574980D2*
X5299000D1*
X5337020D2*
X6060980D1*
X6098993D2*
X8045317D1*
X8686647D2*
X10867920D1*
X12976063D2*
X17744963D1*
X17783057D2*
X18507033D1*
X18545063D2*
X19269013D1*
X19307017D2*
X20030993D1*
X20069027D2*
X21403103D1*
X21932873D2*
X22076397D1*
X1701597Y7533417D2*
X1806200D1*
X2291767D2*
X8045317D1*
X8686647D2*
X10867920D1*
X12976063D2*
X21425250D1*
X21910813D2*
X22076397D1*
X1701597Y7470250D2*
X1850317D1*
X2247743D2*
X8045317D1*
X8686647D2*
X10867920D1*
X12976063D2*
X21469273D1*
X21866700D2*
X22076397D1*
X1701597Y7407083D2*
X1942100D1*
X2155867D2*
X8045317D1*
X8686647D2*
X10299170D1*
X10496803D2*
X10867920D1*
X12976063D2*
X13347177D1*
X13544813D2*
X21561057D1*
X21774917D2*
X22076397D1*
X1701597Y7343917D2*
X8045317D1*
X8686647D2*
X10202373D1*
X10593693D2*
X10867920D1*
X12976063D2*
X13250380D1*
X13641700D2*
X22076397D1*
X1701597Y7280750D2*
X8045317D1*
X8686647D2*
X10156800D1*
X10639173D2*
X10867920D1*
X12976063D2*
X13204807D1*
X13687183D2*
X22076397D1*
X1701597Y7217583D2*
X8045317D1*
X8686647D2*
X10133830D1*
X10662143D2*
X10867920D1*
X12976063D2*
X13181840D1*
X13710150D2*
X22076397D1*
X1701597Y7154417D2*
X8045317D1*
X8686647D2*
X10127450D1*
X10668613D2*
X10867920D1*
X12976063D2*
X13175367D1*
X13716623D2*
X22076397D1*
X1701597Y7091250D2*
X8045317D1*
X8686647D2*
X10136293D1*
X10659683D2*
X10867920D1*
X12976063D2*
X13184300D1*
X13707690D2*
X22076397D1*
X1701597Y7028083D2*
X8045317D1*
X8686647D2*
X10162360D1*
X10633613D2*
X10867920D1*
X12976063D2*
X13210367D1*
X13681623D2*
X22076397D1*
X1701597Y6964917D2*
X8045317D1*
X8686647D2*
X10212763D1*
X10583210D2*
X10867920D1*
X12976063D2*
X13260770D1*
X13631220D2*
X22076397D1*
X1701597Y6901750D2*
X1957687D1*
X2140373D2*
X8045317D1*
X8686647D2*
X10333257D1*
X10462807D2*
X10867920D1*
X12976063D2*
X13381173D1*
X13510813D2*
X21576643D1*
X21759330D2*
X22076397D1*
X1701597Y6838583D2*
X1855967D1*
X2242000D2*
X8045317D1*
X8686647D2*
X10867920D1*
X12976063D2*
X21475017D1*
X21861050D2*
X22076397D1*
X1701597Y6775417D2*
X1809210D1*
X2288757D2*
X8045317D1*
X8686647D2*
X10867920D1*
X12976063D2*
X21428167D1*
X21907807D2*
X22076397D1*
X1701597Y6712250D2*
X1785420D1*
X2312547D2*
X8045317D1*
X8686647D2*
X10867920D1*
X12976063D2*
X21404470D1*
X21931597D2*
X22076397D1*
X1701597Y6649083D2*
X1778400D1*
X2319657D2*
X8045317D1*
X8686647D2*
X10867920D1*
X12976063D2*
X21397360D1*
X21938613D2*
X22076397D1*
X1701597Y6585917D2*
X1786603D1*
X2311363D2*
X8045317D1*
X8686647D2*
X10867920D1*
X12976063D2*
X21405653D1*
X21930410D2*
X22076397D1*
X1701597Y6522750D2*
X1811853D1*
X2286113D2*
X8045317D1*
X8686647D2*
X10867920D1*
X12976063D2*
X21430810D1*
X21905163D2*
X22076397D1*
X1701597Y6459583D2*
X1860980D1*
X2237077D2*
X8045317D1*
X8686647D2*
X10867920D1*
X12976063D2*
X21479937D1*
X21856037D2*
X22076397D1*
X1701597Y6396417D2*
X1973543D1*
X2124513D2*
X8045317D1*
X10590957D2*
X10867920D1*
X12976063D2*
X13253113D1*
X21004917D2*
X21592503D1*
X21743470D2*
X22076397D1*
X1701597Y6333250D2*
X8045317D1*
X10654850D2*
X10867920D1*
X12976063D2*
X13189130D1*
X21073093D2*
X22076397D1*
X1701597Y6270083D2*
X8045317D1*
X10692040D2*
X10867920D1*
X12976063D2*
X13151943D1*
X21136257D2*
X22076397D1*
X1701597Y6206917D2*
X8045317D1*
X10712183D2*
X10867920D1*
X12976063D2*
X13131800D1*
X21199420D2*
X22076397D1*
X1701597Y6143750D2*
X8045317D1*
X10718653D2*
X10867920D1*
X12976063D2*
X13125330D1*
X21262587D2*
X22076397D1*
X1701597Y6080583D2*
X8051697D1*
X10712273D2*
X10867920D1*
X12976063D2*
X13131710D1*
X21325750D2*
X22076397D1*
X1701597Y6017417D2*
X8071747D1*
X10692220D2*
X10867920D1*
X12976063D2*
X13151760D1*
X21388913D2*
X22076397D1*
X1701597Y5954250D2*
X8108753D1*
X10655307D2*
X10867920D1*
X12976063D2*
X13188767D1*
X21758693D2*
X22076397D1*
X1701597Y5891083D2*
X1931070D1*
X2166897D2*
X8172373D1*
X10591597D2*
X10867920D1*
X12976063D2*
X13252387D1*
X21877730D2*
X22076397D1*
X1701597Y5827917D2*
X1845850D1*
X2252117D2*
X10867920D1*
X12976063D2*
X20676760D1*
X21934420D2*
X22076397D1*
X1701597Y5764750D2*
X1803830D1*
X2294137D2*
X10867920D1*
X12976063D2*
X20739923D1*
X21967507D2*
X22076397D1*
X1701597Y5701583D2*
X1783140D1*
X2314827D2*
X7767503D1*
X7948457D2*
X8529483D1*
X8710530D2*
X10867920D1*
X12976063D2*
X20803090D1*
X21984643D2*
X22076397D1*
X1701597Y5638417D2*
X1778673D1*
X2319290D2*
X7684377D1*
X8031673D2*
X8446357D1*
X8793653D2*
X10867920D1*
X12976063D2*
X15068557D1*
X15379487D2*
X15830537D1*
X16141467D2*
X20866253D1*
X21988380D2*
X22076397D1*
X1701597Y5575250D2*
X1789613D1*
X2308447D2*
X7649377D1*
X8066583D2*
X8411357D1*
X8828653D2*
X10867920D1*
X12976063D2*
X15023530D1*
X15424513D2*
X15785510D1*
X16186493D2*
X20929417D1*
X21979267D2*
X22076397D1*
X1701597Y5512083D2*
X1818140D1*
X2279917D2*
X3714977D1*
X3873053D2*
X4476957D1*
X4635033D2*
X5238937D1*
X5397013D2*
X6000913D1*
X6159083D2*
X7637530D1*
X8078523D2*
X8399507D1*
X8840503D2*
X10867920D1*
X12976063D2*
X15005120D1*
X15442833D2*
X15767100D1*
X16204813D2*
X17684990D1*
X17843067D2*
X18446970D1*
X18605047D2*
X19208947D1*
X19367027D2*
X19970927D1*
X20129003D2*
X20992580D1*
X21956023D2*
X22076397D1*
X1701597Y5448917D2*
X1872920D1*
X2225047D2*
X3624103D1*
X3963927D2*
X4386083D1*
X4725907D2*
X5148063D1*
X5487977D2*
X5910043D1*
X6249957D2*
X7644730D1*
X8071323D2*
X8406710D1*
X8833303D2*
X10867920D1*
X12976063D2*
X15006303D1*
X15441647D2*
X15768377D1*
X16203627D2*
X17594027D1*
X17933940D2*
X18356097D1*
X18695920D2*
X19118077D1*
X19457897D2*
X19880053D1*
X20219970D2*
X21055747D1*
X21914643D2*
X22076397D1*
X1701597Y5385750D2*
X3587007D1*
X4001023D2*
X4348987D1*
X4763003D2*
X5110967D1*
X5524980D2*
X5873037D1*
X6286960D2*
X7673257D1*
X8042703D2*
X8435237D1*
X8804773D2*
X10867920D1*
X12976063D2*
X15027450D1*
X15420503D2*
X15789430D1*
X16182573D2*
X17557020D1*
X17971037D2*
X18319000D1*
X18733017D2*
X19080980D1*
X19494993D2*
X19843050D1*
X20256973D2*
X21129847D1*
X21842183D2*
X22076397D1*
X1701597Y5322583D2*
X3573700D1*
X4014330D2*
X4335680D1*
X4776310D2*
X5097660D1*
X5538290D2*
X5859730D1*
X6300267D2*
X7738427D1*
X7977623D2*
X8500407D1*
X8739603D2*
X10867920D1*
X12976063D2*
X15077307D1*
X15370737D2*
X15839287D1*
X16132717D2*
X17543713D1*
X17984343D2*
X18305693D1*
X18746323D2*
X19067673D1*
X19508303D2*
X19829743D1*
X20270280D2*
X22076397D1*
X1701597Y5259417D2*
X3579533D1*
X4008497D2*
X4341513D1*
X4770477D2*
X5103493D1*
X5532457D2*
X5865563D1*
X6294433D2*
X8836280D1*
X15007703D2*
X17549547D1*
X17978420D2*
X18311527D1*
X18740490D2*
X19073507D1*
X19502470D2*
X19835577D1*
X20264447D2*
X22076397D1*
X1701597Y5196250D2*
X3606330D1*
X3981610D2*
X4368400D1*
X4743680D2*
X5130380D1*
X5505660D2*
X5892360D1*
X6267637D2*
X8835913D1*
X15008067D2*
X17576343D1*
X17951623D2*
X18338323D1*
X18713600D2*
X19100393D1*
X19475670D2*
X19862373D1*
X20237650D2*
X22076397D1*
X1701597Y5133083D2*
X3667490D1*
X3920540D2*
X4429470D1*
X4682520D2*
X5191447D1*
X5444500D2*
X5953427D1*
X6206570D2*
X8835913D1*
X15008067D2*
X17637503D1*
X17890553D2*
X18399483D1*
X18652533D2*
X19161460D1*
X19414513D2*
X19923440D1*
X20176493D2*
X22076397D1*
X1701597Y5069917D2*
X8835913D1*
X15008067D2*
X22076397D1*
X1701597Y5006750D2*
X8835913D1*
X15008067D2*
X22076397D1*
X1701597Y4943583D2*
X8835913D1*
X15008067D2*
X22076397D1*
X1701597Y4880417D2*
X8835913D1*
X15008067D2*
X22076397D1*
X1701597Y4817250D2*
X3371357D1*
X3962650D2*
X5911317D1*
X6502613D2*
X8835913D1*
X15008067D2*
X22076397D1*
X1701597Y4754083D2*
X3371357D1*
X3962650D2*
X5911317D1*
X6502613D2*
X8835913D1*
X15008067D2*
X17507073D1*
X17766870D2*
X20047127D1*
X20306920D2*
X22076397D1*
X1701597Y4690917D2*
X3371357D1*
X3962650D2*
X5911317D1*
X6502613D2*
X8835913D1*
X15008067D2*
X17420120D1*
X17853913D2*
X19960173D1*
X20393873D2*
X22076397D1*
X1701597Y4627750D2*
X3371357D1*
X3962650D2*
X5911317D1*
X6502613D2*
X8835913D1*
X15008067D2*
X17374913D1*
X17899123D2*
X19914963D1*
X20439083D2*
X22076397D1*
X1701597Y4564583D2*
X3371357D1*
X3962650D2*
X5911317D1*
X6502613D2*
X8835913D1*
X15008067D2*
X17350483D1*
X17923550D2*
X19890447D1*
X20463510D2*
X22076397D1*
X1701597Y4501417D2*
X3371357D1*
X3962650D2*
X5911317D1*
X6502613D2*
X8835913D1*
X15008067D2*
X17341460D1*
X17932480D2*
X19881513D1*
X20472533D2*
X22076397D1*
X1701597Y4438250D2*
X3371357D1*
X3962650D2*
X5911317D1*
X6502613D2*
X8835913D1*
X15008067D2*
X17346473D1*
X17927470D2*
X19886527D1*
X20467520D2*
X22076397D1*
X1701597Y4375083D2*
X3371357D1*
X3962650D2*
X5911317D1*
X6502613D2*
X8835913D1*
X15008067D2*
X17366253D1*
X17907780D2*
X19906303D1*
X20447743D2*
X22076397D1*
X1701597Y4311917D2*
X3371357D1*
X3962650D2*
X5911317D1*
X6502613D2*
X8835913D1*
X15008067D2*
X17404627D1*
X17869317D2*
X19944677D1*
X20409370D2*
X22076397D1*
X1701597Y4248750D2*
X8835913D1*
X15008067D2*
X17474807D1*
X17799137D2*
X20014860D1*
X20339187D2*
X22076397D1*
X1701597Y4185583D2*
X8835913D1*
X15008067D2*
X22076397D1*
X1701597Y4122417D2*
X8835913D1*
X15008067D2*
X22076397D1*
X1701597Y4059250D2*
X8835913D1*
X15008067D2*
X22076397D1*
X1701597Y3996083D2*
X8835913D1*
X15008067D2*
X22076397D1*
X1701597Y3932917D2*
X8835913D1*
X15008067D2*
X22076397D1*
X1701597Y3869750D2*
X8835913D1*
X15008067D2*
X22076397D1*
X1701597Y3806583D2*
X3529403D1*
X3804603D2*
X6069457D1*
X6344563D2*
X8835913D1*
X15008067D2*
X22076397D1*
X1701597Y3743417D2*
X3446643D1*
X3887363D2*
X5986603D1*
X6427327D2*
X8835913D1*
X15008067D2*
X17341370D1*
X17932663D2*
X19881330D1*
X20472623D2*
X22076397D1*
X1701597Y3680250D2*
X3402983D1*
X3931023D2*
X5942947D1*
X6471077D2*
X8835913D1*
X15008067D2*
X17341370D1*
X17932663D2*
X19881330D1*
X20472623D2*
X22076397D1*
X1701597Y3617083D2*
X3379560D1*
X3954447D2*
X5919520D1*
X6494500D2*
X8835913D1*
X15008067D2*
X17341370D1*
X17932663D2*
X19881330D1*
X20472623D2*
X22076397D1*
X1701597Y3553917D2*
X3371447D1*
X3962560D2*
X5911410D1*
X6502613D2*
X8835913D1*
X15008067D2*
X17341370D1*
X17932663D2*
X19881330D1*
X20472623D2*
X22076397D1*
X1701597Y3490750D2*
X3377280D1*
X3956727D2*
X5917243D1*
X6496780D2*
X8835913D1*
X15008067D2*
X17341370D1*
X17932663D2*
X19881330D1*
X20472623D2*
X22076397D1*
X1701597Y3427583D2*
X3397970D1*
X3936037D2*
X5937933D1*
X6475997D2*
X8835913D1*
X15008067D2*
X17341370D1*
X17932663D2*
X19881330D1*
X20472623D2*
X22076397D1*
X1701597Y3364417D2*
X3437710D1*
X3896297D2*
X5977673D1*
X6436257D2*
X8835913D1*
X15008067D2*
X17341370D1*
X17932663D2*
X19881330D1*
X20472623D2*
X22076397D1*
X1701597Y3301250D2*
X3510900D1*
X3823107D2*
X6050863D1*
X6363067D2*
X8835913D1*
X15008067D2*
X17341370D1*
X17932663D2*
X19881330D1*
X20472623D2*
X22076397D1*
X1701597Y3238083D2*
X8835913D1*
X15008067D2*
X17341370D1*
X17932663D2*
X19881330D1*
X20472623D2*
X22076397D1*
X1701597Y3174917D2*
X7721747D1*
X7994303D2*
X8483727D1*
X8756283D2*
X8835913D1*
X15008067D2*
X15119327D1*
X15328627D2*
X15881397D1*
X16090607D2*
X22076397D1*
X1701597Y3111750D2*
X7666150D1*
X8049903D2*
X8428127D1*
X15008067D2*
X15045223D1*
X15402730D2*
X15807203D1*
X16164800D2*
X22076397D1*
X1701597Y3048583D2*
X7641903D1*
X8074057D2*
X8403973D1*
X15434813D2*
X15775210D1*
X16196790D2*
X22076397D1*
X1701597Y2985417D2*
X7638167D1*
X8077793D2*
X8400237D1*
X15444657D2*
X15765367D1*
X16206637D2*
X22076397D1*
X1701597Y2922250D2*
X7653753D1*
X8062207D2*
X8415733D1*
X15435360D2*
X15774573D1*
X16197430D2*
X22076397D1*
X1701597Y2859083D2*
X7694220D1*
X8021740D2*
X8456293D1*
X8783720D2*
X8835913D1*
X15008067D2*
X15043857D1*
X15404097D2*
X15805927D1*
X16166077D2*
X22076397D1*
X1701597Y2795917D2*
X7802503D1*
X7913457D2*
X8564483D1*
X8675437D2*
X8835913D1*
X15008067D2*
X15115863D1*
X15332090D2*
X15877840D1*
X16094160D2*
X22076397D1*
X1701597Y2732750D2*
X8835913D1*
X15008067D2*
X22076397D1*
X1701597Y2669583D2*
X8835913D1*
X15008067D2*
X22076397D1*
X3956253Y3544100D2*
X3954447Y3516170D1*
X3949953Y3488543D1*
X3942807Y3461483D1*
X3933083Y3435237D1*
X3920867Y3410053D1*
X3906273Y3386170D1*
X3889440Y3363810D1*
X3870523Y3343180D1*
X3849703Y3324473D1*
X3827173Y3307867D1*
X3803143Y3293517D1*
X3777840Y3281553D1*
X3751500Y3272093D1*
X3724367Y3265220D1*
X3696697Y3261003D1*
X3668750Y3259483D1*
X3640787Y3260667D1*
X3613067Y3264550D1*
X3585853Y3271090D1*
X3559400Y3280233D1*
X3533953Y3291887D1*
X3509750Y3305947D1*
X3487020Y3322280D1*
X3465977Y3340733D1*
X3446813Y3361133D1*
X3429710Y3383290D1*
X3414830Y3406997D1*
X3402310Y3432027D1*
X3392267Y3458153D1*
X3384797Y3485127D1*
X3379967Y3512697D1*
X3377827Y3540603D1*
X3378390Y3568587D1*
X3381657Y3596383D1*
X3387593Y3623737D1*
X3396147Y3650387D1*
X3407233Y3676087D1*
X3420753Y3700593D1*
X3436577Y3723680D1*
X3454560Y3745127D1*
X3474530Y3764740D1*
X3496303Y3782327D1*
X3519670Y3797730D1*
X3544420Y3810803D1*
X3570317Y3821423D1*
X3597117Y3829490D1*
X3624573Y3834930D1*
X3652427Y3837690D1*
X3680413Y3837747D1*
X3708277Y3835097D1*
X3735757Y3829767D1*
X3762590Y3821807D1*
X3788527Y3811293D1*
X3813330Y3798320D1*
X3836760Y3783010D1*
X3858603Y3765510D1*
X3878650Y3745980D1*
X3896720Y3724603D1*
X3912637Y3701580D1*
X3926253Y3677127D1*
X3937443Y3651473D1*
X3946103Y3624857D1*
X3952150Y3597530D1*
X3955530Y3569743D1*
X3956253Y3544100D1*
X3401043Y4838057D2*
X3956290D1*
Y4259477D1*
X3377710D1*
Y4838057D1*
X3401043D1*
X6496253Y3544100D2*
X6494447Y3516170D1*
X6489953Y3488543D1*
X6482807Y3461483D1*
X6473083Y3435237D1*
X6460867Y3410053D1*
X6446273Y3386170D1*
X6429440Y3363810D1*
X6410523Y3343180D1*
X6389703Y3324473D1*
X6367173Y3307867D1*
X6343143Y3293517D1*
X6317840Y3281553D1*
X6291500Y3272093D1*
X6264367Y3265220D1*
X6236697Y3261003D1*
X6208750Y3259483D1*
X6180787Y3260667D1*
X6153067Y3264550D1*
X6125853Y3271090D1*
X6099400Y3280233D1*
X6073953Y3291887D1*
X6049750Y3305947D1*
X6027020Y3322280D1*
X6005977Y3340733D1*
X5986813Y3361133D1*
X5969710Y3383290D1*
X5954830Y3406997D1*
X5942310Y3432027D1*
X5932267Y3458153D1*
X5924797Y3485127D1*
X5919967Y3512697D1*
X5917827Y3540603D1*
X5918390Y3568587D1*
X5921657Y3596383D1*
X5927593Y3623737D1*
X5936147Y3650387D1*
X5947233Y3676087D1*
X5960753Y3700593D1*
X5976577Y3723680D1*
X5994560Y3745127D1*
X6014530Y3764740D1*
X6036303Y3782327D1*
X6059670Y3797730D1*
X6084420Y3810803D1*
X6110317Y3821423D1*
X6137117Y3829490D1*
X6164573Y3834930D1*
X6192427Y3837690D1*
X6220413Y3837747D1*
X6248277Y3835097D1*
X6275757Y3829767D1*
X6302590Y3821807D1*
X6328527Y3811293D1*
X6353330Y3798320D1*
X6376760Y3783010D1*
X6398603Y3765510D1*
X6418650Y3745980D1*
X6436720Y3724603D1*
X6452637Y3701580D1*
X6466253Y3677127D1*
X6477443Y3651473D1*
X6486103Y3624857D1*
X6492150Y3597530D1*
X6495530Y3569743D1*
X6496253Y3544100D1*
X5941043Y4838057D2*
X6496290D1*
Y4259477D1*
X5917710D1*
Y4838057D1*
X5941043D1*
X3956253Y9624100D2*
X3954447Y9596170D1*
X3949953Y9568543D1*
X3942807Y9541483D1*
X3933083Y9515237D1*
X3920867Y9490053D1*
X3906273Y9466170D1*
X3889440Y9443810D1*
X3870523Y9423180D1*
X3849703Y9404473D1*
X3827173Y9387867D1*
X3803143Y9373517D1*
X3777840Y9361553D1*
X3751500Y9352093D1*
X3724367Y9345220D1*
X3696697Y9341003D1*
X3668750Y9339483D1*
X3640787Y9340667D1*
X3613067Y9344550D1*
X3585853Y9351090D1*
X3559400Y9360233D1*
X3533953Y9371887D1*
X3509750Y9385947D1*
X3487020Y9402280D1*
X3465977Y9420733D1*
X3446813Y9441133D1*
X3429710Y9463290D1*
X3414830Y9486997D1*
X3402310Y9512027D1*
X3392267Y9538153D1*
X3384797Y9565127D1*
X3379967Y9592697D1*
X3377827Y9620603D1*
X3378390Y9648587D1*
X3381657Y9676383D1*
X3387593Y9703737D1*
X3396147Y9730387D1*
X3407233Y9756087D1*
X3420753Y9780593D1*
X3436577Y9803680D1*
X3454560Y9825127D1*
X3474530Y9844740D1*
X3496303Y9862327D1*
X3519670Y9877730D1*
X3544420Y9890803D1*
X3570317Y9901423D1*
X3597117Y9909490D1*
X3624573Y9914930D1*
X3652427Y9917690D1*
X3680413Y9917747D1*
X3708277Y9915097D1*
X3735757Y9909767D1*
X3762590Y9901807D1*
X3788527Y9891293D1*
X3813330Y9878320D1*
X3836760Y9863010D1*
X3858603Y9845510D1*
X3878650Y9825980D1*
X3896720Y9804603D1*
X3912637Y9781580D1*
X3926253Y9757127D1*
X3937443Y9731473D1*
X3946103Y9704857D1*
X3952150Y9677530D1*
X3955530Y9649743D1*
X3956253Y9624100D1*
X3401043Y8918057D2*
X3956290D1*
Y8339477D1*
X3377710D1*
Y8918057D1*
X3401043D1*
X6496253Y9624100D2*
X6494447Y9596170D1*
X6489953Y9568543D1*
X6482807Y9541483D1*
X6473083Y9515237D1*
X6460867Y9490053D1*
X6446273Y9466170D1*
X6429440Y9443810D1*
X6410523Y9423180D1*
X6389703Y9404473D1*
X6367173Y9387867D1*
X6343143Y9373517D1*
X6317840Y9361553D1*
X6291500Y9352093D1*
X6264367Y9345220D1*
X6236697Y9341003D1*
X6208750Y9339483D1*
X6180787Y9340667D1*
X6153067Y9344550D1*
X6125853Y9351090D1*
X6099400Y9360233D1*
X6073953Y9371887D1*
X6049750Y9385947D1*
X6027020Y9402280D1*
X6005977Y9420733D1*
X5986813Y9441133D1*
X5969710Y9463290D1*
X5954830Y9486997D1*
X5942310Y9512027D1*
X5932267Y9538153D1*
X5924797Y9565127D1*
X5919967Y9592697D1*
X5917827Y9620603D1*
X5918390Y9648587D1*
X5921657Y9676383D1*
X5927593Y9703737D1*
X5936147Y9730387D1*
X5947233Y9756087D1*
X5960753Y9780593D1*
X5976577Y9803680D1*
X5994560Y9825127D1*
X6014530Y9844740D1*
X6036303Y9862327D1*
X6059670Y9877730D1*
X6084420Y9890803D1*
X6110317Y9901423D1*
X6137117Y9909490D1*
X6164573Y9914930D1*
X6192427Y9917690D1*
X6220413Y9917747D1*
X6248277Y9915097D1*
X6275757Y9909767D1*
X6302590Y9901807D1*
X6328527Y9891293D1*
X6353330Y9878320D1*
X6376760Y9863010D1*
X6398603Y9845510D1*
X6418650Y9825980D1*
X6436720Y9804603D1*
X6452637Y9781580D1*
X6466253Y9757127D1*
X6477443Y9731473D1*
X6486103Y9704857D1*
X6492150Y9677530D1*
X6495530Y9649743D1*
X6496253Y9624100D1*
X5941043Y8918057D2*
X6084233D1*
X6108010Y8927060D1*
X6130407Y8933580D1*
X6153227Y8938423D1*
X6176343Y8941557D1*
X6207000Y8943057D1*
X8366000D1*
X8389313Y8942190D1*
X8412497Y8939600D1*
X8435423Y8935293D1*
X8457967Y8929300D1*
X8480007Y8921650D1*
X8501417Y8912387D1*
X8522080Y8901563D1*
X8541883Y8889233D1*
X8560720Y8875470D1*
X8578480Y8860347D1*
X8595073Y8843950D1*
X8610403Y8826367D1*
X8624387Y8807693D1*
X8636947Y8788033D1*
X8648013Y8767500D1*
X8657527Y8746200D1*
X8665433Y8724253D1*
X8671693Y8701780D1*
X8676267Y8678903D1*
X8679130Y8655753D1*
X8680267Y8632360D1*
X8680290Y6457763D1*
X10398000Y6457790D1*
X10421313Y6456923D1*
X10444497Y6454333D1*
X10467423Y6450027D1*
X10489967Y6444033D1*
X10512007Y6436383D1*
X10533417Y6427120D1*
X10554080Y6416297D1*
X10573883Y6403967D1*
X10592720Y6390203D1*
X10610480Y6375080D1*
X10627073Y6358683D1*
X10642403Y6341100D1*
X10656387Y6322427D1*
X10668947Y6302767D1*
X10680013Y6282233D1*
X10689527Y6260933D1*
X10697433Y6238987D1*
X10703693Y6216513D1*
X10708267Y6193637D1*
X10711130Y6170487D1*
X10712270Y6147187D1*
X10711677Y6123867D1*
X10709357Y6100653D1*
X10705320Y6077677D1*
X10699590Y6055063D1*
X10692200Y6032937D1*
X10683190Y6011420D1*
X10672607Y5990630D1*
X10660510Y5970683D1*
X10646970Y5951687D1*
X10632057Y5933750D1*
X10615853Y5916967D1*
X10598450Y5901430D1*
X10579943Y5887230D1*
X10560433Y5874440D1*
X10540030Y5863133D1*
X10518843Y5853370D1*
X10496990Y5845207D1*
X10474593Y5838687D1*
X10451773Y5833843D1*
X10428657Y5830710D1*
X10398000Y5829210D1*
X8366100D1*
X8346367Y5829823D1*
X8323153Y5832143D1*
X8300177Y5836180D1*
X8277563Y5841910D1*
X8255437Y5849300D1*
X8233920Y5858310D1*
X8213130Y5868893D1*
X8193183Y5880990D1*
X8174187Y5894530D1*
X8156250Y5909443D1*
X8139467Y5925647D1*
X8123930Y5943050D1*
X8109730Y5961557D1*
X8096940Y5981067D1*
X8085633Y6001470D1*
X8075870Y6022657D1*
X8067707Y6044510D1*
X8061187Y6066907D1*
X8056343Y6089727D1*
X8053210Y6112843D1*
X8051710Y6143500D1*
Y8314503D1*
X6207000Y8314477D1*
X6183687Y8315343D1*
X6160503Y8317933D1*
X6137577Y8322240D1*
X6115033Y8328233D1*
X6084713Y8339463D1*
X5917710Y8339477D1*
Y8506000D1*
X5907567Y8533280D1*
X5901307Y8555753D1*
X5896733Y8578630D1*
X5893870Y8601780D1*
X5892730Y8625080D1*
X5893323Y8648400D1*
X5895643Y8671613D1*
X5899680Y8694590D1*
X5905410Y8717203D1*
X5912800Y8739330D1*
X5917693Y8751013D1*
X5917710Y8918057D1*
X5941043D1*
X17925397Y4469803D2*
X17922730Y4447247D1*
X17918297Y4424967D1*
X17912130Y4403103D1*
X17904270Y4381793D1*
X17894760Y4361167D1*
X17883660Y4341347D1*
X17871040Y4322460D1*
X17856977Y4304620D1*
X17841560Y4287940D1*
X17824880Y4272523D1*
X17807040Y4258460D1*
X17788153Y4245840D1*
X17768333Y4234740D1*
X17747707Y4225230D1*
X17726397Y4217370D1*
X17704533Y4211203D1*
X17682253Y4206770D1*
X17659697Y4204103D1*
X17637000Y4203210D1*
X17614303Y4204103D1*
X17591747Y4206770D1*
X17569467Y4211203D1*
X17547603Y4217370D1*
X17526293Y4225230D1*
X17505667Y4234740D1*
X17485847Y4245840D1*
X17466960Y4258460D1*
X17449120Y4272523D1*
X17432440Y4287940D1*
X17417023Y4304620D1*
X17402960Y4322460D1*
X17390340Y4341347D1*
X17379240Y4361167D1*
X17369730Y4381793D1*
X17361870Y4403103D1*
X17355703Y4424967D1*
X17351270Y4447247D1*
X17348603Y4469803D1*
X17347710Y4492500D1*
X17348603Y4515197D1*
X17351270Y4537753D1*
X17355703Y4560033D1*
X17361870Y4581897D1*
X17369730Y4603207D1*
X17379240Y4623833D1*
X17390340Y4643653D1*
X17402960Y4662540D1*
X17417023Y4680380D1*
X17432440Y4697060D1*
X17449120Y4712477D1*
X17466960Y4726540D1*
X17485847Y4739160D1*
X17505667Y4750260D1*
X17526293Y4759770D1*
X17547603Y4767630D1*
X17569467Y4773797D1*
X17591747Y4778230D1*
X17614303Y4780897D1*
X17637000Y4781790D1*
X17659697Y4780897D1*
X17682253Y4778230D1*
X17704533Y4773797D1*
X17726397Y4767630D1*
X17747707Y4759770D1*
X17768333Y4750260D1*
X17788153Y4739160D1*
X17807040Y4726540D1*
X17824880Y4712477D1*
X17841560Y4697060D1*
X17856977Y4680380D1*
X17871040Y4662540D1*
X17883660Y4643653D1*
X17894760Y4623833D1*
X17904270Y4603207D1*
X17912130Y4581897D1*
X17918297Y4560033D1*
X17922730Y4537753D1*
X17925397Y4515197D1*
X17926290Y4492500D1*
X17925397Y4469803D1*
X17352377Y3781790D2*
X17926290D1*
Y3203210D1*
X17347710D1*
Y3781790D1*
X17352377D1*
X20465397Y4469803D2*
X20462730Y4447247D1*
X20458297Y4424967D1*
X20452130Y4403103D1*
X20444270Y4381793D1*
X20434760Y4361167D1*
X20423660Y4341347D1*
X20411040Y4322460D1*
X20396977Y4304620D1*
X20381560Y4287940D1*
X20364880Y4272523D1*
X20347040Y4258460D1*
X20328153Y4245840D1*
X20308333Y4234740D1*
X20287707Y4225230D1*
X20266397Y4217370D1*
X20244533Y4211203D1*
X20222253Y4206770D1*
X20199697Y4204103D1*
X20177000Y4203210D1*
X20154303Y4204103D1*
X20131747Y4206770D1*
X20109467Y4211203D1*
X20087603Y4217370D1*
X20066293Y4225230D1*
X20045667Y4234740D1*
X20025847Y4245840D1*
X20006960Y4258460D1*
X19989120Y4272523D1*
X19972440Y4287940D1*
X19957023Y4304620D1*
X19942960Y4322460D1*
X19930340Y4341347D1*
X19919240Y4361167D1*
X19909730Y4381793D1*
X19901870Y4403103D1*
X19895703Y4424967D1*
X19891270Y4447247D1*
X19888603Y4469803D1*
X19887710Y4492500D1*
X19888603Y4515197D1*
X19891270Y4537753D1*
X19895703Y4560033D1*
X19901870Y4581897D1*
X19909730Y4603207D1*
X19919240Y4623833D1*
X19930340Y4643653D1*
X19942960Y4662540D1*
X19957023Y4680380D1*
X19972440Y4697060D1*
X19989120Y4712477D1*
X20006960Y4726540D1*
X20025847Y4739160D1*
X20045667Y4750260D1*
X20066293Y4759770D1*
X20087603Y4767630D1*
X20109467Y4773797D1*
X20131747Y4778230D1*
X20154303Y4780897D1*
X20177000Y4781790D1*
X20199697Y4780897D1*
X20222253Y4778230D1*
X20244533Y4773797D1*
X20266397Y4767630D1*
X20287707Y4759770D1*
X20308333Y4750260D1*
X20328153Y4739160D1*
X20347040Y4726540D1*
X20364880Y4712477D1*
X20381560Y4697060D1*
X20396977Y4680380D1*
X20411040Y4662540D1*
X20423660Y4643653D1*
X20434760Y4623833D1*
X20444270Y4603207D1*
X20452130Y4581897D1*
X20458297Y4560033D1*
X20462730Y4537753D1*
X20465397Y4515197D1*
X20466290Y4492500D1*
X20465397Y4469803D1*
X19892377Y3781790D2*
X20466290D1*
Y3203210D1*
X19887710D1*
Y3781790D1*
X19892377D1*
X17917397Y8557803D2*
X17914730Y8535247D1*
X17910297Y8512967D1*
X17904130Y8491103D1*
X17896270Y8469793D1*
X17886760Y8449167D1*
X17875660Y8429347D1*
X17863040Y8410460D1*
X17848977Y8392620D1*
X17833560Y8375940D1*
X17816880Y8360523D1*
X17799040Y8346460D1*
X17780153Y8333840D1*
X17760333Y8322740D1*
X17739707Y8313230D1*
X17718397Y8305370D1*
X17696533Y8299203D1*
X17674253Y8294770D1*
X17651697Y8292103D1*
X17629000Y8291210D1*
X17606303Y8292103D1*
X17583747Y8294770D1*
X17561467Y8299203D1*
X17539603Y8305370D1*
X17518293Y8313230D1*
X17497667Y8322740D1*
X17477847Y8333840D1*
X17458960Y8346460D1*
X17441120Y8360523D1*
X17424440Y8375940D1*
X17409023Y8392620D1*
X17394960Y8410460D1*
X17382340Y8429347D1*
X17371240Y8449167D1*
X17361730Y8469793D1*
X17353870Y8491103D1*
X17347703Y8512967D1*
X17343270Y8535247D1*
X17340603Y8557803D1*
X17339710Y8580500D1*
X17340603Y8603197D1*
X17343270Y8625753D1*
X17347703Y8648033D1*
X17353870Y8669897D1*
X17361730Y8691207D1*
X17371240Y8711833D1*
X17382340Y8731653D1*
X17394960Y8750540D1*
X17409023Y8768380D1*
X17424440Y8785060D1*
X17441120Y8800477D1*
X17458960Y8814540D1*
X17477847Y8827160D1*
X17497667Y8838260D1*
X17518293Y8847770D1*
X17539603Y8855630D1*
X17561467Y8861797D1*
X17583747Y8866230D1*
X17606303Y8868897D1*
X17629000Y8869790D1*
X17651697Y8868897D1*
X17674253Y8866230D1*
X17696533Y8861797D1*
X17718397Y8855630D1*
X17739707Y8847770D1*
X17760333Y8838260D1*
X17780153Y8827160D1*
X17799040Y8814540D1*
X17816880Y8800477D1*
X17833560Y8785060D1*
X17848977Y8768380D1*
X17863040Y8750540D1*
X17875660Y8731653D1*
X17886760Y8711833D1*
X17896270Y8691207D1*
X17904130Y8669897D1*
X17910297Y8648033D1*
X17914730Y8625753D1*
X17917397Y8603197D1*
X17918290Y8580500D1*
X17917397Y8557803D1*
X17344377Y9869790D2*
X17918290D1*
Y9291210D1*
X17339710D1*
Y9869790D1*
X17344377D1*
X20457397Y8557803D2*
X20454730Y8535247D1*
X20450297Y8512967D1*
X20444130Y8491103D1*
X20436270Y8469793D1*
X20426760Y8449167D1*
X20415660Y8429347D1*
X20403040Y8410460D1*
X20388977Y8392620D1*
X20373560Y8375940D1*
X20356880Y8360523D1*
X20339040Y8346460D1*
X20320153Y8333840D1*
X20300333Y8322740D1*
X20279707Y8313230D1*
X20258397Y8305370D1*
X20236533Y8299203D1*
X20214253Y8294770D1*
X20191697Y8292103D1*
X20169000Y8291210D1*
X20146303Y8292103D1*
X20123747Y8294770D1*
X20101467Y8299203D1*
X20079603Y8305370D1*
X20058293Y8313230D1*
X20037667Y8322740D1*
X20017847Y8333840D1*
X19998960Y8346460D1*
X19981120Y8360523D1*
X19964440Y8375940D1*
X19949023Y8392620D1*
X19934960Y8410460D1*
X19922340Y8429347D1*
X19911240Y8449167D1*
X19901730Y8469793D1*
X19893870Y8491103D1*
X19887703Y8512967D1*
X19883270Y8535247D1*
X19880603Y8557803D1*
X19879710Y8580500D1*
X19880603Y8603197D1*
X19883270Y8625753D1*
X19887703Y8648033D1*
X19893870Y8669897D1*
X19901730Y8691207D1*
X19911240Y8711833D1*
X19922340Y8731653D1*
X19934960Y8750540D1*
X19949023Y8768380D1*
X19964440Y8785060D1*
X19981120Y8800477D1*
X19998960Y8814540D1*
X20017847Y8827160D1*
X20037667Y8838260D1*
X20058293Y8847770D1*
X20079603Y8855630D1*
X20101467Y8861797D1*
X20123747Y8866230D1*
X20146303Y8868897D1*
X20169000Y8869790D1*
X20191697Y8868897D1*
X20214253Y8866230D1*
X20236533Y8861797D1*
X20258397Y8855630D1*
X20279707Y8847770D1*
X20300333Y8838260D1*
X20320153Y8827160D1*
X20339040Y8814540D1*
X20356880Y8800477D1*
X20373560Y8785060D1*
X20388977Y8768380D1*
X20403040Y8750540D1*
X20415660Y8731653D1*
X20426760Y8711833D1*
X20436270Y8691207D1*
X20444130Y8669897D1*
X20450297Y8648033D1*
X20454730Y8625753D1*
X20457397Y8603197D1*
X20458290Y8580500D1*
X20457397Y8557803D1*
X19884377Y9869790D2*
X20458290D1*
Y9291210D1*
X19879710D1*
Y9869790D1*
X19884377D1*
X10661477Y7138763D2*
X10659037Y7118157D1*
X10654987Y7097803D1*
X10649353Y7077830D1*
X10642173Y7058360D1*
X10633483Y7039513D1*
X10623343Y7021410D1*
X10611817Y7004153D1*
X10598967Y6987857D1*
X10584880Y6972620D1*
X10569643Y6958533D1*
X10553347Y6945683D1*
X10536090Y6934157D1*
X10517987Y6924017D1*
X10499140Y6915327D1*
X10479670Y6908147D1*
X10459697Y6902513D1*
X10439343Y6898463D1*
X10418737Y6896023D1*
X10398000Y6895210D1*
X10377263Y6896023D1*
X10356657Y6898463D1*
X10336303Y6902513D1*
X10316330Y6908147D1*
X10296860Y6915327D1*
X10278013Y6924017D1*
X10259910Y6934157D1*
X10242653Y6945683D1*
X10226357Y6958533D1*
X10211120Y6972620D1*
X10197033Y6987857D1*
X10184183Y7004153D1*
X10172657Y7021410D1*
X10162517Y7039513D1*
X10153827Y7058360D1*
X10146647Y7077830D1*
X10141013Y7097803D1*
X10136963Y7118157D1*
X10134523Y7138763D1*
X10133710Y7159500D1*
X10134523Y7180237D1*
X10136963Y7200843D1*
X10141013Y7221197D1*
X10146647Y7241170D1*
X10153827Y7260640D1*
X10162517Y7279487D1*
X10172657Y7297590D1*
X10184183Y7314847D1*
X10197033Y7331143D1*
X10211120Y7346380D1*
X10226357Y7360467D1*
X10242653Y7373317D1*
X10259910Y7384843D1*
X10278013Y7394983D1*
X10296860Y7403673D1*
X10316330Y7410853D1*
X10336303Y7416487D1*
X10356657Y7420537D1*
X10377263Y7422977D1*
X10398000Y7423790D1*
X10418737Y7422977D1*
X10439343Y7420537D1*
X10459697Y7416487D1*
X10479670Y7410853D1*
X10499140Y7403673D1*
X10517987Y7394983D1*
X10536090Y7384843D1*
X10553347Y7373317D1*
X10569643Y7360467D1*
X10584880Y7346380D1*
X10598967Y7331143D1*
X10611817Y7314847D1*
X10623343Y7297590D1*
X10633483Y7279487D1*
X10642173Y7260640D1*
X10649353Y7241170D1*
X10654987Y7221197D1*
X10659037Y7200843D1*
X10661477Y7180237D1*
X10662290Y7159500D1*
X10661477Y7138763D1*
X13709477D2*
X13707037Y7118157D1*
X13702987Y7097803D1*
X13697353Y7077830D1*
X13690173Y7058360D1*
X13681483Y7039513D1*
X13671343Y7021410D1*
X13659817Y7004153D1*
X13646967Y6987857D1*
X13632880Y6972620D1*
X13617643Y6958533D1*
X13601347Y6945683D1*
X13584090Y6934157D1*
X13565987Y6924017D1*
X13547140Y6915327D1*
X13527670Y6908147D1*
X13507697Y6902513D1*
X13487343Y6898463D1*
X13466737Y6896023D1*
X13446000Y6895210D1*
X13425263Y6896023D1*
X13404657Y6898463D1*
X13384303Y6902513D1*
X13364330Y6908147D1*
X13344860Y6915327D1*
X13326013Y6924017D1*
X13307910Y6934157D1*
X13290653Y6945683D1*
X13274357Y6958533D1*
X13259120Y6972620D1*
X13245033Y6987857D1*
X13232183Y7004153D1*
X13220657Y7021410D1*
X13210517Y7039513D1*
X13201827Y7058360D1*
X13194647Y7077830D1*
X13189013Y7097803D1*
X13184963Y7118157D1*
X13182523Y7138763D1*
X13181710Y7159500D1*
X13182523Y7180237D1*
X13184963Y7200843D1*
X13189013Y7221197D1*
X13194647Y7241170D1*
X13201827Y7260640D1*
X13210517Y7279487D1*
X13220657Y7297590D1*
X13232183Y7314847D1*
X13245033Y7331143D1*
X13259120Y7346380D1*
X13274357Y7360467D1*
X13290653Y7373317D1*
X13307910Y7384843D1*
X13326013Y7394983D1*
X13344860Y7403673D1*
X13364330Y7410853D1*
X13384303Y7416487D1*
X13404657Y7420537D1*
X13425263Y7422977D1*
X13446000Y7423790D1*
X13466737Y7422977D1*
X13487343Y7420537D1*
X13507697Y7416487D1*
X13527670Y7410853D1*
X13547140Y7403673D1*
X13565987Y7394983D1*
X13584090Y7384843D1*
X13601347Y7373317D1*
X13617643Y7360467D1*
X13632880Y7346380D1*
X13646967Y7331143D1*
X13659817Y7314847D1*
X13671343Y7297590D1*
X13681483Y7279487D1*
X13690173Y7260640D1*
X13697353Y7241170D1*
X13702987Y7221197D1*
X13707037Y7200843D1*
X13709477Y7180237D1*
X13710290Y7159500D1*
X13709477Y7138763D1*
X10662250Y8170833D2*
X10660807Y8147553D1*
X10657320Y8124490D1*
X10651813Y8101823D1*
X10644327Y8079730D1*
X10634923Y8058383D1*
X10623677Y8037950D1*
X10610667Y8018587D1*
X10596003Y8000447D1*
X10579800Y7983670D1*
X10562177Y7968387D1*
X10543277Y7954720D1*
X10523243Y7942770D1*
X10502233Y7932633D1*
X10480413Y7924390D1*
X10457953Y7918100D1*
X10435023Y7913817D1*
X10411807Y7911570D1*
X10388480Y7911380D1*
X10365230Y7913250D1*
X10342233Y7917160D1*
X10319673Y7923083D1*
X10297723Y7930973D1*
X10276553Y7940767D1*
X10256330Y7952390D1*
X10237207Y7965750D1*
X10219340Y7980743D1*
X10202863Y7997257D1*
X10187907Y8015157D1*
X10174587Y8034303D1*
X10163010Y8054553D1*
X10153260Y8075743D1*
X10145417Y8097710D1*
X10139543Y8120283D1*
X10135680Y8143290D1*
X10133863Y8166543D1*
X10134100Y8189867D1*
X10136397Y8213080D1*
X10140727Y8236000D1*
X10147063Y8258450D1*
X10155357Y8280250D1*
X10165537Y8301237D1*
X10177530Y8321247D1*
X10191237Y8340117D1*
X10206557Y8357707D1*
X10223370Y8373877D1*
X10241540Y8388500D1*
X10260930Y8401467D1*
X10281390Y8412673D1*
X10302757Y8422030D1*
X10324863Y8429470D1*
X10347540Y8434930D1*
X10370613Y8438367D1*
X10393897Y8439757D1*
X10417213Y8439090D1*
X10440380Y8436370D1*
X10463217Y8431617D1*
X10485543Y8424870D1*
X10507190Y8416180D1*
X10527987Y8405613D1*
X10547770Y8393257D1*
X10566387Y8379203D1*
X10583693Y8363563D1*
X10599550Y8346457D1*
X10613840Y8328020D1*
X10626447Y8308397D1*
X10637273Y8287737D1*
X10646240Y8266200D1*
X10653270Y8243960D1*
X10658310Y8221187D1*
X10661327Y8198057D1*
X10662290Y8175500D1*
X10662250Y8170833D1*
X13710250D2*
X13708807Y8147553D1*
X13705320Y8124490D1*
X13699813Y8101823D1*
X13692327Y8079730D1*
X13682923Y8058383D1*
X13671677Y8037950D1*
X13658667Y8018587D1*
X13644003Y8000447D1*
X13627800Y7983670D1*
X13610177Y7968387D1*
X13591277Y7954720D1*
X13571243Y7942770D1*
X13550233Y7932633D1*
X13528413Y7924390D1*
X13505953Y7918100D1*
X13483023Y7913817D1*
X13459807Y7911570D1*
X13436480Y7911380D1*
X13413230Y7913250D1*
X13390233Y7917160D1*
X13367673Y7923083D1*
X13345723Y7930973D1*
X13324553Y7940767D1*
X13304330Y7952390D1*
X13285207Y7965750D1*
X13267340Y7980743D1*
X13250863Y7997257D1*
X13235907Y8015157D1*
X13222587Y8034303D1*
X13211010Y8054553D1*
X13201260Y8075743D1*
X13193417Y8097710D1*
X13187543Y8120283D1*
X13183680Y8143290D1*
X13181863Y8166543D1*
X13182100Y8189867D1*
X13184397Y8213080D1*
X13188727Y8236000D1*
X13195063Y8258450D1*
X13203357Y8280250D1*
X13213537Y8301237D1*
X13225530Y8321247D1*
X13239237Y8340117D1*
X13254557Y8357707D1*
X13271370Y8373877D1*
X13289540Y8388500D1*
X13308930Y8401467D1*
X13329390Y8412673D1*
X13350757Y8422030D1*
X13372863Y8429470D1*
X13395540Y8434930D1*
X13418613Y8438367D1*
X13441897Y8439757D1*
X13465213Y8439090D1*
X13488380Y8436370D1*
X13511217Y8431617D1*
X13533543Y8424870D1*
X13555190Y8416180D1*
X13575987Y8405613D1*
X13595770Y8393257D1*
X13614387Y8379203D1*
X13631693Y8363563D1*
X13647550Y8346457D1*
X13661840Y8328020D1*
X13674447Y8308397D1*
X13685273Y8287737D1*
X13694240Y8266200D1*
X13701270Y8243960D1*
X13706310Y8221187D1*
X13709327Y8198057D1*
X13710290Y8175500D1*
X13710250Y8170833D1*
X2313250Y6646833D2*
X2311807Y6623553D1*
X2308320Y6600490D1*
X2302813Y6577823D1*
X2295327Y6555730D1*
X2285923Y6534383D1*
X2274677Y6513950D1*
X2261667Y6494587D1*
X2247003Y6476447D1*
X2230800Y6459670D1*
X2213177Y6444387D1*
X2194277Y6430720D1*
X2174243Y6418770D1*
X2153233Y6408633D1*
X2131413Y6400390D1*
X2108953Y6394100D1*
X2086023Y6389817D1*
X2062807Y6387570D1*
X2039480Y6387380D1*
X2016230Y6389250D1*
X1993233Y6393160D1*
X1970673Y6399083D1*
X1948723Y6406973D1*
X1927553Y6416767D1*
X1907330Y6428390D1*
X1888207Y6441750D1*
X1870340Y6456743D1*
X1853863Y6473257D1*
X1838907Y6491157D1*
X1825587Y6510303D1*
X1814010Y6530553D1*
X1804260Y6551743D1*
X1796417Y6573710D1*
X1790543Y6596283D1*
X1786680Y6619290D1*
X1784863Y6642543D1*
X1785100Y6665867D1*
X1787397Y6689080D1*
X1791727Y6712000D1*
X1798063Y6734450D1*
X1806357Y6756250D1*
X1816537Y6777237D1*
X1828530Y6797247D1*
X1842237Y6816117D1*
X1857557Y6833707D1*
X1874370Y6849877D1*
X1892540Y6864500D1*
X1911930Y6877467D1*
X1932390Y6888673D1*
X1953757Y6898030D1*
X1975863Y6905470D1*
X1998540Y6910930D1*
X2021613Y6914367D1*
X2044897Y6915757D1*
X2068213Y6915090D1*
X2091380Y6912370D1*
X2114217Y6907617D1*
X2136543Y6900870D1*
X2158190Y6892180D1*
X2178987Y6881613D1*
X2198770Y6869257D1*
X2217387Y6855203D1*
X2234693Y6839563D1*
X2250550Y6822457D1*
X2264840Y6804020D1*
X2277447Y6784397D1*
X2288273Y6763737D1*
X2297240Y6742200D1*
X2304270Y6719960D1*
X2309310Y6697187D1*
X2312327Y6674057D1*
X2313290Y6651500D1*
X2313250Y6646833D1*
X21932250D2*
X21930807Y6623553D1*
X21927320Y6600490D1*
X21921813Y6577823D1*
X21914327Y6555730D1*
X21904923Y6534383D1*
X21893677Y6513950D1*
X21880667Y6494587D1*
X21866003Y6476447D1*
X21849800Y6459670D1*
X21832177Y6444387D1*
X21813277Y6430720D1*
X21793243Y6418770D1*
X21772233Y6408633D1*
X21750413Y6400390D1*
X21727953Y6394100D1*
X21705023Y6389817D1*
X21681807Y6387570D1*
X21658480Y6387380D1*
X21635230Y6389250D1*
X21612233Y6393160D1*
X21589673Y6399083D1*
X21567723Y6406973D1*
X21546553Y6416767D1*
X21526330Y6428390D1*
X21507207Y6441750D1*
X21489340Y6456743D1*
X21472863Y6473257D1*
X21457907Y6491157D1*
X21444587Y6510303D1*
X21433010Y6530553D1*
X21423260Y6551743D1*
X21415417Y6573710D1*
X21409543Y6596283D1*
X21405680Y6619290D1*
X21403863Y6642543D1*
X21404100Y6665867D1*
X21406397Y6689080D1*
X21410727Y6712000D1*
X21417063Y6734450D1*
X21425357Y6756250D1*
X21435537Y6777237D1*
X21447530Y6797247D1*
X21461237Y6816117D1*
X21476557Y6833707D1*
X21493370Y6849877D1*
X21511540Y6864500D1*
X21530930Y6877467D1*
X21551390Y6888673D1*
X21572757Y6898030D1*
X21594863Y6905470D1*
X21617540Y6910930D1*
X21640613Y6914367D1*
X21663897Y6915757D1*
X21687213Y6915090D1*
X21710380Y6912370D1*
X21733217Y6907617D1*
X21755543Y6900870D1*
X21777190Y6892180D1*
X21797987Y6881613D1*
X21817770Y6869257D1*
X21836387Y6855203D1*
X21853693Y6839563D1*
X21869550Y6822457D1*
X21883840Y6804020D1*
X21896447Y6784397D1*
X21907273Y6763737D1*
X21916240Y6742200D1*
X21923270Y6719960D1*
X21928310Y6697187D1*
X21931327Y6674057D1*
X21932290Y6651500D1*
X21932250Y6646833D1*
X8072240Y2999833D2*
X8070463Y2976580D1*
X8066170Y2953657D1*
X8059413Y2931337D1*
X8050270Y2909880D1*
X8038847Y2889547D1*
X8025283Y2870573D1*
X8009740Y2853190D1*
X7992397Y2837593D1*
X7973463Y2823977D1*
X7953163Y2812500D1*
X7931733Y2803293D1*
X7909433Y2796473D1*
X7886520Y2792117D1*
X7863273Y2790273D1*
X7839960Y2790970D1*
X7816863Y2794197D1*
X7794253Y2799910D1*
X7772397Y2808050D1*
X7751557Y2818517D1*
X7731973Y2831187D1*
X7713887Y2845907D1*
X7697507Y2862507D1*
X7683027Y2880790D1*
X7670617Y2900537D1*
X7660430Y2921517D1*
X7652583Y2943477D1*
X7647167Y2966163D1*
X7644250Y2989300D1*
X7643863Y3012620D1*
X7646013Y3035843D1*
X7650677Y3058693D1*
X7657793Y3080903D1*
X7667280Y3102207D1*
X7679030Y3122353D1*
X7692897Y3141107D1*
X7708720Y3158237D1*
X7726310Y3173550D1*
X7745460Y3186860D1*
X7765943Y3198010D1*
X7787520Y3206867D1*
X7809927Y3213330D1*
X7832907Y3217317D1*
X7856183Y3218783D1*
X7879480Y3217710D1*
X7902523Y3214113D1*
X7925037Y3208033D1*
X7946760Y3199543D1*
X7967430Y3188743D1*
X7986803Y3175760D1*
X8004650Y3160750D1*
X8020763Y3143887D1*
X8034947Y3125373D1*
X8047033Y3105430D1*
X8056883Y3084287D1*
X8064373Y3062203D1*
X8069423Y3039433D1*
X8071967Y3016250D1*
X8072240Y2999833D1*
X8071630Y5487687D2*
X8069653Y5470977D1*
X8066370Y5454473D1*
X8061803Y5438280D1*
X8055977Y5422493D1*
X8048933Y5407213D1*
X8040713Y5392533D1*
X8031363Y5378543D1*
X8020947Y5365330D1*
X8009527Y5352973D1*
X7997170Y5341553D1*
X7983957Y5331137D1*
X7969967Y5321787D1*
X7955287Y5313567D1*
X7940007Y5306523D1*
X7924220Y5300697D1*
X7908027Y5296130D1*
X7891523Y5292847D1*
X7874813Y5290870D1*
X7858000Y5290210D1*
X7841187Y5290870D1*
X7824477Y5292847D1*
X7807973Y5296130D1*
X7791780Y5300697D1*
X7775993Y5306523D1*
X7760713Y5313567D1*
X7746033Y5321787D1*
X7732043Y5331137D1*
X7718830Y5341553D1*
X7706473Y5352973D1*
X7695053Y5365330D1*
X7684637Y5378543D1*
X7675287Y5392533D1*
X7667067Y5407213D1*
X7660023Y5422493D1*
X7654197Y5438280D1*
X7649630Y5454473D1*
X7646347Y5470977D1*
X7644370Y5487687D1*
X7643710Y5504500D1*
X7644370Y5521313D1*
X7646347Y5538023D1*
X7649630Y5554527D1*
X7654197Y5570720D1*
X7660023Y5586507D1*
X7667067Y5601787D1*
X7675287Y5616467D1*
X7684637Y5630457D1*
X7695053Y5643670D1*
X7706473Y5656027D1*
X7718830Y5667447D1*
X7732043Y5677863D1*
X7746033Y5687213D1*
X7760713Y5695433D1*
X7775993Y5702477D1*
X7791780Y5708303D1*
X7807973Y5712870D1*
X7824477Y5716153D1*
X7841187Y5718130D1*
X7858000Y5718790D1*
X7874813Y5718130D1*
X7891523Y5716153D1*
X7908027Y5712870D1*
X7924220Y5708303D1*
X7940007Y5702477D1*
X7955287Y5695433D1*
X7969967Y5687213D1*
X7983957Y5677863D1*
X7997170Y5667447D1*
X8009527Y5656027D1*
X8020947Y5643670D1*
X8031363Y5630457D1*
X8040713Y5616467D1*
X8048933Y5601787D1*
X8055977Y5586507D1*
X8061803Y5570720D1*
X8066370Y5554527D1*
X8069653Y5538023D1*
X8071630Y5521313D1*
X8072290Y5504500D1*
X8071630Y5487687D1*
X8834240Y2999833D2*
X8832463Y2976580D1*
X8828170Y2953657D1*
X8821413Y2931337D1*
X8812270Y2909880D1*
X8800847Y2889547D1*
X8787283Y2870573D1*
X8771740Y2853190D1*
X8754397Y2837593D1*
X8735463Y2823977D1*
X8715163Y2812500D1*
X8693733Y2803293D1*
X8671433Y2796473D1*
X8648520Y2792117D1*
X8625273Y2790273D1*
X8601960Y2790970D1*
X8578863Y2794197D1*
X8556253Y2799910D1*
X8534397Y2808050D1*
X8513557Y2818517D1*
X8493973Y2831187D1*
X8475887Y2845907D1*
X8459507Y2862507D1*
X8445027Y2880790D1*
X8432617Y2900537D1*
X8422430Y2921517D1*
X8414583Y2943477D1*
X8409167Y2966163D1*
X8406250Y2989300D1*
X8405863Y3012620D1*
X8408013Y3035843D1*
X8412677Y3058693D1*
X8419793Y3080903D1*
X8429280Y3102207D1*
X8441030Y3122353D1*
X8454897Y3141107D1*
X8470720Y3158237D1*
X8488310Y3173550D1*
X8507460Y3186860D1*
X8527943Y3198010D1*
X8549520Y3206867D1*
X8571927Y3213330D1*
X8594907Y3217317D1*
X8618183Y3218783D1*
X8641480Y3217710D1*
X8664523Y3214113D1*
X8687037Y3208033D1*
X8708760Y3199543D1*
X8729430Y3188743D1*
X8748803Y3175760D1*
X8766650Y3160750D1*
X8782763Y3143887D1*
X8796947Y3125373D1*
X8809033Y3105430D1*
X8818883Y3084287D1*
X8826373Y3062203D1*
X8831423Y3039433D1*
X8833967Y3016250D1*
X8834240Y2999833D1*
X8833630Y5487687D2*
X8831653Y5470977D1*
X8828370Y5454473D1*
X8823803Y5438280D1*
X8817977Y5422493D1*
X8810933Y5407213D1*
X8802713Y5392533D1*
X8793363Y5378543D1*
X8782947Y5365330D1*
X8771527Y5352973D1*
X8759170Y5341553D1*
X8745957Y5331137D1*
X8731967Y5321787D1*
X8717287Y5313567D1*
X8702007Y5306523D1*
X8686220Y5300697D1*
X8670027Y5296130D1*
X8653523Y5292847D1*
X8636813Y5290870D1*
X8620000Y5290210D1*
X8603187Y5290870D1*
X8586477Y5292847D1*
X8569973Y5296130D1*
X8553780Y5300697D1*
X8537993Y5306523D1*
X8522713Y5313567D1*
X8508033Y5321787D1*
X8494043Y5331137D1*
X8480830Y5341553D1*
X8468473Y5352973D1*
X8457053Y5365330D1*
X8446637Y5378543D1*
X8437287Y5392533D1*
X8429067Y5407213D1*
X8422023Y5422493D1*
X8416197Y5438280D1*
X8411630Y5454473D1*
X8408347Y5470977D1*
X8406370Y5487687D1*
X8405710Y5504500D1*
X8406370Y5521313D1*
X8408347Y5538023D1*
X8411630Y5554527D1*
X8416197Y5570720D1*
X8422023Y5586507D1*
X8429067Y5601787D1*
X8437287Y5616467D1*
X8446637Y5630457D1*
X8457053Y5643670D1*
X8468473Y5656027D1*
X8480830Y5667447D1*
X8494043Y5677863D1*
X8508033Y5687213D1*
X8522713Y5695433D1*
X8537993Y5702477D1*
X8553780Y5708303D1*
X8569973Y5712870D1*
X8586477Y5716153D1*
X8603187Y5718130D1*
X8620000Y5718790D1*
X8636813Y5718130D1*
X8653523Y5716153D1*
X8670027Y5712870D1*
X8686220Y5708303D1*
X8702007Y5702477D1*
X8717287Y5695433D1*
X8731967Y5687213D1*
X8745957Y5677863D1*
X8759170Y5667447D1*
X8771527Y5656027D1*
X8782947Y5643670D1*
X8793363Y5630457D1*
X8802713Y5616467D1*
X8810933Y5601787D1*
X8817977Y5586507D1*
X8823803Y5570720D1*
X8828370Y5554527D1*
X8831653Y5538023D1*
X8833630Y5521313D1*
X8834290Y5504500D1*
X8833630Y5487687D1*
X4007630Y7793687D2*
X4005653Y7776977D1*
X4002370Y7760473D1*
X3997803Y7744280D1*
X3991977Y7728493D1*
X3984933Y7713213D1*
X3976713Y7698533D1*
X3967363Y7684543D1*
X3956947Y7671330D1*
X3945527Y7658973D1*
X3933170Y7647553D1*
X3919957Y7637137D1*
X3905967Y7627787D1*
X3891287Y7619567D1*
X3876007Y7612523D1*
X3860220Y7606697D1*
X3844027Y7602130D1*
X3827523Y7598847D1*
X3810813Y7596870D1*
X3794000Y7596210D1*
X3777187Y7596870D1*
X3760477Y7598847D1*
X3743973Y7602130D1*
X3727780Y7606697D1*
X3711993Y7612523D1*
X3696713Y7619567D1*
X3682033Y7627787D1*
X3668043Y7637137D1*
X3654830Y7647553D1*
X3642473Y7658973D1*
X3631053Y7671330D1*
X3620637Y7684543D1*
X3611287Y7698533D1*
X3603067Y7713213D1*
X3596023Y7728493D1*
X3590197Y7744280D1*
X3585630Y7760473D1*
X3582347Y7776977D1*
X3580370Y7793687D1*
X3579710Y7810500D1*
X3580370Y7827313D1*
X3582347Y7844023D1*
X3585630Y7860527D1*
X3590197Y7876720D1*
X3596023Y7892507D1*
X3603067Y7907787D1*
X3611287Y7922467D1*
X3620637Y7936457D1*
X3631053Y7949670D1*
X3642473Y7962027D1*
X3654830Y7973447D1*
X3668043Y7983863D1*
X3682033Y7993213D1*
X3696713Y8001433D1*
X3711993Y8008477D1*
X3727780Y8014303D1*
X3743973Y8018870D1*
X3760477Y8022153D1*
X3777187Y8024130D1*
X3794000Y8024790D1*
X3810813Y8024130D1*
X3827523Y8022153D1*
X3844027Y8018870D1*
X3860220Y8014303D1*
X3876007Y8008477D1*
X3891287Y8001433D1*
X3905967Y7993213D1*
X3919957Y7983863D1*
X3933170Y7973447D1*
X3945527Y7962027D1*
X3956947Y7949670D1*
X3967363Y7936457D1*
X3976713Y7922467D1*
X3984933Y7907787D1*
X3991977Y7892507D1*
X3997803Y7876720D1*
X4002370Y7860527D1*
X4005653Y7844023D1*
X4007630Y7827313D1*
X4008290Y7810500D1*
X4007630Y7793687D1*
Y5293687D2*
X4005653Y5276977D1*
X4002370Y5260473D1*
X3997803Y5244280D1*
X3991977Y5228493D1*
X3984933Y5213213D1*
X3976713Y5198533D1*
X3967363Y5184543D1*
X3956947Y5171330D1*
X3945527Y5158973D1*
X3933170Y5147553D1*
X3919957Y5137137D1*
X3905967Y5127787D1*
X3891287Y5119567D1*
X3876007Y5112523D1*
X3860220Y5106697D1*
X3844027Y5102130D1*
X3827523Y5098847D1*
X3810813Y5096870D1*
X3794000Y5096210D1*
X3777187Y5096870D1*
X3760477Y5098847D1*
X3743973Y5102130D1*
X3727780Y5106697D1*
X3711993Y5112523D1*
X3696713Y5119567D1*
X3682033Y5127787D1*
X3668043Y5137137D1*
X3654830Y5147553D1*
X3642473Y5158973D1*
X3631053Y5171330D1*
X3620637Y5184543D1*
X3611287Y5198533D1*
X3603067Y5213213D1*
X3596023Y5228493D1*
X3590197Y5244280D1*
X3585630Y5260473D1*
X3582347Y5276977D1*
X3580370Y5293687D1*
X3579710Y5310500D1*
X3580370Y5327313D1*
X3582347Y5344023D1*
X3585630Y5360527D1*
X3590197Y5376720D1*
X3596023Y5392507D1*
X3603067Y5407787D1*
X3611287Y5422467D1*
X3620637Y5436457D1*
X3631053Y5449670D1*
X3642473Y5462027D1*
X3654830Y5473447D1*
X3668043Y5483863D1*
X3682033Y5493213D1*
X3696713Y5501433D1*
X3711993Y5508477D1*
X3727780Y5514303D1*
X3743973Y5518870D1*
X3760477Y5522153D1*
X3777187Y5524130D1*
X3794000Y5524790D1*
X3810813Y5524130D1*
X3827523Y5522153D1*
X3844027Y5518870D1*
X3860220Y5514303D1*
X3876007Y5508477D1*
X3891287Y5501433D1*
X3905967Y5493213D1*
X3919957Y5483863D1*
X3933170Y5473447D1*
X3945527Y5462027D1*
X3956947Y5449670D1*
X3967363Y5436457D1*
X3976713Y5422467D1*
X3984933Y5407787D1*
X3991977Y5392507D1*
X3997803Y5376720D1*
X4002370Y5360527D1*
X4005653Y5344023D1*
X4007630Y5327313D1*
X4008290Y5310500D1*
X4007630Y5293687D1*
X4769630Y7793687D2*
X4767653Y7776977D1*
X4764370Y7760473D1*
X4759803Y7744280D1*
X4753977Y7728493D1*
X4746933Y7713213D1*
X4738713Y7698533D1*
X4729363Y7684543D1*
X4718947Y7671330D1*
X4707527Y7658973D1*
X4695170Y7647553D1*
X4681957Y7637137D1*
X4667967Y7627787D1*
X4653287Y7619567D1*
X4638007Y7612523D1*
X4622220Y7606697D1*
X4606027Y7602130D1*
X4589523Y7598847D1*
X4572813Y7596870D1*
X4556000Y7596210D1*
X4539187Y7596870D1*
X4522477Y7598847D1*
X4505973Y7602130D1*
X4489780Y7606697D1*
X4473993Y7612523D1*
X4458713Y7619567D1*
X4444033Y7627787D1*
X4430043Y7637137D1*
X4416830Y7647553D1*
X4404473Y7658973D1*
X4393053Y7671330D1*
X4382637Y7684543D1*
X4373287Y7698533D1*
X4365067Y7713213D1*
X4358023Y7728493D1*
X4352197Y7744280D1*
X4347630Y7760473D1*
X4344347Y7776977D1*
X4342370Y7793687D1*
X4341710Y7810500D1*
X4342370Y7827313D1*
X4344347Y7844023D1*
X4347630Y7860527D1*
X4352197Y7876720D1*
X4358023Y7892507D1*
X4365067Y7907787D1*
X4373287Y7922467D1*
X4382637Y7936457D1*
X4393053Y7949670D1*
X4404473Y7962027D1*
X4416830Y7973447D1*
X4430043Y7983863D1*
X4444033Y7993213D1*
X4458713Y8001433D1*
X4473993Y8008477D1*
X4489780Y8014303D1*
X4505973Y8018870D1*
X4522477Y8022153D1*
X4539187Y8024130D1*
X4556000Y8024790D1*
X4572813Y8024130D1*
X4589523Y8022153D1*
X4606027Y8018870D1*
X4622220Y8014303D1*
X4638007Y8008477D1*
X4653287Y8001433D1*
X4667967Y7993213D1*
X4681957Y7983863D1*
X4695170Y7973447D1*
X4707527Y7962027D1*
X4718947Y7949670D1*
X4729363Y7936457D1*
X4738713Y7922467D1*
X4746933Y7907787D1*
X4753977Y7892507D1*
X4759803Y7876720D1*
X4764370Y7860527D1*
X4767653Y7844023D1*
X4769630Y7827313D1*
X4770290Y7810500D1*
X4769630Y7793687D1*
Y5293687D2*
X4767653Y5276977D1*
X4764370Y5260473D1*
X4759803Y5244280D1*
X4753977Y5228493D1*
X4746933Y5213213D1*
X4738713Y5198533D1*
X4729363Y5184543D1*
X4718947Y5171330D1*
X4707527Y5158973D1*
X4695170Y5147553D1*
X4681957Y5137137D1*
X4667967Y5127787D1*
X4653287Y5119567D1*
X4638007Y5112523D1*
X4622220Y5106697D1*
X4606027Y5102130D1*
X4589523Y5098847D1*
X4572813Y5096870D1*
X4556000Y5096210D1*
X4539187Y5096870D1*
X4522477Y5098847D1*
X4505973Y5102130D1*
X4489780Y5106697D1*
X4473993Y5112523D1*
X4458713Y5119567D1*
X4444033Y5127787D1*
X4430043Y5137137D1*
X4416830Y5147553D1*
X4404473Y5158973D1*
X4393053Y5171330D1*
X4382637Y5184543D1*
X4373287Y5198533D1*
X4365067Y5213213D1*
X4358023Y5228493D1*
X4352197Y5244280D1*
X4347630Y5260473D1*
X4344347Y5276977D1*
X4342370Y5293687D1*
X4341710Y5310500D1*
X4342370Y5327313D1*
X4344347Y5344023D1*
X4347630Y5360527D1*
X4352197Y5376720D1*
X4358023Y5392507D1*
X4365067Y5407787D1*
X4373287Y5422467D1*
X4382637Y5436457D1*
X4393053Y5449670D1*
X4404473Y5462027D1*
X4416830Y5473447D1*
X4430043Y5483863D1*
X4444033Y5493213D1*
X4458713Y5501433D1*
X4473993Y5508477D1*
X4489780Y5514303D1*
X4505973Y5518870D1*
X4522477Y5522153D1*
X4539187Y5524130D1*
X4556000Y5524790D1*
X4572813Y5524130D1*
X4589523Y5522153D1*
X4606027Y5518870D1*
X4622220Y5514303D1*
X4638007Y5508477D1*
X4653287Y5501433D1*
X4667967Y5493213D1*
X4681957Y5483863D1*
X4695170Y5473447D1*
X4707527Y5462027D1*
X4718947Y5449670D1*
X4729363Y5436457D1*
X4738713Y5422467D1*
X4746933Y5407787D1*
X4753977Y5392507D1*
X4759803Y5376720D1*
X4764370Y5360527D1*
X4767653Y5344023D1*
X4769630Y5327313D1*
X4770290Y5310500D1*
X4769630Y5293687D1*
X5531630Y7793687D2*
X5529653Y7776977D1*
X5526370Y7760473D1*
X5521803Y7744280D1*
X5515977Y7728493D1*
X5508933Y7713213D1*
X5500713Y7698533D1*
X5491363Y7684543D1*
X5480947Y7671330D1*
X5469527Y7658973D1*
X5457170Y7647553D1*
X5443957Y7637137D1*
X5429967Y7627787D1*
X5415287Y7619567D1*
X5400007Y7612523D1*
X5384220Y7606697D1*
X5368027Y7602130D1*
X5351523Y7598847D1*
X5334813Y7596870D1*
X5318000Y7596210D1*
X5301187Y7596870D1*
X5284477Y7598847D1*
X5267973Y7602130D1*
X5251780Y7606697D1*
X5235993Y7612523D1*
X5220713Y7619567D1*
X5206033Y7627787D1*
X5192043Y7637137D1*
X5178830Y7647553D1*
X5166473Y7658973D1*
X5155053Y7671330D1*
X5144637Y7684543D1*
X5135287Y7698533D1*
X5127067Y7713213D1*
X5120023Y7728493D1*
X5114197Y7744280D1*
X5109630Y7760473D1*
X5106347Y7776977D1*
X5104370Y7793687D1*
X5103710Y7810500D1*
X5104370Y7827313D1*
X5106347Y7844023D1*
X5109630Y7860527D1*
X5114197Y7876720D1*
X5120023Y7892507D1*
X5127067Y7907787D1*
X5135287Y7922467D1*
X5144637Y7936457D1*
X5155053Y7949670D1*
X5166473Y7962027D1*
X5178830Y7973447D1*
X5192043Y7983863D1*
X5206033Y7993213D1*
X5220713Y8001433D1*
X5235993Y8008477D1*
X5251780Y8014303D1*
X5267973Y8018870D1*
X5284477Y8022153D1*
X5301187Y8024130D1*
X5318000Y8024790D1*
X5334813Y8024130D1*
X5351523Y8022153D1*
X5368027Y8018870D1*
X5384220Y8014303D1*
X5400007Y8008477D1*
X5415287Y8001433D1*
X5429967Y7993213D1*
X5443957Y7983863D1*
X5457170Y7973447D1*
X5469527Y7962027D1*
X5480947Y7949670D1*
X5491363Y7936457D1*
X5500713Y7922467D1*
X5508933Y7907787D1*
X5515977Y7892507D1*
X5521803Y7876720D1*
X5526370Y7860527D1*
X5529653Y7844023D1*
X5531630Y7827313D1*
X5532290Y7810500D1*
X5531630Y7793687D1*
Y5293687D2*
X5529653Y5276977D1*
X5526370Y5260473D1*
X5521803Y5244280D1*
X5515977Y5228493D1*
X5508933Y5213213D1*
X5500713Y5198533D1*
X5491363Y5184543D1*
X5480947Y5171330D1*
X5469527Y5158973D1*
X5457170Y5147553D1*
X5443957Y5137137D1*
X5429967Y5127787D1*
X5415287Y5119567D1*
X5400007Y5112523D1*
X5384220Y5106697D1*
X5368027Y5102130D1*
X5351523Y5098847D1*
X5334813Y5096870D1*
X5318000Y5096210D1*
X5301187Y5096870D1*
X5284477Y5098847D1*
X5267973Y5102130D1*
X5251780Y5106697D1*
X5235993Y5112523D1*
X5220713Y5119567D1*
X5206033Y5127787D1*
X5192043Y5137137D1*
X5178830Y5147553D1*
X5166473Y5158973D1*
X5155053Y5171330D1*
X5144637Y5184543D1*
X5135287Y5198533D1*
X5127067Y5213213D1*
X5120023Y5228493D1*
X5114197Y5244280D1*
X5109630Y5260473D1*
X5106347Y5276977D1*
X5104370Y5293687D1*
X5103710Y5310500D1*
X5104370Y5327313D1*
X5106347Y5344023D1*
X5109630Y5360527D1*
X5114197Y5376720D1*
X5120023Y5392507D1*
X5127067Y5407787D1*
X5135287Y5422467D1*
X5144637Y5436457D1*
X5155053Y5449670D1*
X5166473Y5462027D1*
X5178830Y5473447D1*
X5192043Y5483863D1*
X5206033Y5493213D1*
X5220713Y5501433D1*
X5235993Y5508477D1*
X5251780Y5514303D1*
X5267973Y5518870D1*
X5284477Y5522153D1*
X5301187Y5524130D1*
X5318000Y5524790D1*
X5334813Y5524130D1*
X5351523Y5522153D1*
X5368027Y5518870D1*
X5384220Y5514303D1*
X5400007Y5508477D1*
X5415287Y5501433D1*
X5429967Y5493213D1*
X5443957Y5483863D1*
X5457170Y5473447D1*
X5469527Y5462027D1*
X5480947Y5449670D1*
X5491363Y5436457D1*
X5500713Y5422467D1*
X5508933Y5407787D1*
X5515977Y5392507D1*
X5521803Y5376720D1*
X5526370Y5360527D1*
X5529653Y5344023D1*
X5531630Y5327313D1*
X5532290Y5310500D1*
X5531630Y5293687D1*
X6293630Y7793687D2*
X6291653Y7776977D1*
X6288370Y7760473D1*
X6283803Y7744280D1*
X6277977Y7728493D1*
X6270933Y7713213D1*
X6262713Y7698533D1*
X6253363Y7684543D1*
X6242947Y7671330D1*
X6231527Y7658973D1*
X6219170Y7647553D1*
X6205957Y7637137D1*
X6191967Y7627787D1*
X6177287Y7619567D1*
X6162007Y7612523D1*
X6146220Y7606697D1*
X6130027Y7602130D1*
X6113523Y7598847D1*
X6096813Y7596870D1*
X6080000Y7596210D1*
X6063187Y7596870D1*
X6046477Y7598847D1*
X6029973Y7602130D1*
X6013780Y7606697D1*
X5997993Y7612523D1*
X5982713Y7619567D1*
X5968033Y7627787D1*
X5954043Y7637137D1*
X5940830Y7647553D1*
X5928473Y7658973D1*
X5917053Y7671330D1*
X5906637Y7684543D1*
X5897287Y7698533D1*
X5889067Y7713213D1*
X5882023Y7728493D1*
X5876197Y7744280D1*
X5871630Y7760473D1*
X5868347Y7776977D1*
X5866370Y7793687D1*
X5865710Y7810500D1*
X5866370Y7827313D1*
X5868347Y7844023D1*
X5871630Y7860527D1*
X5876197Y7876720D1*
X5882023Y7892507D1*
X5889067Y7907787D1*
X5897287Y7922467D1*
X5906637Y7936457D1*
X5917053Y7949670D1*
X5928473Y7962027D1*
X5940830Y7973447D1*
X5954043Y7983863D1*
X5968033Y7993213D1*
X5982713Y8001433D1*
X5997993Y8008477D1*
X6013780Y8014303D1*
X6029973Y8018870D1*
X6046477Y8022153D1*
X6063187Y8024130D1*
X6080000Y8024790D1*
X6096813Y8024130D1*
X6113523Y8022153D1*
X6130027Y8018870D1*
X6146220Y8014303D1*
X6162007Y8008477D1*
X6177287Y8001433D1*
X6191967Y7993213D1*
X6205957Y7983863D1*
X6219170Y7973447D1*
X6231527Y7962027D1*
X6242947Y7949670D1*
X6253363Y7936457D1*
X6262713Y7922467D1*
X6270933Y7907787D1*
X6277977Y7892507D1*
X6283803Y7876720D1*
X6288370Y7860527D1*
X6291653Y7844023D1*
X6293630Y7827313D1*
X6294290Y7810500D1*
X6293630Y7793687D1*
Y5293687D2*
X6291653Y5276977D1*
X6288370Y5260473D1*
X6283803Y5244280D1*
X6277977Y5228493D1*
X6270933Y5213213D1*
X6262713Y5198533D1*
X6253363Y5184543D1*
X6242947Y5171330D1*
X6231527Y5158973D1*
X6219170Y5147553D1*
X6205957Y5137137D1*
X6191967Y5127787D1*
X6177287Y5119567D1*
X6162007Y5112523D1*
X6146220Y5106697D1*
X6130027Y5102130D1*
X6113523Y5098847D1*
X6096813Y5096870D1*
X6080000Y5096210D1*
X6063187Y5096870D1*
X6046477Y5098847D1*
X6029973Y5102130D1*
X6013780Y5106697D1*
X5997993Y5112523D1*
X5982713Y5119567D1*
X5968033Y5127787D1*
X5954043Y5137137D1*
X5940830Y5147553D1*
X5928473Y5158973D1*
X5917053Y5171330D1*
X5906637Y5184543D1*
X5897287Y5198533D1*
X5889067Y5213213D1*
X5882023Y5228493D1*
X5876197Y5244280D1*
X5871630Y5260473D1*
X5868347Y5276977D1*
X5866370Y5293687D1*
X5865710Y5310500D1*
X5866370Y5327313D1*
X5868347Y5344023D1*
X5871630Y5360527D1*
X5876197Y5376720D1*
X5882023Y5392507D1*
X5889067Y5407787D1*
X5897287Y5422467D1*
X5906637Y5436457D1*
X5917053Y5449670D1*
X5928473Y5462027D1*
X5940830Y5473447D1*
X5954043Y5483863D1*
X5968033Y5493213D1*
X5982713Y5501433D1*
X5997993Y5508477D1*
X6013780Y5514303D1*
X6029973Y5518870D1*
X6046477Y5522153D1*
X6063187Y5524130D1*
X6080000Y5524790D1*
X6096813Y5524130D1*
X6113523Y5522153D1*
X6130027Y5518870D1*
X6146220Y5514303D1*
X6162007Y5508477D1*
X6177287Y5501433D1*
X6191967Y5493213D1*
X6205957Y5483863D1*
X6219170Y5473447D1*
X6231527Y5462027D1*
X6242947Y5449670D1*
X6253363Y5436457D1*
X6262713Y5422467D1*
X6270933Y5407787D1*
X6277977Y5392507D1*
X6283803Y5376720D1*
X6288370Y5360527D1*
X6291653Y5344023D1*
X6293630Y5327313D1*
X6294290Y5310500D1*
X6293630Y5293687D1*
X15437630Y5467687D2*
X15435653Y5450977D1*
X15432370Y5434473D1*
X15427803Y5418280D1*
X15421977Y5402493D1*
X15414933Y5387213D1*
X15406713Y5372533D1*
X15397363Y5358543D1*
X15386947Y5345330D1*
X15375527Y5332973D1*
X15363170Y5321553D1*
X15349957Y5311137D1*
X15335967Y5301787D1*
X15321287Y5293567D1*
X15306007Y5286523D1*
X15290220Y5280697D1*
X15274027Y5276130D1*
X15257523Y5272847D1*
X15240813Y5270870D1*
X15224000Y5270210D1*
X15207187Y5270870D1*
X15190477Y5272847D1*
X15173973Y5276130D1*
X15157780Y5280697D1*
X15141993Y5286523D1*
X15126713Y5293567D1*
X15112033Y5301787D1*
X15098043Y5311137D1*
X15084830Y5321553D1*
X15072473Y5332973D1*
X15061053Y5345330D1*
X15050637Y5358543D1*
X15041287Y5372533D1*
X15033067Y5387213D1*
X15026023Y5402493D1*
X15020197Y5418280D1*
X15015630Y5434473D1*
X15012347Y5450977D1*
X15010370Y5467687D1*
X15009710Y5484500D1*
X15010370Y5501313D1*
X15012347Y5518023D1*
X15015630Y5534527D1*
X15020197Y5550720D1*
X15026023Y5566507D1*
X15033067Y5581787D1*
X15041287Y5596467D1*
X15050637Y5610457D1*
X15061053Y5623670D1*
X15072473Y5636027D1*
X15084830Y5647447D1*
X15098043Y5657863D1*
X15112033Y5667213D1*
X15126713Y5675433D1*
X15141993Y5682477D1*
X15157780Y5688303D1*
X15173973Y5692870D1*
X15190477Y5696153D1*
X15207187Y5698130D1*
X15224000Y5698790D1*
X15240813Y5698130D1*
X15257523Y5696153D1*
X15274027Y5692870D1*
X15290220Y5688303D1*
X15306007Y5682477D1*
X15321287Y5675433D1*
X15335967Y5667213D1*
X15349957Y5657863D1*
X15363170Y5647447D1*
X15375527Y5636027D1*
X15386947Y5623670D1*
X15397363Y5610457D1*
X15406713Y5596467D1*
X15414933Y5581787D1*
X15421977Y5566507D1*
X15427803Y5550720D1*
X15432370Y5534527D1*
X15435653Y5518023D1*
X15437630Y5501313D1*
X15438290Y5484500D1*
X15437630Y5467687D1*
X15438240Y2979833D2*
X15436463Y2956580D1*
X15432170Y2933657D1*
X15425413Y2911337D1*
X15416270Y2889880D1*
X15404847Y2869547D1*
X15391283Y2850573D1*
X15375740Y2833190D1*
X15358397Y2817593D1*
X15339463Y2803977D1*
X15319163Y2792500D1*
X15297733Y2783293D1*
X15275433Y2776473D1*
X15252520Y2772117D1*
X15229273Y2770273D1*
X15205960Y2770970D1*
X15182863Y2774197D1*
X15160253Y2779910D1*
X15138397Y2788050D1*
X15117557Y2798517D1*
X15097973Y2811187D1*
X15079887Y2825907D1*
X15063507Y2842507D1*
X15049027Y2860790D1*
X15036617Y2880537D1*
X15026430Y2901517D1*
X15018583Y2923477D1*
X15013167Y2946163D1*
X15010250Y2969300D1*
X15009863Y2992620D1*
X15012013Y3015843D1*
X15016677Y3038693D1*
X15023793Y3060903D1*
X15033280Y3082207D1*
X15045030Y3102353D1*
X15058897Y3121107D1*
X15074720Y3138237D1*
X15092310Y3153550D1*
X15111460Y3166860D1*
X15131943Y3178010D1*
X15153520Y3186867D1*
X15175927Y3193330D1*
X15198907Y3197317D1*
X15222183Y3198783D1*
X15245480Y3197710D1*
X15268523Y3194113D1*
X15291037Y3188033D1*
X15312760Y3179543D1*
X15333430Y3168743D1*
X15352803Y3155760D1*
X15370650Y3140750D1*
X15386763Y3123887D1*
X15400947Y3105373D1*
X15413033Y3085430D1*
X15422883Y3064287D1*
X15430373Y3042203D1*
X15435423Y3019433D1*
X15437967Y2996250D1*
X15438240Y2979833D1*
X16199630Y5467687D2*
X16197653Y5450977D1*
X16194370Y5434473D1*
X16189803Y5418280D1*
X16183977Y5402493D1*
X16176933Y5387213D1*
X16168713Y5372533D1*
X16159363Y5358543D1*
X16148947Y5345330D1*
X16137527Y5332973D1*
X16125170Y5321553D1*
X16111957Y5311137D1*
X16097967Y5301787D1*
X16083287Y5293567D1*
X16068007Y5286523D1*
X16052220Y5280697D1*
X16036027Y5276130D1*
X16019523Y5272847D1*
X16002813Y5270870D1*
X15986000Y5270210D1*
X15969187Y5270870D1*
X15952477Y5272847D1*
X15935973Y5276130D1*
X15919780Y5280697D1*
X15903993Y5286523D1*
X15888713Y5293567D1*
X15874033Y5301787D1*
X15860043Y5311137D1*
X15846830Y5321553D1*
X15834473Y5332973D1*
X15823053Y5345330D1*
X15812637Y5358543D1*
X15803287Y5372533D1*
X15795067Y5387213D1*
X15788023Y5402493D1*
X15782197Y5418280D1*
X15777630Y5434473D1*
X15774347Y5450977D1*
X15772370Y5467687D1*
X15771710Y5484500D1*
X15772370Y5501313D1*
X15774347Y5518023D1*
X15777630Y5534527D1*
X15782197Y5550720D1*
X15788023Y5566507D1*
X15795067Y5581787D1*
X15803287Y5596467D1*
X15812637Y5610457D1*
X15823053Y5623670D1*
X15834473Y5636027D1*
X15846830Y5647447D1*
X15860043Y5657863D1*
X15874033Y5667213D1*
X15888713Y5675433D1*
X15903993Y5682477D1*
X15919780Y5688303D1*
X15935973Y5692870D1*
X15952477Y5696153D1*
X15969187Y5698130D1*
X15986000Y5698790D1*
X16002813Y5698130D1*
X16019523Y5696153D1*
X16036027Y5692870D1*
X16052220Y5688303D1*
X16068007Y5682477D1*
X16083287Y5675433D1*
X16097967Y5667213D1*
X16111957Y5657863D1*
X16125170Y5647447D1*
X16137527Y5636027D1*
X16148947Y5623670D1*
X16159363Y5610457D1*
X16168713Y5596467D1*
X16176933Y5581787D1*
X16183977Y5566507D1*
X16189803Y5550720D1*
X16194370Y5534527D1*
X16197653Y5518023D1*
X16199630Y5501313D1*
X16200290Y5484500D1*
X16199630Y5467687D1*
X16200240Y2979833D2*
X16198463Y2956580D1*
X16194170Y2933657D1*
X16187413Y2911337D1*
X16178270Y2889880D1*
X16166847Y2869547D1*
X16153283Y2850573D1*
X16137740Y2833190D1*
X16120397Y2817593D1*
X16101463Y2803977D1*
X16081163Y2792500D1*
X16059733Y2783293D1*
X16037433Y2776473D1*
X16014520Y2772117D1*
X15991273Y2770273D1*
X15967960Y2770970D1*
X15944863Y2774197D1*
X15922253Y2779910D1*
X15900397Y2788050D1*
X15879557Y2798517D1*
X15859973Y2811187D1*
X15841887Y2825907D1*
X15825507Y2842507D1*
X15811027Y2860790D1*
X15798617Y2880537D1*
X15788430Y2901517D1*
X15780583Y2923477D1*
X15775167Y2946163D1*
X15772250Y2969300D1*
X15771863Y2992620D1*
X15774013Y3015843D1*
X15778677Y3038693D1*
X15785793Y3060903D1*
X15795280Y3082207D1*
X15807030Y3102353D1*
X15820897Y3121107D1*
X15836720Y3138237D1*
X15854310Y3153550D1*
X15873460Y3166860D1*
X15893943Y3178010D1*
X15915520Y3186867D1*
X15937927Y3193330D1*
X15960907Y3197317D1*
X15984183Y3198783D1*
X16007480Y3197710D1*
X16030523Y3194113D1*
X16053037Y3188033D1*
X16074760Y3179543D1*
X16095430Y3168743D1*
X16114803Y3155760D1*
X16132650Y3140750D1*
X16148763Y3123887D1*
X16162947Y3105373D1*
X16175033Y3085430D1*
X16184883Y3064287D1*
X16192373Y3042203D1*
X16197423Y3019433D1*
X16199967Y2996250D1*
X16200240Y2979833D1*
X17977630Y7793687D2*
X17975653Y7776977D1*
X17972370Y7760473D1*
X17967803Y7744280D1*
X17961977Y7728493D1*
X17954933Y7713213D1*
X17946713Y7698533D1*
X17937363Y7684543D1*
X17926947Y7671330D1*
X17915527Y7658973D1*
X17903170Y7647553D1*
X17889957Y7637137D1*
X17875967Y7627787D1*
X17861287Y7619567D1*
X17846007Y7612523D1*
X17830220Y7606697D1*
X17814027Y7602130D1*
X17797523Y7598847D1*
X17780813Y7596870D1*
X17764000Y7596210D1*
X17747187Y7596870D1*
X17730477Y7598847D1*
X17713973Y7602130D1*
X17697780Y7606697D1*
X17681993Y7612523D1*
X17666713Y7619567D1*
X17652033Y7627787D1*
X17638043Y7637137D1*
X17624830Y7647553D1*
X17612473Y7658973D1*
X17601053Y7671330D1*
X17590637Y7684543D1*
X17581287Y7698533D1*
X17573067Y7713213D1*
X17566023Y7728493D1*
X17560197Y7744280D1*
X17555630Y7760473D1*
X17552347Y7776977D1*
X17550370Y7793687D1*
X17549710Y7810500D1*
X17550370Y7827313D1*
X17552347Y7844023D1*
X17555630Y7860527D1*
X17560197Y7876720D1*
X17566023Y7892507D1*
X17573067Y7907787D1*
X17581287Y7922467D1*
X17590637Y7936457D1*
X17601053Y7949670D1*
X17612473Y7962027D1*
X17624830Y7973447D1*
X17638043Y7983863D1*
X17652033Y7993213D1*
X17666713Y8001433D1*
X17681993Y8008477D1*
X17697780Y8014303D1*
X17713973Y8018870D1*
X17730477Y8022153D1*
X17747187Y8024130D1*
X17764000Y8024790D1*
X17780813Y8024130D1*
X17797523Y8022153D1*
X17814027Y8018870D1*
X17830220Y8014303D1*
X17846007Y8008477D1*
X17861287Y8001433D1*
X17875967Y7993213D1*
X17889957Y7983863D1*
X17903170Y7973447D1*
X17915527Y7962027D1*
X17926947Y7949670D1*
X17937363Y7936457D1*
X17946713Y7922467D1*
X17954933Y7907787D1*
X17961977Y7892507D1*
X17967803Y7876720D1*
X17972370Y7860527D1*
X17975653Y7844023D1*
X17977630Y7827313D1*
X17978290Y7810500D1*
X17977630Y7793687D1*
Y5293687D2*
X17975653Y5276977D1*
X17972370Y5260473D1*
X17967803Y5244280D1*
X17961977Y5228493D1*
X17954933Y5213213D1*
X17946713Y5198533D1*
X17937363Y5184543D1*
X17926947Y5171330D1*
X17915527Y5158973D1*
X17903170Y5147553D1*
X17889957Y5137137D1*
X17875967Y5127787D1*
X17861287Y5119567D1*
X17846007Y5112523D1*
X17830220Y5106697D1*
X17814027Y5102130D1*
X17797523Y5098847D1*
X17780813Y5096870D1*
X17764000Y5096210D1*
X17747187Y5096870D1*
X17730477Y5098847D1*
X17713973Y5102130D1*
X17697780Y5106697D1*
X17681993Y5112523D1*
X17666713Y5119567D1*
X17652033Y5127787D1*
X17638043Y5137137D1*
X17624830Y5147553D1*
X17612473Y5158973D1*
X17601053Y5171330D1*
X17590637Y5184543D1*
X17581287Y5198533D1*
X17573067Y5213213D1*
X17566023Y5228493D1*
X17560197Y5244280D1*
X17555630Y5260473D1*
X17552347Y5276977D1*
X17550370Y5293687D1*
X17549710Y5310500D1*
X17550370Y5327313D1*
X17552347Y5344023D1*
X17555630Y5360527D1*
X17560197Y5376720D1*
X17566023Y5392507D1*
X17573067Y5407787D1*
X17581287Y5422467D1*
X17590637Y5436457D1*
X17601053Y5449670D1*
X17612473Y5462027D1*
X17624830Y5473447D1*
X17638043Y5483863D1*
X17652033Y5493213D1*
X17666713Y5501433D1*
X17681993Y5508477D1*
X17697780Y5514303D1*
X17713973Y5518870D1*
X17730477Y5522153D1*
X17747187Y5524130D1*
X17764000Y5524790D1*
X17780813Y5524130D1*
X17797523Y5522153D1*
X17814027Y5518870D1*
X17830220Y5514303D1*
X17846007Y5508477D1*
X17861287Y5501433D1*
X17875967Y5493213D1*
X17889957Y5483863D1*
X17903170Y5473447D1*
X17915527Y5462027D1*
X17926947Y5449670D1*
X17937363Y5436457D1*
X17946713Y5422467D1*
X17954933Y5407787D1*
X17961977Y5392507D1*
X17967803Y5376720D1*
X17972370Y5360527D1*
X17975653Y5344023D1*
X17977630Y5327313D1*
X17978290Y5310500D1*
X17977630Y5293687D1*
X18739630Y7793687D2*
X18737653Y7776977D1*
X18734370Y7760473D1*
X18729803Y7744280D1*
X18723977Y7728493D1*
X18716933Y7713213D1*
X18708713Y7698533D1*
X18699363Y7684543D1*
X18688947Y7671330D1*
X18677527Y7658973D1*
X18665170Y7647553D1*
X18651957Y7637137D1*
X18637967Y7627787D1*
X18623287Y7619567D1*
X18608007Y7612523D1*
X18592220Y7606697D1*
X18576027Y7602130D1*
X18559523Y7598847D1*
X18542813Y7596870D1*
X18526000Y7596210D1*
X18509187Y7596870D1*
X18492477Y7598847D1*
X18475973Y7602130D1*
X18459780Y7606697D1*
X18443993Y7612523D1*
X18428713Y7619567D1*
X18414033Y7627787D1*
X18400043Y7637137D1*
X18386830Y7647553D1*
X18374473Y7658973D1*
X18363053Y7671330D1*
X18352637Y7684543D1*
X18343287Y7698533D1*
X18335067Y7713213D1*
X18328023Y7728493D1*
X18322197Y7744280D1*
X18317630Y7760473D1*
X18314347Y7776977D1*
X18312370Y7793687D1*
X18311710Y7810500D1*
X18312370Y7827313D1*
X18314347Y7844023D1*
X18317630Y7860527D1*
X18322197Y7876720D1*
X18328023Y7892507D1*
X18335067Y7907787D1*
X18343287Y7922467D1*
X18352637Y7936457D1*
X18363053Y7949670D1*
X18374473Y7962027D1*
X18386830Y7973447D1*
X18400043Y7983863D1*
X18414033Y7993213D1*
X18428713Y8001433D1*
X18443993Y8008477D1*
X18459780Y8014303D1*
X18475973Y8018870D1*
X18492477Y8022153D1*
X18509187Y8024130D1*
X18526000Y8024790D1*
X18542813Y8024130D1*
X18559523Y8022153D1*
X18576027Y8018870D1*
X18592220Y8014303D1*
X18608007Y8008477D1*
X18623287Y8001433D1*
X18637967Y7993213D1*
X18651957Y7983863D1*
X18665170Y7973447D1*
X18677527Y7962027D1*
X18688947Y7949670D1*
X18699363Y7936457D1*
X18708713Y7922467D1*
X18716933Y7907787D1*
X18723977Y7892507D1*
X18729803Y7876720D1*
X18734370Y7860527D1*
X18737653Y7844023D1*
X18739630Y7827313D1*
X18740290Y7810500D1*
X18739630Y7793687D1*
Y5293687D2*
X18737653Y5276977D1*
X18734370Y5260473D1*
X18729803Y5244280D1*
X18723977Y5228493D1*
X18716933Y5213213D1*
X18708713Y5198533D1*
X18699363Y5184543D1*
X18688947Y5171330D1*
X18677527Y5158973D1*
X18665170Y5147553D1*
X18651957Y5137137D1*
X18637967Y5127787D1*
X18623287Y5119567D1*
X18608007Y5112523D1*
X18592220Y5106697D1*
X18576027Y5102130D1*
X18559523Y5098847D1*
X18542813Y5096870D1*
X18526000Y5096210D1*
X18509187Y5096870D1*
X18492477Y5098847D1*
X18475973Y5102130D1*
X18459780Y5106697D1*
X18443993Y5112523D1*
X18428713Y5119567D1*
X18414033Y5127787D1*
X18400043Y5137137D1*
X18386830Y5147553D1*
X18374473Y5158973D1*
X18363053Y5171330D1*
X18352637Y5184543D1*
X18343287Y5198533D1*
X18335067Y5213213D1*
X18328023Y5228493D1*
X18322197Y5244280D1*
X18317630Y5260473D1*
X18314347Y5276977D1*
X18312370Y5293687D1*
X18311710Y5310500D1*
X18312370Y5327313D1*
X18314347Y5344023D1*
X18317630Y5360527D1*
X18322197Y5376720D1*
X18328023Y5392507D1*
X18335067Y5407787D1*
X18343287Y5422467D1*
X18352637Y5436457D1*
X18363053Y5449670D1*
X18374473Y5462027D1*
X18386830Y5473447D1*
X18400043Y5483863D1*
X18414033Y5493213D1*
X18428713Y5501433D1*
X18443993Y5508477D1*
X18459780Y5514303D1*
X18475973Y5518870D1*
X18492477Y5522153D1*
X18509187Y5524130D1*
X18526000Y5524790D1*
X18542813Y5524130D1*
X18559523Y5522153D1*
X18576027Y5518870D1*
X18592220Y5514303D1*
X18608007Y5508477D1*
X18623287Y5501433D1*
X18637967Y5493213D1*
X18651957Y5483863D1*
X18665170Y5473447D1*
X18677527Y5462027D1*
X18688947Y5449670D1*
X18699363Y5436457D1*
X18708713Y5422467D1*
X18716933Y5407787D1*
X18723977Y5392507D1*
X18729803Y5376720D1*
X18734370Y5360527D1*
X18737653Y5344023D1*
X18739630Y5327313D1*
X18740290Y5310500D1*
X18739630Y5293687D1*
X19501630Y7793687D2*
X19499653Y7776977D1*
X19496370Y7760473D1*
X19491803Y7744280D1*
X19485977Y7728493D1*
X19478933Y7713213D1*
X19470713Y7698533D1*
X19461363Y7684543D1*
X19450947Y7671330D1*
X19439527Y7658973D1*
X19427170Y7647553D1*
X19413957Y7637137D1*
X19399967Y7627787D1*
X19385287Y7619567D1*
X19370007Y7612523D1*
X19354220Y7606697D1*
X19338027Y7602130D1*
X19321523Y7598847D1*
X19304813Y7596870D1*
X19288000Y7596210D1*
X19271187Y7596870D1*
X19254477Y7598847D1*
X19237973Y7602130D1*
X19221780Y7606697D1*
X19205993Y7612523D1*
X19190713Y7619567D1*
X19176033Y7627787D1*
X19162043Y7637137D1*
X19148830Y7647553D1*
X19136473Y7658973D1*
X19125053Y7671330D1*
X19114637Y7684543D1*
X19105287Y7698533D1*
X19097067Y7713213D1*
X19090023Y7728493D1*
X19084197Y7744280D1*
X19079630Y7760473D1*
X19076347Y7776977D1*
X19074370Y7793687D1*
X19073710Y7810500D1*
X19074370Y7827313D1*
X19076347Y7844023D1*
X19079630Y7860527D1*
X19084197Y7876720D1*
X19090023Y7892507D1*
X19097067Y7907787D1*
X19105287Y7922467D1*
X19114637Y7936457D1*
X19125053Y7949670D1*
X19136473Y7962027D1*
X19148830Y7973447D1*
X19162043Y7983863D1*
X19176033Y7993213D1*
X19190713Y8001433D1*
X19205993Y8008477D1*
X19221780Y8014303D1*
X19237973Y8018870D1*
X19254477Y8022153D1*
X19271187Y8024130D1*
X19288000Y8024790D1*
X19304813Y8024130D1*
X19321523Y8022153D1*
X19338027Y8018870D1*
X19354220Y8014303D1*
X19370007Y8008477D1*
X19385287Y8001433D1*
X19399967Y7993213D1*
X19413957Y7983863D1*
X19427170Y7973447D1*
X19439527Y7962027D1*
X19450947Y7949670D1*
X19461363Y7936457D1*
X19470713Y7922467D1*
X19478933Y7907787D1*
X19485977Y7892507D1*
X19491803Y7876720D1*
X19496370Y7860527D1*
X19499653Y7844023D1*
X19501630Y7827313D1*
X19502290Y7810500D1*
X19501630Y7793687D1*
Y5293687D2*
X19499653Y5276977D1*
X19496370Y5260473D1*
X19491803Y5244280D1*
X19485977Y5228493D1*
X19478933Y5213213D1*
X19470713Y5198533D1*
X19461363Y5184543D1*
X19450947Y5171330D1*
X19439527Y5158973D1*
X19427170Y5147553D1*
X19413957Y5137137D1*
X19399967Y5127787D1*
X19385287Y5119567D1*
X19370007Y5112523D1*
X19354220Y5106697D1*
X19338027Y5102130D1*
X19321523Y5098847D1*
X19304813Y5096870D1*
X19288000Y5096210D1*
X19271187Y5096870D1*
X19254477Y5098847D1*
X19237973Y5102130D1*
X19221780Y5106697D1*
X19205993Y5112523D1*
X19190713Y5119567D1*
X19176033Y5127787D1*
X19162043Y5137137D1*
X19148830Y5147553D1*
X19136473Y5158973D1*
X19125053Y5171330D1*
X19114637Y5184543D1*
X19105287Y5198533D1*
X19097067Y5213213D1*
X19090023Y5228493D1*
X19084197Y5244280D1*
X19079630Y5260473D1*
X19076347Y5276977D1*
X19074370Y5293687D1*
X19073710Y5310500D1*
X19074370Y5327313D1*
X19076347Y5344023D1*
X19079630Y5360527D1*
X19084197Y5376720D1*
X19090023Y5392507D1*
X19097067Y5407787D1*
X19105287Y5422467D1*
X19114637Y5436457D1*
X19125053Y5449670D1*
X19136473Y5462027D1*
X19148830Y5473447D1*
X19162043Y5483863D1*
X19176033Y5493213D1*
X19190713Y5501433D1*
X19205993Y5508477D1*
X19221780Y5514303D1*
X19237973Y5518870D1*
X19254477Y5522153D1*
X19271187Y5524130D1*
X19288000Y5524790D1*
X19304813Y5524130D1*
X19321523Y5522153D1*
X19338027Y5518870D1*
X19354220Y5514303D1*
X19370007Y5508477D1*
X19385287Y5501433D1*
X19399967Y5493213D1*
X19413957Y5483863D1*
X19427170Y5473447D1*
X19439527Y5462027D1*
X19450947Y5449670D1*
X19461363Y5436457D1*
X19470713Y5422467D1*
X19478933Y5407787D1*
X19485977Y5392507D1*
X19491803Y5376720D1*
X19496370Y5360527D1*
X19499653Y5344023D1*
X19501630Y5327313D1*
X19502290Y5310500D1*
X19501630Y5293687D1*
X20263630Y7793687D2*
X20261653Y7776977D1*
X20258370Y7760473D1*
X20253803Y7744280D1*
X20247977Y7728493D1*
X20240933Y7713213D1*
X20232713Y7698533D1*
X20223363Y7684543D1*
X20212947Y7671330D1*
X20201527Y7658973D1*
X20189170Y7647553D1*
X20175957Y7637137D1*
X20161967Y7627787D1*
X20147287Y7619567D1*
X20132007Y7612523D1*
X20116220Y7606697D1*
X20100027Y7602130D1*
X20083523Y7598847D1*
X20066813Y7596870D1*
X20050000Y7596210D1*
X20033187Y7596870D1*
X20016477Y7598847D1*
X19999973Y7602130D1*
X19983780Y7606697D1*
X19967993Y7612523D1*
X19952713Y7619567D1*
X19938033Y7627787D1*
X19924043Y7637137D1*
X19910830Y7647553D1*
X19898473Y7658973D1*
X19887053Y7671330D1*
X19876637Y7684543D1*
X19867287Y7698533D1*
X19859067Y7713213D1*
X19852023Y7728493D1*
X19846197Y7744280D1*
X19841630Y7760473D1*
X19838347Y7776977D1*
X19836370Y7793687D1*
X19835710Y7810500D1*
X19836370Y7827313D1*
X19838347Y7844023D1*
X19841630Y7860527D1*
X19846197Y7876720D1*
X19852023Y7892507D1*
X19859067Y7907787D1*
X19867287Y7922467D1*
X19876637Y7936457D1*
X19887053Y7949670D1*
X19898473Y7962027D1*
X19910830Y7973447D1*
X19924043Y7983863D1*
X19938033Y7993213D1*
X19952713Y8001433D1*
X19967993Y8008477D1*
X19983780Y8014303D1*
X19999973Y8018870D1*
X20016477Y8022153D1*
X20033187Y8024130D1*
X20050000Y8024790D1*
X20066813Y8024130D1*
X20083523Y8022153D1*
X20100027Y8018870D1*
X20116220Y8014303D1*
X20132007Y8008477D1*
X20147287Y8001433D1*
X20161967Y7993213D1*
X20175957Y7983863D1*
X20189170Y7973447D1*
X20201527Y7962027D1*
X20212947Y7949670D1*
X20223363Y7936457D1*
X20232713Y7922467D1*
X20240933Y7907787D1*
X20247977Y7892507D1*
X20253803Y7876720D1*
X20258370Y7860527D1*
X20261653Y7844023D1*
X20263630Y7827313D1*
X20264290Y7810500D1*
X20263630Y7793687D1*
Y5293687D2*
X20261653Y5276977D1*
X20258370Y5260473D1*
X20253803Y5244280D1*
X20247977Y5228493D1*
X20240933Y5213213D1*
X20232713Y5198533D1*
X20223363Y5184543D1*
X20212947Y5171330D1*
X20201527Y5158973D1*
X20189170Y5147553D1*
X20175957Y5137137D1*
X20161967Y5127787D1*
X20147287Y5119567D1*
X20132007Y5112523D1*
X20116220Y5106697D1*
X20100027Y5102130D1*
X20083523Y5098847D1*
X20066813Y5096870D1*
X20050000Y5096210D1*
X20033187Y5096870D1*
X20016477Y5098847D1*
X19999973Y5102130D1*
X19983780Y5106697D1*
X19967993Y5112523D1*
X19952713Y5119567D1*
X19938033Y5127787D1*
X19924043Y5137137D1*
X19910830Y5147553D1*
X19898473Y5158973D1*
X19887053Y5171330D1*
X19876637Y5184543D1*
X19867287Y5198533D1*
X19859067Y5213213D1*
X19852023Y5228493D1*
X19846197Y5244280D1*
X19841630Y5260473D1*
X19838347Y5276977D1*
X19836370Y5293687D1*
X19835710Y5310500D1*
X19836370Y5327313D1*
X19838347Y5344023D1*
X19841630Y5360527D1*
X19846197Y5376720D1*
X19852023Y5392507D1*
X19859067Y5407787D1*
X19867287Y5422467D1*
X19876637Y5436457D1*
X19887053Y5449670D1*
X19898473Y5462027D1*
X19910830Y5473447D1*
X19924043Y5483863D1*
X19938033Y5493213D1*
X19952713Y5501433D1*
X19967993Y5508477D1*
X19983780Y5514303D1*
X19999973Y5518870D1*
X20016477Y5522153D1*
X20033187Y5524130D1*
X20050000Y5524790D1*
X20066813Y5524130D1*
X20083523Y5522153D1*
X20100027Y5518870D1*
X20116220Y5514303D1*
X20132007Y5508477D1*
X20147287Y5501433D1*
X20161967Y5493213D1*
X20175957Y5483863D1*
X20189170Y5473447D1*
X20201527Y5462027D1*
X20212947Y5449670D1*
X20223363Y5436457D1*
X20232713Y5422467D1*
X20240933Y5407787D1*
X20247977Y5392507D1*
X20253803Y5376720D1*
X20258370Y5360527D1*
X20261653Y5344023D1*
X20263630Y5327313D1*
X20264290Y5310500D1*
X20263630Y5293687D1*
X4286240Y11371833D2*
X4284463Y11348580D1*
X4280170Y11325657D1*
X4273413Y11303337D1*
X4264270Y11281880D1*
X4252847Y11261547D1*
X4239283Y11242573D1*
X4223740Y11225190D1*
X4206397Y11209593D1*
X4187463Y11195977D1*
X4167163Y11184500D1*
X4145733Y11175293D1*
X4123433Y11168473D1*
X4100520Y11164117D1*
X4077273Y11162273D1*
X4053960Y11162970D1*
X4030863Y11166197D1*
X4008253Y11171910D1*
X3986397Y11180050D1*
X3965557Y11190517D1*
X3945973Y11203187D1*
X3927887Y11217907D1*
X3911507Y11234507D1*
X3897027Y11252790D1*
X3884617Y11272537D1*
X3874430Y11293517D1*
X3866583Y11315477D1*
X3861167Y11338163D1*
X3858250Y11361300D1*
X3857863Y11384620D1*
X3860013Y11407843D1*
X3864677Y11430693D1*
X3871793Y11452903D1*
X3881280Y11474207D1*
X3893030Y11494353D1*
X3906897Y11513107D1*
X3922720Y11530237D1*
X3940310Y11545550D1*
X3959460Y11558860D1*
X3979943Y11570010D1*
X4001520Y11578867D1*
X4023927Y11585330D1*
X4046907Y11589317D1*
X4070183Y11590783D1*
X4093480Y11589710D1*
X4116523Y11586113D1*
X4139037Y11580033D1*
X4160760Y11571543D1*
X4181430Y11560743D1*
X4200803Y11547760D1*
X4218650Y11532750D1*
X4234763Y11515887D1*
X4248947Y11497373D1*
X4261033Y11477430D1*
X4270883Y11456287D1*
X4278373Y11434203D1*
X4283423Y11411433D1*
X4285967Y11388250D1*
X4286240Y11371833D1*
X2312477Y7630763D2*
X2310037Y7610157D1*
X2305987Y7589803D1*
X2300353Y7569830D1*
X2293173Y7550360D1*
X2284483Y7531513D1*
X2274343Y7513410D1*
X2262817Y7496153D1*
X2249967Y7479857D1*
X2235880Y7464620D1*
X2220643Y7450533D1*
X2204347Y7437683D1*
X2187090Y7426157D1*
X2168987Y7416017D1*
X2150140Y7407327D1*
X2130670Y7400147D1*
X2110697Y7394513D1*
X2090343Y7390463D1*
X2069737Y7388023D1*
X2049000Y7387210D1*
X2028263Y7388023D1*
X2007657Y7390463D1*
X1987303Y7394513D1*
X1967330Y7400147D1*
X1947860Y7407327D1*
X1929013Y7416017D1*
X1910910Y7426157D1*
X1893653Y7437683D1*
X1877357Y7450533D1*
X1862120Y7464620D1*
X1848033Y7479857D1*
X1835183Y7496153D1*
X1823657Y7513410D1*
X1813517Y7531513D1*
X1804827Y7550360D1*
X1797647Y7569830D1*
X1792013Y7589803D1*
X1787963Y7610157D1*
X1785523Y7630763D1*
X1784710Y7651500D1*
X1785523Y7672237D1*
X1787963Y7692843D1*
X1792013Y7713197D1*
X1797647Y7733170D1*
X1804827Y7752640D1*
X1813517Y7771487D1*
X1823657Y7789590D1*
X1835183Y7806847D1*
X1848033Y7823143D1*
X1862120Y7838380D1*
X1877357Y7852467D1*
X1893653Y7865317D1*
X1910910Y7876843D1*
X1929013Y7886983D1*
X1947860Y7895673D1*
X1967330Y7902853D1*
X1987303Y7908487D1*
X2007657Y7912537D1*
X2028263Y7914977D1*
X2049000Y7915790D1*
X2069737Y7914977D1*
X2090343Y7912537D1*
X2110697Y7908487D1*
X2130670Y7902853D1*
X2150140Y7895673D1*
X2168987Y7886983D1*
X2187090Y7876843D1*
X2204347Y7865317D1*
X2220643Y7852467D1*
X2235880Y7838380D1*
X2249967Y7823143D1*
X2262817Y7806847D1*
X2274343Y7789590D1*
X2284483Y7771487D1*
X2293173Y7752640D1*
X2300353Y7733170D1*
X2305987Y7713197D1*
X2310037Y7692843D1*
X2312477Y7672237D1*
X2313290Y7651500D1*
X2312477Y7630763D1*
Y5630763D2*
X2310037Y5610157D1*
X2305987Y5589803D1*
X2300353Y5569830D1*
X2293173Y5550360D1*
X2284483Y5531513D1*
X2274343Y5513410D1*
X2262817Y5496153D1*
X2249967Y5479857D1*
X2235880Y5464620D1*
X2220643Y5450533D1*
X2204347Y5437683D1*
X2187090Y5426157D1*
X2168987Y5416017D1*
X2150140Y5407327D1*
X2130670Y5400147D1*
X2110697Y5394513D1*
X2090343Y5390463D1*
X2069737Y5388023D1*
X2049000Y5387210D1*
X2028263Y5388023D1*
X2007657Y5390463D1*
X1987303Y5394513D1*
X1967330Y5400147D1*
X1947860Y5407327D1*
X1929013Y5416017D1*
X1910910Y5426157D1*
X1893653Y5437683D1*
X1877357Y5450533D1*
X1862120Y5464620D1*
X1848033Y5479857D1*
X1835183Y5496153D1*
X1823657Y5513410D1*
X1813517Y5531513D1*
X1804827Y5550360D1*
X1797647Y5569830D1*
X1792013Y5589803D1*
X1787963Y5610157D1*
X1785523Y5630763D1*
X1784710Y5651500D1*
X1785523Y5672237D1*
X1787963Y5692843D1*
X1792013Y5713197D1*
X1797647Y5733170D1*
X1804827Y5752640D1*
X1813517Y5771487D1*
X1823657Y5789590D1*
X1835183Y5806847D1*
X1848033Y5823143D1*
X1862120Y5838380D1*
X1877357Y5852467D1*
X1893653Y5865317D1*
X1910910Y5876843D1*
X1929013Y5886983D1*
X1947860Y5895673D1*
X1967330Y5902853D1*
X1987303Y5908487D1*
X2007657Y5912537D1*
X2028263Y5914977D1*
X2049000Y5915790D1*
X2069737Y5914977D1*
X2090343Y5912537D1*
X2110697Y5908487D1*
X2130670Y5902853D1*
X2150140Y5895673D1*
X2168987Y5886983D1*
X2187090Y5876843D1*
X2204347Y5865317D1*
X2220643Y5852467D1*
X2235880Y5838380D1*
X2249967Y5823143D1*
X2262817Y5806847D1*
X2274343Y5789590D1*
X2284483Y5771487D1*
X2293173Y5752640D1*
X2300353Y5733170D1*
X2305987Y5713197D1*
X2310037Y5692843D1*
X2312477Y5672237D1*
X2313290Y5651500D1*
X2312477Y5630763D1*
X21931477Y7630763D2*
X21929037Y7610157D1*
X21924987Y7589803D1*
X21919353Y7569830D1*
X21912173Y7550360D1*
X21903483Y7531513D1*
X21893343Y7513410D1*
X21881817Y7496153D1*
X21868967Y7479857D1*
X21854880Y7464620D1*
X21839643Y7450533D1*
X21823347Y7437683D1*
X21806090Y7426157D1*
X21787987Y7416017D1*
X21769140Y7407327D1*
X21749670Y7400147D1*
X21729697Y7394513D1*
X21709343Y7390463D1*
X21688737Y7388023D1*
X21668000Y7387210D1*
X21647263Y7388023D1*
X21626657Y7390463D1*
X21606303Y7394513D1*
X21586330Y7400147D1*
X21566860Y7407327D1*
X21548013Y7416017D1*
X21529910Y7426157D1*
X21512653Y7437683D1*
X21496357Y7450533D1*
X21481120Y7464620D1*
X21467033Y7479857D1*
X21454183Y7496153D1*
X21442657Y7513410D1*
X21432517Y7531513D1*
X21423827Y7550360D1*
X21416647Y7569830D1*
X21411013Y7589803D1*
X21406963Y7610157D1*
X21404523Y7630763D1*
X21403710Y7651500D1*
X21404523Y7672237D1*
X21406963Y7692843D1*
X21411013Y7713197D1*
X21416647Y7733170D1*
X21423827Y7752640D1*
X21432517Y7771487D1*
X21442657Y7789590D1*
X21454183Y7806847D1*
X21467033Y7823143D1*
X21481120Y7838380D1*
X21496357Y7852467D1*
X21512653Y7865317D1*
X21529910Y7876843D1*
X21548013Y7886983D1*
X21566860Y7895673D1*
X21586330Y7902853D1*
X21606303Y7908487D1*
X21626657Y7912537D1*
X21647263Y7914977D1*
X21668000Y7915790D1*
X21688737Y7914977D1*
X21709343Y7912537D1*
X21729697Y7908487D1*
X21749670Y7902853D1*
X21769140Y7895673D1*
X21787987Y7886983D1*
X21806090Y7876843D1*
X21823347Y7865317D1*
X21839643Y7852467D1*
X21854880Y7838380D1*
X21868967Y7823143D1*
X21881817Y7806847D1*
X21893343Y7789590D1*
X21903483Y7771487D1*
X21912173Y7752640D1*
X21919353Y7733170D1*
X21924987Y7713197D1*
X21929037Y7692843D1*
X21931477Y7672237D1*
X21932290Y7651500D1*
X21931477Y7630763D1*
X22082710Y2619327D2*
Y10683727D1*
X21061033Y10684140D1*
X21053850Y10686167D1*
X21047337Y10689813D1*
X21041857Y10694880D1*
X21037710Y10701087D1*
X21035127Y10708087D1*
X21034250Y10715510D1*
Y11337207D1*
X16925113Y11337210D1*
X16081237Y10493263D1*
X16064140Y10477390D1*
X16045913Y10462830D1*
X16026657Y10449663D1*
X16006480Y10437960D1*
X15985487Y10427787D1*
X15963797Y10419197D1*
X15941530Y10412240D1*
X15918810Y10406953D1*
X15895760Y10403367D1*
X15858910Y10401210D1*
X12969767D1*
X12969750Y5286283D1*
X14974967Y5285860D1*
X14982150Y5283833D1*
X14988663Y5280187D1*
X14994143Y5275120D1*
X14998290Y5268913D1*
X15000873Y5261913D1*
X15001750Y5254490D1*
Y2619200D1*
X22082747Y2619250D1*
X6076753Y11671210D2*
X3536337D1*
X3536290Y11376500D1*
X3535630Y11359687D1*
X3533653Y11342977D1*
X3530370Y11326473D1*
X3525803Y11310280D1*
X3519980Y11294493D1*
X3512933Y11279213D1*
X3504713Y11264533D1*
X3495363Y11250543D1*
X3484947Y11237330D1*
X3473527Y11224973D1*
X3461170Y11213553D1*
X3447957Y11203137D1*
X3433967Y11193787D1*
X3419287Y11185567D1*
X3404007Y11178520D1*
X3388220Y11172697D1*
X3372027Y11168130D1*
X3355523Y11164847D1*
X3338813Y11162870D1*
X3322000Y11162210D1*
X3305187Y11162870D1*
X3288477Y11164847D1*
X3271973Y11168130D1*
X3255780Y11172697D1*
X3239993Y11178520D1*
X3224713Y11185567D1*
X3210033Y11193787D1*
X3196043Y11203137D1*
X3182830Y11213553D1*
X3170473Y11224973D1*
X3159053Y11237330D1*
X3148637Y11250543D1*
X3139287Y11264533D1*
X3131067Y11279213D1*
X3124020Y11294493D1*
X3118197Y11310280D1*
X3113630Y11326473D1*
X3110347Y11342977D1*
X3108370Y11359687D1*
X3107710Y11399833D1*
X3107717Y11671210D1*
X2809670D1*
X2809653Y10713010D1*
X2808197Y10705690D1*
X2805070Y10698910D1*
X2800450Y10693050D1*
X2794590Y10688430D1*
X2787810Y10685303D1*
X2780490Y10683847D1*
X1695290Y10683663D1*
Y2619263D1*
X8842280Y2619250D1*
X8842640Y5259467D1*
X8844667Y5266650D1*
X8848313Y5273163D1*
X8853380Y5278643D1*
X8859587Y5282790D1*
X8866587Y5285373D1*
X8874010Y5286250D1*
X10874197D1*
X10874250Y10401233D1*
X7477000Y10401210D1*
X7453687Y10402077D1*
X7430503Y10404667D1*
X7407577Y10408973D1*
X7385033Y10414967D1*
X7362993Y10422617D1*
X7341583Y10431880D1*
X7320920Y10442703D1*
X7301117Y10455033D1*
X7282280Y10468797D1*
X7254700Y10493327D1*
X6076813Y11671213D1*
X21034300Y6365673D2*
X21434247Y5965790D1*
X21668000D1*
X21691313Y5964923D1*
X21714497Y5962333D1*
X21737423Y5958027D1*
X21759967Y5952033D1*
X21782007Y5944383D1*
X21803417Y5935120D1*
X21824080Y5924297D1*
X21843883Y5911967D1*
X21862720Y5898203D1*
X21880483Y5883080D1*
X21897073Y5866683D1*
X21912403Y5849100D1*
X21926387Y5830427D1*
X21938947Y5810770D1*
X21950013Y5790233D1*
X21959527Y5768933D1*
X21967433Y5746987D1*
X21973693Y5724513D1*
X21978267Y5701637D1*
X21981130Y5678487D1*
X21982270Y5655187D1*
X21981677Y5631867D1*
X21979357Y5608653D1*
X21975320Y5585677D1*
X21969590Y5563063D1*
X21962200Y5540937D1*
X21953190Y5519420D1*
X21942607Y5498630D1*
X21930513Y5478683D1*
X21916970Y5459687D1*
X21902057Y5441750D1*
X21885857Y5424967D1*
X21868453Y5409430D1*
X21849943Y5395230D1*
X21830437Y5382440D1*
X21810030Y5371133D1*
X21788843Y5361370D1*
X21766990Y5353207D1*
X21744593Y5346687D1*
X21721773Y5341843D1*
X21698657Y5338710D1*
X21668000Y5337210D1*
X21304000D1*
X21280687Y5338077D1*
X21257503Y5340667D1*
X21234577Y5344973D1*
X21212033Y5350967D1*
X21189993Y5358617D1*
X21168583Y5367880D1*
X21147920Y5378703D1*
X21128117Y5391033D1*
X21109280Y5404797D1*
X21081440Y5429587D1*
X20681853Y5829173D1*
X13446000Y5829210D1*
X13422687Y5830077D1*
X13399503Y5832667D1*
X13376577Y5836973D1*
X13354033Y5842967D1*
X13331993Y5850617D1*
X13310583Y5859880D1*
X13289920Y5870703D1*
X13270117Y5883033D1*
X13251280Y5896797D1*
X13233520Y5911920D1*
X13216927Y5928317D1*
X13201597Y5945900D1*
X13187613Y5964573D1*
X13175053Y5984233D1*
X13163987Y6004767D1*
X13154473Y6026067D1*
X13146567Y6048013D1*
X13140307Y6070487D1*
X13135733Y6093363D1*
X13132870Y6116513D1*
X13131730Y6139813D1*
X13132323Y6163133D1*
X13134643Y6186347D1*
X13138680Y6209323D1*
X13144410Y6231937D1*
X13151800Y6254063D1*
X13160810Y6275580D1*
X13171393Y6296370D1*
X13183490Y6316317D1*
X13197030Y6335313D1*
X13211943Y6353250D1*
X13228147Y6370033D1*
X13245550Y6385570D1*
X13264057Y6399770D1*
X13283567Y6412560D1*
X13303970Y6423867D1*
X13325157Y6433630D1*
X13347010Y6441793D1*
X13369407Y6448313D1*
X13392227Y6453157D1*
X13415343Y6456290D1*
X13446000Y6457790D1*
X20812000D1*
X20835313Y6456923D1*
X20858497Y6454333D1*
X20881423Y6450027D1*
X20903967Y6444033D1*
X20926007Y6436383D1*
X20947417Y6427120D1*
X20968080Y6416297D1*
X20987883Y6403967D1*
X21006720Y6390203D1*
X21024547Y6375017D1*
X3667000Y3837967D2*
D17*
Y3259567D1*
X3377800Y3548767D2*
X3956200D1*
X6207000Y3837967D2*
Y3259567D1*
X5917800Y3548767D2*
X6496200D1*
X3667000Y9917967D2*
Y9339567D1*
X3377800Y9628767D2*
X3956200D1*
X6207000Y9917967D2*
Y9339567D1*
X5917800Y9628767D2*
X6496200D1*
X17637000Y3781700D2*
Y3203300D1*
X17347800Y3492500D2*
X17926200D1*
X20177000Y3781700D2*
Y3203300D1*
X19887800Y3492500D2*
X20466200D1*
X17629000Y9869700D2*
Y9291300D1*
X17339800Y9580500D2*
X17918200D1*
X20169000Y9869700D2*
Y9291300D1*
X19879800Y9580500D2*
X20458200D1*
X10398000Y8439700D2*
Y7911300D1*
X10133800Y8175500D2*
X10662200D1*
X13446000Y8439700D2*
Y7911300D1*
X13181800Y8175500D2*
X13710200D1*
X2049000Y6915700D2*
Y6387300D1*
X1784800Y6651500D2*
X2313200D1*
X21668000Y6915700D2*
Y6387300D1*
X21403800Y6651500D2*
X21932200D1*
X7858000Y3218700D2*
Y2790300D1*
X7643800Y3004500D2*
X8072200D1*
X8620000Y3218700D2*
Y2790300D1*
X8405800Y3004500D2*
X8834200D1*
X15224000Y3198700D2*
Y2770300D1*
X15009800Y2984500D2*
X15438200D1*
X15986000Y3198700D2*
Y2770300D1*
X15771800Y2984500D2*
X16200200D1*
X4072000Y11590700D2*
Y11162300D1*
X3857800Y11376500D2*
X4286200D1*
D18*
X11422000Y11651500D3*
X12422000D3*
X9422000Y1651500D3*
D19*
X9668000Y3901500D3*
Y4401500D3*
Y3401500D3*
D20*
Y4901500D3*
D19*
X14176000Y4401500D3*
Y3901500D3*
Y4901500D3*
D20*
Y3401500D3*
D21*
X3667000Y3548767D3*
D22*
Y4548767D3*
D21*
X6207000Y3548767D3*
D22*
Y4548767D3*
D21*
X3667000Y9628767D3*
D22*
Y8628767D3*
D21*
X6207000Y9628767D3*
D22*
Y8628767D3*
D21*
X17637000Y4492500D3*
D22*
Y3492500D3*
D21*
X20177000Y4492500D3*
D22*
Y3492500D3*
D21*
X17629000Y8580500D3*
D22*
Y9580500D3*
D21*
X20169000Y8580500D3*
D22*
Y9580500D3*
D14*
X11422000Y3151500D3*
X12422000D3*
D43*
X1922000Y1651500D3*
X21922000Y11651500D3*
Y1651500D3*
X1922000Y11651500D3*
D18*
X11422000Y1651500D3*
X12422000D3*
X10422000D3*
X13422000D3*
X15422000D3*
X10398000Y7159500D3*
Y6143500D3*
X13446000D3*
Y7159500D3*
X10398000Y8175500D3*
X13446000D3*
X2049000Y6651500D3*
X21668000D3*
D14*
X7858000Y3004500D3*
Y5504500D3*
X8620000Y3004500D3*
Y5504500D3*
X3794000Y7810500D3*
Y5310500D3*
X4556000Y7810500D3*
Y5310500D3*
X5318000Y7810500D3*
Y5310500D3*
X6080000Y7810500D3*
Y5310500D3*
X15224000Y5484500D3*
Y2984500D3*
X15986000Y5484500D3*
Y2984500D3*
X17764000Y7810500D3*
Y5310500D3*
X18526000Y7810500D3*
Y5310500D3*
X19288000Y7810500D3*
Y5310500D3*
X20050000Y7810500D3*
Y5310500D3*
D18*
X8422000Y1651500D3*
D14*
X11422000Y9014500D3*
Y9764500D3*
X4072000Y11376500D3*
X3322000D3*
D18*
X2049000Y7651500D3*
X21668000Y5651500D3*
X2049000D3*
X21668000Y7651500D3*
X14422000Y1651500D3*
M02*
