G04 DipTrace 3.3.1.3*
G04 TopMask.gbr*
%MOMM*%
G04 #@! TF.FileFunction,Soldermask,Top*
G04 #@! TF.Part,Single*
%AMOUTLINE1*
4,1,8,
4.7194,1.95485,
4.7194,-1.95485,
1.95485,-4.7194,
-1.95485,-4.7194,
-4.7194,-1.95485,
-4.7194,1.95485,
-1.95485,4.7194,
1.95485,4.7194,
4.7194,1.95485,
0*%
%ADD13C,4.0*%
%ADD26C,3.2*%
%ADD29C,2.2*%
%ADD31R,3.7X3.7*%
%ADD33C,3.7*%
%ADD35R,2.7X3.7*%
%ADD37O,2.7X3.7*%
%ADD44OUTLINE1*%
%FSLAX35Y35*%
G04*
G71*
G90*
G75*
G01*
G04 TopMask*
%LPD*%
D26*
X11422000Y11651500D3*
X12422000D3*
X9422000Y1651500D3*
D37*
X9668000Y3901500D3*
Y4401500D3*
Y3401500D3*
D35*
Y4901500D3*
D37*
X14176000Y4401500D3*
Y3901500D3*
Y4901500D3*
D35*
Y3401500D3*
D33*
X3667000Y3548767D3*
D31*
Y4548767D3*
D33*
X6207000Y3548767D3*
D31*
Y4548767D3*
D33*
X3667000Y9628767D3*
D31*
Y8628767D3*
D33*
X6207000Y9628767D3*
D31*
Y8628767D3*
D33*
X17637000Y4492500D3*
D31*
Y3492500D3*
D33*
X20177000Y4492500D3*
D31*
Y3492500D3*
D33*
X17629000Y8580500D3*
D31*
Y9580500D3*
D33*
X20169000Y8580500D3*
D31*
Y9580500D3*
D29*
X11422000Y3151500D3*
X12422000D3*
D44*
X1922000Y1651500D3*
X21922000Y11651500D3*
Y1651500D3*
X1922000Y11651500D3*
D26*
X11422000Y1651500D3*
X12422000D3*
D13*
X14922000Y11651500D3*
X17922000Y1651500D3*
X8922000Y11651500D3*
X5922000Y1651500D3*
D26*
X10422000D3*
X13422000D3*
X15422000D3*
X10398000Y7159500D3*
Y6143500D3*
X13446000D3*
Y7159500D3*
X10398000Y8175500D3*
X13446000D3*
X2049000Y6651500D3*
X21668000D3*
D29*
X7858000Y3004500D3*
Y5504500D3*
X8620000Y3004500D3*
Y5504500D3*
X3794000Y7810500D3*
Y5310500D3*
X4556000Y7810500D3*
Y5310500D3*
X5318000Y7810500D3*
Y5310500D3*
X6080000Y7810500D3*
Y5310500D3*
X15224000Y5484500D3*
Y2984500D3*
X15986000Y5484500D3*
Y2984500D3*
X17764000Y7810500D3*
Y5310500D3*
X18526000Y7810500D3*
Y5310500D3*
X19288000Y7810500D3*
Y5310500D3*
X20050000Y7810500D3*
Y5310500D3*
D26*
X8422000Y1651500D3*
D29*
X11422000Y9014500D3*
Y9764500D3*
X4072000Y11376500D3*
X3322000D3*
D26*
X2049000Y7651500D3*
X21668000Y5651500D3*
X2049000D3*
X21668000Y7651500D3*
X14422000Y1651500D3*
M02*
