G04 DipTrace 2.3.1.0*
%INBottomMask.gbr*%
%MOIN*%
%ADD34R,0.0591X0.0591*%
%ADD36C,0.15*%
%ADD48C,0.0679*%
%ADD50R,0.0669X0.0669*%
%ADD56C,0.0579*%
%ADD58C,0.1279*%
%ADD60O,0.0479X0.0879*%
%ADD64C,0.0779*%
%ADD66C,0.0571*%
%ADD68C,0.0768*%
%ADD70C,0.1579*%
%ADD74O,0.1079X0.1579*%
%ADD76C,0.1079*%
%FSLAX44Y44*%
G04*
G70*
G90*
G75*
G01*
%LNBotMask*%
%LPD*%
D76*
X16921Y5453D3*
Y7421D3*
X31937Y5437D3*
Y7406D3*
D74*
X19437Y10937D3*
X22390D3*
X25343D3*
X29295D3*
G36*
X36147Y13705D2*
X35540D1*
X35111Y14134D1*
Y14740D1*
X35540Y15169D1*
X36147D1*
X36576Y14740D1*
Y14134D1*
X36147Y13705D1*
G37*
D70*
X39781Y14437D3*
G36*
X9490Y13705D2*
X8884D1*
X8455Y14134D1*
Y14740D1*
X8884Y15169D1*
X9490D1*
X9919Y14740D1*
Y14134D1*
X9490Y13705D1*
G37*
D70*
X13124Y14437D3*
G36*
X36585Y30579D2*
X36289D1*
X36079Y30789D1*
Y31085D1*
X36289Y31295D1*
X36585D1*
X36795Y31085D1*
Y30789D1*
X36585Y30579D1*
G37*
D68*
X38406Y30937D3*
G36*
X10585Y30579D2*
X10289D1*
X10079Y30789D1*
Y31085D1*
X10289Y31295D1*
X10585D1*
X10795Y31085D1*
Y30789D1*
X10585Y30579D1*
G37*
D68*
X12406Y30937D3*
D66*
X32421Y29953D3*
Y31921D3*
X16421D3*
Y29953D3*
G36*
X35279Y24101D2*
Y23805D1*
X35069Y23595D1*
X34773D1*
X34564Y23805D1*
Y24101D1*
X34773Y24310D1*
X35069D1*
X35279Y24101D1*
G37*
D64*
X34921Y25921D3*
G36*
X13564Y25773D2*
Y26069D1*
X13773Y26279D1*
X14069D1*
X14279Y26069D1*
Y25773D1*
X14069Y25564D1*
X13773D1*
X13564Y25773D1*
G37*
D64*
X13921Y23953D3*
G36*
X42564Y25773D2*
Y26069D1*
X42773Y26279D1*
X43069D1*
X43279Y26069D1*
Y25773D1*
X43069Y25564D1*
X42773D1*
X42564Y25773D1*
G37*
D64*
X42921Y23953D3*
G36*
X6529Y24101D2*
Y23805D1*
X6319Y23595D1*
X6023D1*
X5814Y23805D1*
Y24101D1*
X6023Y24310D1*
X6319D1*
X6529Y24101D1*
G37*
D64*
X6171Y25921D3*
X21437Y14437D3*
X27343D3*
D76*
X21937Y5437D3*
Y7406D3*
X26937Y5437D3*
Y7406D3*
D36*
X43187Y32687D3*
X5687Y5687D3*
X43187D3*
X5687Y32687D3*
D60*
X19319Y31441D3*
X19713Y33007D3*
X20106Y31441D3*
X20500Y33007D3*
X20894Y31441D3*
X21287Y33007D3*
X21681Y31441D3*
X22075Y33007D3*
X22469Y31441D3*
X22862Y33007D3*
X23256Y31441D3*
X23650Y33007D3*
X24043Y31441D3*
X24437Y33007D3*
X24831Y31441D3*
X25224Y33007D3*
X25618Y31441D3*
X26012Y33007D3*
X26406Y31441D3*
X26799Y33007D3*
X27193Y31441D3*
X27587Y33007D3*
X27980Y31441D3*
X28374Y33007D3*
X28768Y31441D3*
X29161Y33007D3*
X29555Y31441D3*
D76*
X27421Y18953D3*
Y20921D3*
X21421Y18953D3*
Y20921D3*
X18453Y24953D3*
Y26921D3*
X30437Y24953D3*
Y26921D3*
D58*
X21437Y19937D3*
X27437D3*
X30437Y25937D3*
X18437D3*
X16937Y6437D3*
X21937D3*
X26937D3*
X31937D3*
D56*
X39937Y24937D3*
X38937Y23937D3*
D34*
X37937Y24937D3*
D56*
X11187D3*
X10187Y23937D3*
D34*
X9187Y24937D3*
D50*
X41932Y27437D3*
D48*
X37956D3*
D50*
X10932D3*
D48*
X6956D3*
M02*
