M48
INCH
T01C0.02
T02C0.0236
T03C0.0276
T04C0.03
T05C0.0315
T06C0.035
T07C0.0354
T08C0.05
T09C0.06
T10C0.0827
T11C0.15
%
T01
X+026812Y+030312
X+026812Y+029562
X+025687Y+029562
X+025562Y+027937
X+024437Y+027937
X+023687Y+029187
X+023437Y+024437
X+024562Y+024437
X+022312Y+024062
X+011937Y+022937
X+008437Y+023937
X+036937Y+022937
X+040687Y+023937
T02
X+032421Y+029953
X+032421Y+031921
X+016421Y+031921
X+016421Y+029953
T03
X+037937Y+024937
X+009187Y+024937
T04
X+019319Y+031441
X+020106Y+031441
X+020894Y+031441
X+021681Y+031441
X+022469Y+031441
X+023256Y+031441
X+024043Y+031441
X+024831Y+031441
X+025618Y+031441
X+026406Y+031441
X+027193Y+031441
X+027980Y+031441
X+028768Y+031441
X+029555Y+031441
X+029161Y+033007
X+028374Y+033007
X+027587Y+033007
X+026799Y+033007
X+026012Y+033007
X+025224Y+033007
X+024437Y+033007
X+023650Y+033007
X+022862Y+033007
X+022075Y+033007
X+021287Y+033007
X+020500Y+033007
X+019713Y+033007
X+011187Y+024937
X+010187Y+023937
X+038937Y+023937
X+039937Y+024937
T05
X+036437Y+030937
X+038406Y+030937
X+042921Y+025921
X+034921Y+023953
X+013921Y+025921
X+012406Y+030937
X+010437Y+030937
X+006171Y+023953
T06
X+034921Y+025921
X+037956Y+027437
X+042921Y+023953
X+027343Y+014437
X+021437Y+014437
X+013921Y+023953
X+006956Y+027437
X+006171Y+025921
T07
X+041932Y+027437
X+010932Y+027437
T08
X+016921Y+005453
X+016921Y+007421
X+019437Y+010937
X+022390Y+010937
X+025343Y+010937
X+026937Y+007406
X+026937Y+005437
X+021937Y+005437
X+021937Y+007406
X+029295Y+010937
X+031937Y+007406
X+031937Y+005437
X+027421Y+018953
X+027421Y+020921
X+030437Y+024953
X+030437Y+026921
X+021421Y+020921
X+021421Y+018953
X+018453Y+024953
X+018453Y+026921
T09
X+021437Y+019937
X+027437Y+019937
X+030437Y+025937
X+018437Y+025937
X+016937Y+006437
X+021937Y+006437
X+026937Y+006437
X+031937Y+006437
T10
X+035844Y+014437
X+039781Y+014437
X+013124Y+014437
X+009187Y+014437
T11
X+043187Y+032687
X+043187Y+005687
X+005687Y+005687
X+005687Y+032687
T00
M30
